<svg width="218" height="218" viewBox="0 0 218 218" fill="none" xmlns="http://www.w3.org/2000/svg">
<rect width="218" height="218" rx="24.2222" fill="#1E1E1E"/>
<g clip-path="url(#clip0_515_11730)">
<path d="M109 110.211C109 104.108 111.424 98.2554 115.74 93.94C120.055 89.6246 125.908 87.2002 132.011 87.2002C138.114 87.2002 143.967 89.6246 148.282 93.94C152.598 98.2554 155.022 104.108 155.022 110.211C155.022 116.314 152.598 122.167 148.282 126.483C143.967 130.798 138.114 133.222 132.011 133.222C125.908 133.222 120.055 130.798 115.74 126.483C111.424 122.167 109 116.314 109 110.211V110.211Z" fill="#1ABCFE"/>
<path d="M62.9766 156.234C62.9766 150.131 65.4009 144.278 69.7164 139.962C74.0318 135.647 79.8847 133.223 85.9877 133.223H108.999V156.234C108.999 162.337 106.574 168.19 102.259 172.505C97.9436 176.82 92.0906 179.245 85.9877 179.245C79.8847 179.245 74.0318 176.82 69.7164 172.505C65.4009 168.19 62.9766 162.337 62.9766 156.234V156.234Z" fill="#0ACF83"/>
<path d="M109 41.1777V87.2H132.011C138.114 87.2 143.967 84.7756 148.282 80.4602C152.598 76.1447 155.022 70.2918 155.022 64.1888C155.022 58.0859 152.598 52.233 148.282 47.9175C143.967 43.6021 138.114 41.1777 132.011 41.1777H109Z" fill="#FF7262"/>
<path d="M62.9766 64.1888C62.9766 70.2918 65.4009 76.1447 69.7164 80.4602C74.0318 84.7756 79.8847 87.2 85.9877 87.2H108.999V41.1777H85.9877C79.8847 41.1777 74.0318 43.6021 69.7164 47.9175C65.4009 52.233 62.9766 58.0859 62.9766 64.1888V64.1888Z" fill="#F24E1E"/>
<path d="M62.9766 110.211C62.9766 116.314 65.4009 122.167 69.7164 126.483C74.0318 130.798 79.8847 133.222 85.9877 133.222H108.999V87.2002H85.9877C79.8847 87.2002 74.0318 89.6246 69.7164 93.94C65.4009 98.2554 62.9766 104.108 62.9766 110.211V110.211Z" fill="#A259FF"/>
</g>
<defs>
<clipPath id="clip0_515_11730">
<rect width="92.0444" height="138.067" fill="white" transform="translate(62.9766 41.1777)"/>
</clipPath>
</defs>
</svg>
