<svg width="428" height="13" viewBox="0 0 428 13" fill="none" xmlns="http://www.w3.org/2000/svg">
<path fill-rule="evenodd" clip-rule="evenodd" d="M0 12.3463H273C267.122 10.6843 254.278 8.54743 256.237 0C245.352 13.5334 219.445 9.49716 212.696 2.84915C205.294 14.4832 162.624 9.97201 159.794 0.949718C150.651 12.8211 122.132 12.8211 112.988 0.949718C109.94 9.97201 67.2703 14.4832 60.0861 2.84915C53.555 9.49716 27.4306 13.5334 16.5455 0C18.9402 8.31 5.87799 10.6843 0 12.3463Z" fill="#3A4D54"/>
<path fill-rule="evenodd" clip-rule="evenodd" d="M194 12.3463H467C461.122 10.6843 448.278 8.54743 450.237 0C439.352 13.5334 413.445 9.49716 406.696 2.84915C399.294 14.4832 356.624 9.97201 353.794 0.949718C344.651 12.8211 316.132 12.8211 306.988 0.949718C303.94 9.97201 261.27 14.4832 254.086 2.84915C247.555 9.49716 221.431 13.5334 210.545 0C212.94 8.31 199.878 10.6843 194 12.3463Z" fill="#3A4D54"/>
</svg>
