<svg xmlns="http://www.w3.org/2000/svg" width="128" height="84" viewBox="0 0 128 84" fill="none">
<path fill-rule="evenodd" clip-rule="evenodd" d="M66.6787 26.2678L79.7267 26.2678L79.7267 39.6549L86.3085 39.6549C89.3107 39.6549 92.4283 39.0729 95.3151 38.1416C96.7007 37.676 98.3173 36.9775 99.7029 36.1626C97.8554 33.718 96.9316 30.6914 96.7007 27.6647C96.3543 23.5904 97.1626 18.2356 99.9338 15.0925L101.319 13.4628L102.936 14.7433C107.093 18.1192 110.442 22.6591 111.134 28.014C116.1 26.5006 121.873 26.8499 126.261 29.4109L127.993 30.4586L127.069 32.3211C123.374 39.5385 115.638 41.8667 108.132 41.4011C96.8162 69.6886 72.3367 83.0757 42.5457 83.0757C27.1883 83.0757 13.101 77.2552 5.01818 63.5189L4.90271 63.2861L3.74802 60.8415C0.976762 54.7882 0.16848 48.1528 0.745826 41.5175L0.976763 39.5385L12.0618 39.5385L12.0618 26.2678L25.1098 26.2678L25.1098 13.23L51.0904 13.23L51.0904 0.0756836L66.6787 0.0756836L66.6787 26.2678Z" fill="#3A4D54"/>
<path d="M110.77 31.1114C111.702 24.264 106.576 18.9254 103.314 16.3721C99.702 20.5502 99.1195 31.6917 104.828 36.334C101.566 39.1194 94.9254 41.7887 87.9352 41.7887L3.81983 41.7887C3.12081 48.9842 4.40234 55.5995 7.31493 61.2863L8.24695 63.0272C8.82947 64.0717 9.52849 65.0002 10.2275 66.0447C13.7226 66.2768 16.4954 66.5778 19.4079 66.4618C25.1166 66.3457 30.1496 65.4644 33.7612 64.3038C34.3437 64.0717 34.8097 64.4199 35.0427 64.8841C35.2757 65.4644 34.9262 65.9286 34.4602 66.1607C33.9942 66.2768 33.5282 66.5089 32.9457 66.625C30.1496 67.4374 27.1205 67.9016 23.2759 68.1337H22.5769C21.0623 68.2498 19.4313 68.2498 17.6837 68.2498C15.8197 68.2498 14.0721 68.2498 11.9751 68.1337C18.9653 76.0256 29.9166 80.6679 43.664 80.6679C72.7898 80.6679 97.4885 67.7855 108.323 39.0033C116.129 39.8157 123.585 37.8427 126.964 31.2275C121.721 28.0939 114.731 29.1384 110.77 31.1114Z" fill="#28B8EB"/>
<path d="M109.885 30.8162C110.808 23.8667 105.73 18.4485 102.498 15.8572C98.9202 20.0975 98.3431 31.4052 103.999 36.1167C100.767 38.9436 94.188 41.6527 87.2629 41.6527L8.77839 41.6527C8.43213 52.8425 12.4718 61.3233 19.7431 66.3881C25.3986 66.2703 30.0154 65.5636 33.5934 64.3857C34.1704 64.1502 34.6321 64.5035 34.863 64.9747C35.0938 65.5636 34.7475 66.0348 34.2859 66.2703C33.8242 66.3881 33.3625 66.6237 32.7854 66.7415C30.0154 67.566 26.7837 68.1549 22.9749 68.3905L22.8594 68.2727C32.67 73.4554 46.8665 73.3376 63.2559 66.9771C81.492 59.792 98.5739 46.1286 110.462 30.5806C110.231 30.6984 110 30.6984 109.885 30.8162Z" fill="#28B8EB"/>
<path fill-rule="evenodd" clip-rule="evenodd" d="M15.1875 28.6384L26.3711 28.6384L26.3711 39.822L15.1875 39.822L15.1875 28.6384ZM16.1004 29.5513L17.0134 29.5513L17.0134 38.7949L16.1004 38.7949L16.1004 29.5513ZM17.6981 29.5513L18.611 29.5513L18.611 38.7949H17.6981L17.6981 29.5513ZM19.4099 29.5513H20.3228L20.3228 38.7949L19.4099 38.7949L19.4099 29.5513ZM21.1216 29.5513H22.0346L22.0346 38.7949H21.1216L21.1216 29.5513ZM22.8334 29.5513L23.7464 29.5513L23.7464 38.7949L22.8334 38.7949L22.8334 29.5513ZM24.5452 29.5513L25.4581 29.5513L25.4581 38.7949H24.5452L24.5452 29.5513ZM27.9687 15.8572L39.1523 15.8572L39.1523 27.0407L27.9687 27.0407L27.9687 15.8572ZM28.9958 16.7701L29.9087 16.7701L29.9087 26.0137H28.9958L28.9958 16.7701ZM30.5934 16.7701L31.5064 16.7701L31.5064 26.0137L30.5934 26.0137L30.5934 16.7701ZM32.3052 16.7701L33.2181 16.7701L33.2181 26.0137L32.3052 26.0137L32.3052 16.7701ZM34.017 16.7701L34.9299 16.7701L34.9299 26.0137L34.017 26.0137L34.017 16.7701ZM35.6146 16.7701L36.5276 16.7701L36.5276 26.0137L35.6146 26.0137L35.6146 16.7701ZM37.3264 16.7701L38.2393 16.7701L38.2393 26.0137L37.3264 26.0137L37.3264 16.7701Z" fill="#00ACD3"/>
<path fill-rule="evenodd" clip-rule="evenodd" d="M27.4531 28.7175L39.1433 28.7175L39.1433 39.8232L27.4531 39.8232L27.4531 28.7175ZM28.5267 29.6241L29.481 29.6241L29.481 38.8033H28.5267L28.5267 29.6241ZM30.1967 29.6241L31.151 29.6241L31.151 38.8033H30.1967L30.1967 29.6241ZM31.986 29.6241L32.9403 29.6241L32.9403 38.8033L31.986 38.8033L31.986 29.6241ZM33.7753 29.6241L34.7296 29.6241L34.7296 38.8033L33.7753 38.8033L33.7753 29.6241ZM35.4454 29.6241L36.3997 29.6241L36.3997 38.8033L35.4454 38.8033L35.4454 29.6241ZM37.2347 29.6241L38.189 29.6241L38.189 38.8033L37.2347 38.8033L37.2347 29.6241Z" fill="#23C2EE"/>
<path fill-rule="evenodd" clip-rule="evenodd" d="M40.3125 28.7173L51.4181 28.7173L51.4181 39.8229L40.3125 39.8229L40.3125 28.7173ZM41.2191 29.6239L42.1257 29.6239L42.1257 38.803L41.2191 38.803L41.2191 29.6239ZM42.9189 29.6239L43.8255 29.6239L43.8255 38.803H42.9189L42.9189 29.6239ZM44.6188 29.6239L45.5253 29.6239L45.5253 38.803H44.6188L44.6188 29.6239ZM46.2053 29.6239L47.1119 29.6239L47.1119 38.803H46.2053L46.2053 29.6239ZM47.9051 29.6239L48.8117 29.6239L48.8117 38.803L47.9051 38.803L47.9051 29.6239ZM49.605 29.6239L50.5116 29.6239L50.5116 38.803H49.605L49.605 29.6239Z" fill="#00ACD3"/>
<path fill-rule="evenodd" clip-rule="evenodd" d="M40.3125 15.8582L52.2575 15.8582L52.2575 27.0417L40.3125 27.0417L40.3125 15.8582ZM41.2876 16.7711L42.2627 16.7711L42.2627 26.0147L41.2876 26.0147L41.2876 16.7711ZM43.1159 16.7711L44.091 16.7711L44.091 26.0147L43.1159 26.0147L43.1159 16.7711ZM44.9442 16.7711L45.9193 16.7711L45.9193 26.0147L44.9442 26.0147L44.9442 16.7711ZM46.6507 16.7711L47.6258 16.7711L47.6258 26.0147L46.6507 26.0147L46.6507 16.7711ZM48.479 16.7711L49.4541 16.7711L49.4541 26.0147L48.479 26.0147L48.479 16.7711ZM50.3073 16.7711L51.2824 16.7711L51.2824 26.0147L50.3073 26.0147L50.3073 16.7711ZM54.0858 28.6394L66.0308 28.6394L66.0308 39.8229L54.0858 39.8229L54.0858 28.6394ZM55.0609 29.5523L56.036 29.5523L56.036 38.7959H55.0609L55.0609 29.5523ZM56.8892 29.5523L57.8643 29.5523L57.8643 38.7959L56.8892 38.7959L56.8892 29.5523ZM58.5957 29.5523H59.5708L59.5708 38.7959H58.5957L58.5957 29.5523ZM60.424 29.5523L61.3991 29.5523L61.3991 38.7959L60.424 38.7959L60.424 29.5523ZM62.2523 29.5523L63.2274 29.5523L63.2274 38.7959H62.2523L62.2523 29.5523ZM64.0806 29.5523L65.0557 29.5523L65.0557 38.7959L64.0806 38.7959L64.0806 29.5523Z" fill="#23C2EE"/>
<path fill-rule="evenodd" clip-rule="evenodd" d="M54.9297 15.8577L66.0353 15.8577L66.0353 26.9633L54.9297 26.9633L54.9297 15.8577ZM55.8363 16.7642L56.7429 16.7642L56.7429 25.9434L55.8363 25.9434L55.8363 16.7642ZM57.5361 16.7642L58.4427 16.7642L58.4427 25.9434H57.5361L57.5361 16.7642ZM59.1226 16.7642L60.0292 16.7642L60.0292 25.9434H59.1226L59.1226 16.7642ZM60.8225 16.7642L61.7291 16.7642L61.7291 25.9434H60.8225L60.8225 16.7642ZM62.5223 16.7642L63.4289 16.7642L63.4289 25.9434L62.5223 25.9434L62.5223 16.7642ZM64.2222 16.7642L65.1287 16.7642L65.1287 25.9434L64.2222 25.9434L64.2222 16.7642Z" fill="#00ACD3"/>
<path fill-rule="evenodd" clip-rule="evenodd" d="M54.9297 1.82886L66.0353 1.82886L66.0353 12.9345L54.9297 12.9345L54.9297 1.82886ZM55.8363 2.73544L56.7429 2.73544L56.7429 11.9146L55.8363 11.9146L55.8363 2.73544ZM57.5361 2.73544L58.4427 2.73544L58.4427 11.9146L57.5361 11.9146L57.5361 2.73544ZM59.1226 2.73544L60.0292 2.73544L60.0292 11.9146L59.1226 11.9146L59.1226 2.73544ZM60.8225 2.73544L61.7291 2.73544L61.7291 11.9146L60.8225 11.9146L60.8225 2.73544ZM62.5223 2.73544L63.4289 2.73544L63.4289 11.9146L62.5223 11.9146L62.5223 2.73544ZM64.2222 2.73544L65.1287 2.73544L65.1287 11.9146L64.2222 11.9146L64.2222 2.73544Z" fill="#23C2EE"/>
<path fill-rule="evenodd" clip-rule="evenodd" d="M67.7891 28.7163L78.8947 28.7163L78.8947 39.8219L67.7891 39.8219L67.7891 28.7163ZM68.6956 29.6229L69.6022 29.6229L69.6022 38.802L68.6956 38.802L68.6956 29.6229ZM70.2822 29.6229L71.1887 29.6229L71.1887 38.802H70.2822L70.2822 29.6229ZM71.982 29.6229L72.8886 29.6229L72.8886 38.802H71.982L71.982 29.6229ZM73.6818 29.6229L74.5884 29.6229L74.5884 38.802H73.6818L73.6818 29.6229ZM75.3817 29.6229L76.2883 29.6229L76.2883 38.802L75.3817 38.802L75.3817 29.6229ZM77.0815 29.6229L77.9881 29.6229L77.9881 38.802H77.0815L77.0815 29.6229Z" fill="#00ACD3"/>
<path fill-rule="evenodd" clip-rule="evenodd" d="M38.8632 57.3564C40.6492 57.3564 42.078 58.7852 42.078 60.5712C42.078 62.3572 40.6492 63.786 38.8632 63.786C37.0772 63.786 35.6484 62.3572 35.6484 60.5712C35.6484 58.7852 37.0772 57.3564 38.8632 57.3564Z" fill="#D4EEF1"/>
<path class="eye" d="M38.1729 58.9961H38.1729C36.9013 58.9961 35.9766 60.1307 35.9766 61.3914C35.9766 62.6521 36.9013 63.7868 38.1729 63.7868C39.3289 63.7868 40.3692 62.7782 40.3692 61.3914C40.3692 61.1393 40.3692 60.7611 40.2536 60.5089C40.138 60.7611 39.7912 61.0132 39.4445 61.0132C38.9821 61.0132 38.5197 60.5089 38.5197 60.0047C38.5197 59.6264 38.7509 59.2482 38.9821 59.1222C38.7509 58.9961 38.4041 58.9961 38.1729 58.9961Z" fill="#3A4D54"/>
<path d="M47.297 80.2112C39.6182 76.8383 35.4922 72.306 33.0854 67.3521C30.2202 68.0899 26.7819 68.6169 22.8852 68.8277C21.3953 68.9331 19.7908 68.9331 18.1862 68.9331C16.2379 68.9331 14.2895 68.9331 12.2266 68.8277C19.1031 75.1519 27.8134 80.1058 43.7441 80.2112H47.297Z" fill="#D4EEF1"/>
<path d="M35.6482 71.9685C34.633 70.5548 33.6178 68.9237 32.8282 67.2925C30.0082 68.0537 26.6242 68.5974 22.7891 68.8149C25.3835 70.1199 29.2186 71.4248 35.6482 71.9685Z" fill="#D4EEF1"/>
</svg>