<svg width="218" height="142" viewBox="0 0 218 142" fill="none" xmlns="http://www.w3.org/2000/svg">
<path fill-rule="evenodd" clip-rule="evenodd" d="M113.101 44.8107H135.424V67.7139H146.685C151.821 67.7139 157.155 66.7181 162.093 65.1248C164.464 64.3282 167.23 63.1332 169.6 61.7391C166.44 57.5568 164.859 52.3787 164.464 47.2006C163.871 40.23 165.254 31.0687 169.995 25.6914L172.366 22.9032L175.132 25.094C182.244 30.8696 187.972 38.6367 189.158 47.798C197.652 45.209 207.53 45.8065 215.037 50.1879L218 51.9804L216.42 55.1669C210.098 67.5147 196.862 71.4979 184.021 70.7013C164.662 119.097 122.781 142 71.8133 142C45.5392 142 21.4381 132.042 7.60961 108.541L7.41206 108.143L5.43656 103.961C0.695372 93.6045 -0.687472 82.2525 0.300276 70.9004L0.695373 67.5147H19.6601V44.8107H41.9833V22.5049H86.4319V0H113.101V44.8107V44.8107Z" fill="#3A4D54"/>
<path d="M188.295 52.2166C189.889 40.5018 181.119 31.3682 175.538 27C169.359 34.148 168.363 53.2094 178.129 61.1516C172.548 65.917 161.187 70.4838 149.228 70.4838H5.31993C4.12402 82.7942 6.31653 94.1119 11.2995 103.841L12.894 106.819C13.8906 108.606 15.0866 110.195 16.2825 111.982C22.262 112.379 27.6436 112.578 32.6266 112.379C42.3932 112.181 50.366 110.989 56.5449 109.004C57.5415 108.606 58.3388 109.202 58.7374 109.996C59.136 110.989 58.5381 111.783 57.7408 112.181C56.9435 112.379 56.1462 112.776 55.1497 112.975C50.366 114.365 45.1837 115.159 38.6062 115.556H37.4103C34.8191 115.755 32.0287 115.755 29.0389 115.755C25.8498 115.755 22.86 115.755 19.2723 115.556C31.2314 129.058 49.9674 137 73.487 137C123.317 137 165.572 114.96 184.109 65.7184C197.463 67.1083 210.22 63.7328 216 52.4152C207.031 47.0541 195.072 48.8411 188.295 52.2166V52.2166Z" fill="#00AADA"/>
<path d="M187.013 52.5926C188.592 40.7031 179.904 31.4334 174.375 27C168.254 34.2546 167.266 53.6002 176.942 61.6608C171.413 66.4972 160.158 71.1321 148.31 71.1321H14.0352C13.4428 90.2762 20.354 104.785 32.7942 113.451C42.4699 113.249 50.3684 112.04 56.4897 110.025C57.477 109.622 58.2669 110.226 58.6618 111.032C59.0567 112.04 58.4644 112.846 57.6745 113.249C56.8846 113.451 56.0948 113.854 55.1075 114.055C50.3684 115.466 44.8394 116.473 38.3231 116.876L38.1257 116.675C54.91 125.542 79.198 125.34 107.238 114.458C138.437 102.166 167.661 78.7897 188 52.1896C187.605 52.3911 187.21 52.3911 187.013 52.5926V52.5926Z" fill="#28B8EB"/>
<path d="M5 87C5.79906 93.3218 7.79671 99.2605 10.7932 104.816L12.3913 107.69C13.3901 109.414 14.5887 110.946 15.7873 112.67C21.7803 113.054 27.1739 113.245 32.168 113.054C41.9565 112.862 49.9471 111.713 56.1398 109.797C57.1387 109.414 57.9377 109.988 58.3372 110.755C58.7368 111.713 58.1375 112.479 57.3384 112.862C56.5394 113.054 55.7403 113.437 54.7415 113.628C49.9471 114.969 44.3537 115.927 37.7615 116.31H36.9624C34.3655 116.502 31.5687 116.502 28.772 116.502C25.5758 116.502 22.3796 116.502 18.9835 116.31C30.9694 129.337 49.9471 137 73.5194 137C116.269 137 153.425 121.483 175 87.1916H5V87Z" fill="#028BB8"/>
<path d="M14 87C16.6147 98.3857 22.6487 107.416 31.6997 113.501C41.5552 113.305 49.6006 112.127 55.8357 110.164C56.8414 109.771 57.6459 110.36 58.0482 111.146C58.4504 112.127 57.847 112.912 57.0425 113.305C56.238 113.501 55.4334 113.894 54.4278 114.09C49.6006 115.464 43.9688 116.446 37.1303 116.838C54.2266 125.476 78.966 125.28 107.326 114.679C124.422 108.201 141.116 98.582 156 87H14V87Z" fill="#019BC6"/>
<path fill-rule="evenodd" clip-rule="evenodd" d="M25 48.8667H44.1333V68H25V48.8667V48.8667ZM26.5619 50.4286H28.1238V66.2429H26.5619V50.4286ZM29.2952 50.4286H30.8571V66.2429H29.2952V50.4286ZM32.2238 50.4286H33.7857V66.2429H32.2238V50.4286ZM35.1524 50.4286H36.7143V66.2429H35.1524V50.4286ZM38.0809 50.4286H39.6429V66.2429H38.0809V50.4286ZM41.0095 50.4286H42.5714V66.2429H41.0095V50.4286ZM46.8667 27H66V46.1333H46.8667V27ZM48.6238 28.5619H50.1857V44.3762H48.6238V28.5619ZM51.3571 28.5619H52.919V44.3762H51.3571V28.5619ZM54.2857 28.5619H55.8476V44.3762H54.2857V28.5619ZM57.2143 28.5619H58.7762V44.3762H57.2143V28.5619ZM59.9476 28.5619H61.5095V44.3762H59.9476V28.5619ZM62.8762 28.5619H64.4381V44.3762H62.8762V28.5619Z" fill="#00ACD3"/>
<path fill-rule="evenodd" clip-rule="evenodd" d="M46 49H66V68H46V49V49ZM47.8367 50.551H49.4694V66.2551H47.8367V50.551ZM50.6939 50.551H52.3265V66.2551H50.6939V50.551ZM53.7551 50.551H55.3878V66.2551H53.7551V50.551ZM56.8163 50.551H58.449V66.2551H56.8163V50.551ZM59.6735 50.551H61.3061V66.2551H59.6735V50.551ZM62.7347 50.551H64.3673V66.2551H62.7347V50.551Z" fill="#23C2EE"/>
<path fill-rule="evenodd" clip-rule="evenodd" d="M68 49H87V68H68V49V49ZM69.551 50.551H71.102V66.2551H69.551V50.551ZM72.4592 50.551H74.0102V66.2551H72.4592V50.551ZM75.3673 50.551H76.9184V66.2551H75.3673V50.551ZM78.0816 50.551H79.6327V66.2551H78.0816V50.551ZM80.9898 50.551H82.5408V66.2551H80.9898V50.551ZM83.898 50.551H85.449V66.2551H83.898V50.551Z" fill="#00ACD3"/>
<path fill-rule="evenodd" clip-rule="evenodd" d="M68 27H88.436V46.1333H68V27V27ZM69.6682 28.5619H71.3365V44.3762H69.6682V28.5619ZM72.7962 28.5619H74.4645V44.3762H72.7962V28.5619ZM75.9242 28.5619H77.5924V44.3762H75.9242V28.5619ZM78.8436 28.5619H80.5118V44.3762H78.8436V28.5619ZM81.9716 28.5619H83.6398V44.3762H81.9716V28.5619ZM85.0995 28.5619H86.7678V44.3762H85.0995V28.5619ZM91.564 48.8667H112V68H91.564V48.8667V48.8667ZM93.2322 50.4286H94.9005V66.2429H93.2322V50.4286V50.4286ZM96.3602 50.4286H98.0284V66.2429H96.3602V50.4286ZM99.2796 50.4286H100.948V66.2429H99.2796V50.4286ZM102.408 50.4286H104.076V66.2429H102.408V50.4286ZM105.536 50.4286H107.204V66.2429H105.536V50.4286ZM108.664 50.4286H110.332V66.2429H108.664V50.4286Z" fill="#23C2EE"/>
<path fill-rule="evenodd" clip-rule="evenodd" d="M93 27H112V46H93V27ZM94.551 28.551H96.102V44.2551H94.551V28.551ZM97.4592 28.551H99.0102V44.2551H97.4592V28.551ZM100.173 28.551H101.724V44.2551H100.173V28.551ZM103.082 28.551H104.633V44.2551H103.082V28.551ZM105.99 28.551H107.541V44.2551H105.99V28.551ZM108.898 28.551H110.449V44.2551H108.898V28.551Z" fill="#00ACD3"/>
<path fill-rule="evenodd" clip-rule="evenodd" d="M93 3H112V22H93V3ZM94.551 4.55102H96.102V20.2551H94.551V4.55102ZM97.4592 4.55102H99.0102V20.2551H97.4592V4.55102ZM100.173 4.55102H101.724V20.2551H100.173V4.55102ZM103.082 4.55102H104.633V20.2551H103.082V4.55102ZM105.99 4.55102H107.541V20.2551H105.99V4.55102ZM108.898 4.55102H110.449V20.2551H108.898V4.55102Z" fill="#23C2EE"/>
<path fill-rule="evenodd" clip-rule="evenodd" d="M115 49H134V68H115V49ZM116.551 50.551H118.102V66.2551H116.551V50.551ZM119.265 50.551H120.816V66.2551H119.265V50.551ZM122.173 50.551H123.724V66.2551H122.173V50.551ZM125.082 50.551H126.633V66.2551H125.082V50.551ZM127.99 50.551H129.541V66.2551H127.99V50.551ZM130.898 50.551H132.449V66.2551H130.898V50.551Z" fill="#00ACD3"/>
<path fill-rule="evenodd" clip-rule="evenodd" d="M65.5 98C68.5556 98 71 100.444 71 103.5C71 106.556 68.5556 109 65.5 109C62.4444 109 60 106.556 60 103.5C60 100.444 62.4444 98 65.5 98Z" fill="#D4EEF1"/>
<path d="M64.3357 100.804H64.3357C62.1603 100.804 60.5781 102.745 60.5781 104.902C60.5781 107.059 62.1603 109 64.3357 109C66.3134 109 68.0933 107.274 68.0933 104.902C68.0933 104.47 68.0933 103.823 67.8955 103.392C67.6977 103.823 67.1044 104.255 66.5111 104.255C65.7201 104.255 64.929 103.392 64.929 102.529C64.929 101.882 65.3245 101.235 65.7201 101.019C65.3245 100.804 64.7313 100.804 64.3357 100.804Z" fill="#3A4D54"/>
<path d="M79 137C65.8627 131.23 58.8039 123.475 54.6863 115C49.7843 116.262 43.902 117.164 37.2353 117.525C34.6863 117.705 31.9412 117.705 29.1961 117.705C25.8627 117.705 22.5294 117.705 19 117.525C30.7647 128.344 45.6667 136.82 72.9216 137H79Z" fill="#BFDBE0"/>
<path d="M60 123C58.2632 120.581 56.5263 117.791 55.1754 115C50.3509 116.302 44.5614 117.233 38 117.605C42.4386 119.837 49 122.07 60 123V123Z" fill="#D4EEF1"/>
</svg>
