<svg width="597" height="499" viewBox="0 0 597 499" fill="none" xmlns="http://www.w3.org/2000/svg">
<path d="M399.094 289.747C399.309 289.056 399.112 288.449 398.548 288.069C398.245 287.861 397.639 287.682 397.419 287.84C396.801 288.28 396.974 288.905 397.48 289.354C397.922 289.752 398.436 290.145 399.094 289.747ZM482.11 252.776C482.812 252.771 483.494 252.884 484.106 252.74C484.866 252.557 485.233 251.881 484.481 251.414C484.026 251.133 483.178 251.348 482.57 251.54C482.341 251.61 482.295 252.247 482.11 252.776ZM383.035 302.338C383.922 302.588 384.851 302.853 385.477 301.929C385.6 301.747 385.156 300.865 385.009 300.872C384.145 300.934 383.288 301.158 382.425 301.328C382.627 301.665 382.83 301.999 383.035 302.338ZM344.542 387.896C345.804 387.943 346.439 386.923 347.239 386.239C347.911 385.673 348.679 384.933 347.567 384.195C346.99 383.806 346.265 384.217 345.896 384.897C345.395 385.837 344.079 386.376 344.542 387.896ZM506.746 232.054C508.787 232.179 510.337 232.461 512.646 230.161C510.158 230.93 508.475 229.489 506.746 232.054ZM535.2 227.218C532.855 227.563 531.167 226.635 529.411 228.407C531.352 228.243 533.07 229.414 535.2 227.218ZM323.25 323.948C323.813 322.909 323.826 322.001 323.091 321.369C322.583 320.933 321.738 321.048 321.359 321.64C320.749 322.586 320.656 323.712 321.657 324.418C321.96 324.635 322.799 324.092 323.25 323.948ZM456.34 337.616C458.874 336.026 460.631 335.304 461.53 332.048C458.953 333.433 456.87 333.579 456.34 337.616ZM284.71 329.937C287.237 331.668 289.327 330.433 291.314 330.715C292.067 330.823 292.523 330.161 292.488 329.408C292.449 328.631 291.911 328.007 291.161 328.325C289.244 329.133 286.991 328.33 284.71 329.937ZM552.331 225.708C550.099 223.305 548.377 225.442 546.657 226.594C546.156 226.936 546.353 228.03 546.963 228.392C548.658 229.398 549.774 227.519 551.277 227.342C551.91 227.265 552.372 226.634 552.331 225.708ZM395.181 292.912C389.48 290.624 387.31 291.034 383.987 295.083C388.048 295.521 391.537 294.893 395.181 292.912ZM304.823 323.835C305.162 329.372 309.733 326.895 312.051 328.367C313.722 329.429 314.743 329.719 315.688 327.506C316.337 325.993 316.513 325.082 314.934 324.147C313.409 323.248 310.852 321.288 310.386 323.211C308.986 328.987 306.987 323.836 304.823 323.835ZM476.496 268.561C480.587 266.834 484.613 266.736 486.908 263.208C484.896 263.064 484.063 261.556 483.095 260.058C482.485 259.121 481.38 258.427 480.122 258.82C478.859 259.219 478.047 260.85 478.479 261.473C480.528 264.424 476.955 265.644 476.496 268.561ZM417.505 299.667C417.547 298.135 417.443 296.496 418.548 295.108C418.629 295.007 418.153 294.189 417.828 294.098C417.231 293.937 416.004 294.012 415.992 294.097C415.491 298.482 411.86 297.218 409.287 297.966C407.745 298.411 406.134 299.088 404.941 300.117C403.547 301.32 404.589 302.865 405.671 303.559C407.247 304.57 416.612 301.325 417.505 299.667ZM427.741 294.825C426.958 296.27 425.624 295.063 424.607 295.484C423.715 295.858 422.861 296.101 423.083 297.303C423.329 298.647 424.304 298.418 425.218 298.199C427.235 297.72 429.751 296.193 431.163 296.898C435.679 299.165 438.03 295.756 441.546 294.586C439.906 292.626 438.465 293.742 437.287 293.9C434.366 294.294 436.759 291.504 435.038 290.713C430.999 288.864 428.322 291.459 425.162 292.457C425.441 294.207 427.26 293.673 427.741 294.825ZM415.629 286.479C416.089 286.472 416.616 286.316 416.994 286.484C421.919 288.664 421.88 288.651 425.134 283.949C425.616 283.257 426.517 282.487 427.293 282.41C431.285 281.989 434.676 280.07 438.226 278.468C439.658 277.821 441.446 277.293 442.869 278.386C446.864 281.452 450.009 279.768 453.034 276.85C454.889 278.534 456.526 277.476 457.835 276.183C459.037 274.993 458.54 273.702 457.195 272.769C458.005 273.2 458.796 273.689 459.633 274.057C461.507 274.886 463.519 274.887 464.626 273.113C465.646 271.483 466.794 269.208 466.387 267.591C465.8 265.259 463.163 267.098 461.666 266.644C458.154 265.573 456.064 266.162 455.01 269.855C454.674 271.019 453.56 270.874 452.906 270.012C452.04 268.872 451.141 269.09 449.905 269.293C443.818 270.305 438.358 274.451 431.733 272.886C430.589 272.618 429.985 273.903 429.143 274.628C425.815 277.505 424.262 282.747 418.379 282.449C416.388 282.349 415.752 284.75 415.709 286.714C412.398 282.56 407.612 284.111 403.382 283.598C402.477 283.49 401.536 284.194 401.528 285.277C401.52 285.889 401.818 286.697 402.267 287.099C407.311 291.595 410.249 291.435 415.629 286.479ZM362.631 310.178C366.452 311.298 369.623 309.298 368.177 308.278C362.548 304.31 371.135 305.897 369.562 303.718C367.047 303.615 364.674 303.921 363.398 306.689C361.496 304.919 359.79 304.914 358.19 307.136C357.019 308.766 356.059 309.639 353.833 307.825C351.359 305.816 347.103 307.222 346.501 309.117C344.897 314.154 341.626 314.228 337.579 314.235C335.607 314.238 333.859 315.559 334.395 317.876C334.83 319.771 336.904 319.089 337.877 318.744C341.157 317.585 345.208 318.911 347.799 315.18C349.006 313.441 352.27 313.912 356.51 314.799C360.103 315.547 361.086 312.385 362.631 310.178ZM486.186 259.098C487.401 259.579 488.855 259.317 489.859 260.537C490.513 261.334 491.73 261.277 492.22 260.468C493.378 258.558 494.839 256.473 493.382 254.172C491.801 251.671 489.531 252.644 487.398 253.443C484.36 254.581 487.627 257.209 486.145 258.715C485.811 258.122 485.559 257.456 485.123 256.951C484.557 256.298 483.79 255.473 482.951 256.439C482.61 256.831 482.559 257.86 482.838 258.335C483.611 259.651 484.771 260.146 486.186 259.098ZM232.82 363.688C226.855 361.745 226.855 361.745 226.013 367.918C228.562 366.414 231.618 366.576 232.706 363.383C233.578 364.361 234.289 364.08 234.74 363.019C234.838 362.777 234.481 362.041 234.29 362.027C233.149 361.93 232.633 362.53 232.82 363.688ZM422.884 342.677C422.879 343.125 422.938 343.947 422.859 343.965C417.659 344.891 412.956 349.433 406.247 345.223C408.045 350.889 405.837 353.597 401.536 355.001C400.884 355.213 399.897 355.551 399.768 356.029C398.083 362.074 393.913 364.496 387.93 364.426C387.539 370.997 378.549 367.556 377.402 373.497C377.074 375.191 374.882 375.159 373.33 375.686C369.511 376.981 364.84 377.176 363.517 382.251C357.376 382.582 355.383 389.6 349.76 390.797C348.882 390.986 347.612 391.256 347.295 391.884C345.229 395.95 341.651 395.072 338.279 394.843C335.544 394.659 332.26 395.659 330.341 393.239C328.42 390.808 327.286 387.74 325.904 384.903C325.624 384.327 325.461 383.261 325.783 382.894C329.094 379.138 326.508 373.726 329.604 369.864C332.367 366.426 333.491 361.936 336.822 358.32C334.4 356.867 332.245 357.8 330.17 358.347C319.378 361.201 308.65 364.318 297.806 366.958C283.366 370.474 269.845 376.651 255.704 380.998C251.76 382.207 248.249 384.913 243.694 383.95C242.075 383.605 240.734 385.106 239.279 385.808C235.676 387.55 231.844 388.676 227.89 388.912C225.586 389.05 222.681 389.68 221.822 385.961C221.075 382.716 216.261 385.025 215.196 381.159C217.88 380.664 220.11 378.812 223.287 379.969C224.705 380.488 226.43 379.43 227.836 378.566C228.522 378.143 228.721 377.488 228.493 376.758C228.212 375.85 227.788 375.044 226.586 375.284L219.703 372.793C215.276 379.115 210.47 374.222 206.483 372.555C203.675 371.381 200.611 368.322 201.962 363.876C202.532 362.004 203.174 359.958 200.401 358.836C199.96 358.659 199.847 356.508 200.259 355.572C202.047 351.534 203.036 347.501 206.682 343.928C216.959 333.856 229.646 327.961 241.842 321.128C250.326 316.38 259.229 312.389 267.984 308.239C281.939 301.621 295.247 293.621 309.738 288.15C328.622 281.011 346.145 270.886 364.813 263.269C384.218 255.354 403.949 248.4 423.775 241.608C432.671 238.562 441.705 235.747 450.446 232.068C457.667 229.035 465.688 227.657 473.614 227.813C480.183 227.944 486.431 226.27 492.814 225.494C503.873 224.157 514.98 223.215 526.049 222.929C532.401 222.766 538.753 221.294 544.95 221.934C552.128 222.685 558.922 220.184 565.978 220.772C568.092 220.947 569.808 221.643 570.398 223.476C570.754 224.584 570.022 226.146 569.516 227.397C569.019 228.624 567.459 228.999 566.538 228.854C559.655 227.768 553.883 232.231 547.207 232.461C542.182 232.631 537.209 234.074 532.195 234.831C529.884 235.182 527.435 235.163 525.973 237.353C524.801 239.112 522.798 239.95 521.637 241.817C520.991 242.848 517.619 239.764 517.689 243.742C517.698 244.309 516.4 244.347 515.995 243.781C514.577 241.811 513.078 242.134 511.198 243.116C508.725 244.409 508.998 240.427 506.775 240.728C505.818 242.45 505.036 244.315 505.502 246.458C503.677 244.834 501.877 243.964 499.713 246.316C501.953 247.573 503.637 245.501 505.437 246.324C507.907 246.879 507.177 247.872 505.739 248.847C502.965 250.717 500.183 252.546 501.126 256.686C503.409 256.513 505.778 256.844 508.939 258.14C505.321 259.693 502.347 261.08 500.563 264.194C499.533 265.993 497.19 267.109 495.06 266.188C492.737 265.178 491.31 266.095 489.592 267.341C485.521 270.309 479.326 269.849 476.724 275.296C476.479 275.817 475.432 276.465 475.027 276.314C468.962 274.097 464.416 279.531 458.806 279.446C458.307 279.863 457.854 280.37 457.293 280.663C456.502 281.067 455.545 281.274 455.423 282.323C455.394 282.596 455.842 283.168 456.108 283.193C457.389 283.32 458.208 282.596 458.557 281.425C458.744 280.797 458.722 280.102 458.794 279.435C460.222 282.64 457.205 286.23 460.177 289.433C461.827 289.686 463.283 287.211 465.373 287.755C467.897 289.557 463.858 291.959 465.963 293.432C468.782 295.401 472.18 298.734 474.83 298.316C480.682 297.399 479.237 303.587 482.544 304.575C483.216 311.538 485.889 318.608 481.634 325.324C478.966 329.53 474.978 332.315 470.648 334.503C462.593 338.573 454.562 342.769 446.244 346.241C440.631 348.586 435.53 351.631 430.407 354.77C428.803 355.746 426.861 356.222 425.236 354.626C424.8 354.194 424.473 353.388 424.512 352.785C424.682 350.369 428.879 345.692 431.149 346.21C435.746 347.253 439.717 344.475 443.857 345.12C445.566 343.229 443.564 342.428 443.244 341.244C443.047 340.518 443.037 339.849 443.628 339.407C444.27 338.926 445.03 339.029 445.267 339.87C446.371 343.796 449.021 340.219 449.008 340.138C448.078 335.728 453.144 335.95 454.587 333.146C449.715 331.074 445.83 335.752 441.38 334.449C438.634 340.194 430.6 337.536 427.904 342.532C425.738 346.539 424.46 343.352 422.767 342.808C422.57 341.275 425.759 339.7 422.818 338.094C421.617 339.767 423.733 341.159 422.884 342.677Z" fill="#D67AB1"/>
<path d="M381.683 375.028C385.433 371.134 390.01 368.334 394.588 365.589C396.878 364.213 399.166 361.408 402.301 364.751C403.244 365.757 404.843 364.727 405.874 363.554C408.091 361.022 411.748 360.831 414.19 358.562C415.706 357.148 417.234 358.339 419.233 359.175C417.384 361.46 413.286 361.843 413.71 365.91C413.782 366.591 410.725 368.192 409.008 368.366C401.006 369.171 395.85 375.007 389.505 378.78C380.134 384.347 371.311 390.608 362.904 397.538C360.346 399.648 356.942 399.561 353.69 398.964C353.163 395.515 355.601 394.123 357.571 392.705C358.884 391.763 359.156 395.774 361.318 393.952C362.898 392.626 359.637 391.273 361.672 389.781C363.304 388.582 365.111 386.306 366.701 386.837C371.692 388.512 373.917 383.663 377.754 382.83C378.418 382.684 379.175 381.477 379.313 380.664C380.085 376.104 380.024 376.092 381.886 374.948C383.17 377.254 383.17 377.254 385.655 374.816C384.282 374.89 382.983 374.955 381.683 375.028Z" fill="#D67AB1"/>
<path d="M466.907 283.512C467.734 283.722 468.461 284.257 468.09 284.932C467.5 286.009 466.328 286.507 465.164 285.853C464.683 285.585 464.201 284.657 464.305 284.142C464.693 282.169 466.061 283.645 466.907 283.512Z" fill="#D67AB1"/>
<path d="M455.592 272.612C455.323 274.418 454.105 275.69 453.08 277.074C451.613 275.89 450.094 274.733 453.263 273.758C454.078 273.511 454.815 273.001 455.592 272.612Z" fill="#D67AB1"/>
<g opacity="0.2">
<path d="M113.096 315.479C113.303 314.408 112.845 313.611 111.932 313.873C111.37 314.026 110.982 315.009 110.681 315.692C110.599 315.894 111.069 316.348 111.293 316.686C111.894 316.282 112.489 315.883 113.096 315.479ZM179.026 243.523C179.807 243.135 181.124 242.895 181.277 242.338C181.801 240.437 180.157 240.267 178.939 240.388C178.322 240.453 177.792 241.426 177.229 241.983C177.824 242.496 178.425 243.01 179.026 243.523ZM161.108 278.299C162.627 277.611 162.682 276.284 162.397 274.978C162.146 273.82 161.245 273.585 160.458 274.486C159.923 275.109 159.426 276.06 159.491 276.808C159.541 277.349 160.54 277.813 161.108 278.299ZM109.867 305.318C110.211 303.324 109.392 302.308 107.868 302.265C107.12 302.243 106.049 302.844 105.65 303.494C104.792 304.87 105.41 306.132 106.896 306.602C108.316 307.05 109.463 306.438 109.867 305.318ZM545.962 69.1892C549.797 62.5683 543.329 58.5422 543.755 51.7192C536.97 59.8806 538.101 65.021 545.962 69.1892ZM211.066 236.094C217.08 229.118 225.853 225.562 232.245 219.132C236.539 214.816 243.203 212.533 244.083 205.027C244.438 202.066 247.901 201.318 250.567 200.908C259.668 199.499 265.289 192.309 272.593 187.928C275.45 186.218 277.362 183.624 277.28 180.144C277.209 176.686 278.76 177.533 281.35 177.478C292.647 177.227 307.03 165.941 310.188 154.933C311.259 151.197 311.319 148.443 315.836 152.071C320.136 155.518 324.522 153.349 328.292 150.94C340.37 143.248 350.274 132.213 364.433 127.674C366.679 126.953 367.87 124.664 367.733 122.206C367.536 118.573 369.104 117.136 372.617 117.797C375.801 118.387 377.626 117.628 378.123 113.935C379.156 106.276 380.559 98.8958 391.556 103.632C394.216 104.779 395.282 101.84 395.752 99.5731C397.035 93.3783 400.149 89.762 407.081 90.8709C408.338 91.0731 410.545 91.0075 410.916 90.3137C418.182 76.848 436.154 79.2352 444.578 67.3864C447.686 63.0162 452.909 62.2896 458.12 62.3988C469.423 62.6392 479.338 58.1597 488.996 52.9919C495.038 49.7579 501.08 46.7097 508.22 47.245C510.951 47.4472 514.742 47.7203 514.447 44.2405C514.027 39.1929 509.192 43.29 506.63 41.6894C506.674 38.1113 510.257 36.9969 511.89 34.5114C519.211 23.4274 521.576 22.6516 531.835 30.3541C536.473 33.8285 540.002 32.8343 544.247 31.1135L544.094 30.8021C544.356 36.7675 544.045 42.8366 552.73 43.3337C558.193 43.6396 558.269 47.1194 555.62 50.9379C553.774 53.6092 551.752 56.3626 552.441 59.6621C553.266 63.6226 554.653 62.8304 555.691 59.5637C556.243 57.8483 558.215 57.4059 558.854 58.3947C561.815 62.9343 569.731 60.7273 570.818 65.7366C572.08 71.5873 563.498 69.7026 561.438 74.9851C566.764 75.8264 571.905 77.5581 567.944 84.8017C566.66 87.1562 566.568 90.423 564.841 92.2312C555.025 102.485 548.917 114.607 545.536 128.242C533.01 135.573 533.971 152.535 522.117 160.702C517.506 163.87 514.688 169.666 512.852 175.703C526.236 182.482 526.039 196.505 529.645 208.157C532.147 216.226 535.779 225.622 526.662 232.914C525.815 233.592 525.384 235.58 525.662 236.749C529.098 251.073 519.817 257.912 509.553 263.965C507.138 265.391 505.838 266.379 507.711 268.914C509.165 270.886 510.263 272.935 507.635 274.585C505.204 276.125 504.975 272.957 503.554 272.318C503.046 272.083 501.757 272.585 501.413 273.131C493.41 285.592 493.213 285.314 478.584 296.042C475.323 298.43 473.137 302.538 469.592 305.296C447.511 322.482 425.606 339.876 403.755 357.351C391.491 367.146 379.401 377.154 367.329 387.178C344.718 405.943 319.436 417.835 289.468 417.977C281.945 418.016 274.592 418.387 273.625 407.844C273.309 404.364 270.506 402.698 266.589 403.272C255.505 404.872 244.389 404.381 234.026 411.187C224.794 417.256 212.945 418.103 201.992 419.829C195.89 420.796 188.81 421.408 188.515 410.914C188.411 407.123 184.926 402.682 181.255 399.715L181.528 400.005C181.932 398.819 182.348 396.787 180.649 397.295C176.841 398.426 173.11 400.109 169.647 402.086C161.289 406.866 152.898 406.571 145.9 400.529C139.055 394.619 134.171 387.413 136.302 376.914C139.082 363.164 126.146 346.142 112.724 344.263C105.415 343.246 99.0892 343.443 97.0516 352.5C96.6802 354.161 94.7517 355.74 92.8889 355.314C90.1302 354.669 91.6598 352.692 92.0914 351.025C93.0801 347.191 90.6164 347.841 88.2073 347.994C85.5414 348.157 83.5748 351.189 79.7399 349.414C79.0134 339.816 75.8286 329.863 83.837 320.8C87.2895 316.894 87.082 311.349 87.6883 306.302C91.1954 302.336 93.539 298.178 89.3272 293.349C88.5897 292.508 86.929 291.924 85.8201 292.093C84.4708 292.3 83.8917 293.945 84.2686 295.229C85.3939 299.063 86.7433 302.827 88.0107 306.624C82.1327 305.389 76.8393 308.356 76.0089 313.13C74.0806 324.285 63.7176 326.869 57.6484 333.927C60.205 327.109 57.6539 319.565 65.5421 313.578C71.2071 309.279 79.4668 303.275 77.4511 292.535C76.9758 290.006 80.838 286.302 83.2907 283.675C87.6009 279.059 91.4249 279.55 95.4128 284.68C102.017 293.164 108.512 292.961 112.107 283.484C113.866 278.846 116.357 280.353 119.405 280.179C127.818 279.692 129.446 277.802 127.873 270.406C126.944 266.057 124.049 261.862 127.851 257.59C132.461 252.389 137.498 247.08 144.25 245.528C150.035 244.201 154.476 242.31 157.213 236.995C158.005 235.46 158.519 233.767 160.928 233.745C174.274 233.608 182.43 223.469 192.607 217.132C196.442 218.132 195.07 221.312 195.376 223.803C195.693 226.359 197.163 228.774 199.697 227.648C209.208 223.436 208.618 231.877 211.18 236.318C209.7 235.302 208.345 233.728 206.794 233.504C203.56 233.029 202.281 235.509 201.757 238.246C201.631 238.94 202.052 240.229 202.576 240.486C205.28 241.786 206.258 239.35 207.788 237.924C208.673 237.093 209.957 236.695 211.066 236.094Z" fill="#D67AB1"/>
<path d="M544.277 31.1113C543.917 27.2382 544.824 24.037 548.506 21.9229C550.423 20.8249 553.526 19.3336 553.608 17.8695C554.23 7.51207 565.544 8.64829 569.838 2.25682C571.695 -0.512812 575.306 -0.485519 578.529 1.00582C582.795 2.97789 586.723 6.5943 591.814 1.86352C593.59 0.213756 596.032 2.38244 596.709 4.82431C598.239 10.3308 593.601 17.5198 588.138 20.4916C575.989 27.0851 562.436 25.5447 549.576 27.9319C547.336 28.3471 545.058 28.0575 544.086 30.7452C544.124 30.7999 544.277 31.1113 544.277 31.1113Z" fill="#D67AB1"/>
<path d="M181.247 399.715C183.022 404.489 184.306 409.1 178.477 412.241C176.341 413.399 173.85 416.409 172.315 412.541C171.507 410.493 170.567 405.177 174.872 405.614C179.996 406.123 178.406 400.578 181.575 400.064C181.52 400.004 181.247 399.715 181.247 399.715Z" fill="#D67AB1"/>
<path d="M175.796 221.382C174.409 223.616 172.404 225.364 169.694 225.763C168.154 225.992 167.405 224.485 167.799 223.108C168.613 220.289 170.623 218.65 173.611 218.689C175.026 218.71 175.998 219.612 175.796 221.382Z" fill="#D67AB1"/>
<path d="M61.0156 357.76C66.0305 357.328 68.434 358.945 70.5208 362.758C65.8993 363.239 63.6542 361.354 61.0156 357.76Z" fill="#D67AB1"/>
<path d="M14.3727 423.188C15.0774 423.587 16.2738 423.92 16.2956 424.319C16.4103 426.345 15.0338 427.318 13.2037 427.427C12.5646 427.465 11.3628 426.772 11.3027 426.302C11.0241 424.1 12.7885 423.669 14.3727 423.188Z" fill="#D67AB1"/>
<path d="M1.71194 410.247C0.291611 410.138 -0.418504 409.248 0.258882 408.597C1.11108 407.789 2.49306 407.357 3.7058 407.172C4.39411 407.062 5.21361 407.772 5.96747 408.122C5.01695 410.072 2.95199 409.592 1.71194 410.247Z" fill="#D67AB1"/>
<path d="M287.189 168.943C286.026 168.976 285.359 168.348 285.818 167.353C286.151 166.643 287.036 165.857 287.757 165.775C288.216 165.72 288.828 166.873 289.363 167.485C288.637 167.971 287.916 168.457 287.189 168.943Z" fill="#D67AB1"/>
<path d="M238.326 169.877C237.715 170.254 237.119 170.647 236.475 170.948C236.42 170.97 235.961 170.358 235.857 169.997C235.573 168.976 236.027 168.156 236.977 168.298C237.496 168.375 237.884 169.32 238.326 169.877Z" fill="#D67AB1"/>
<path d="M68.132 339.886C68.5417 339.886 69.1807 339.7 69.3774 339.919C70.1422 340.787 69.8528 341.53 68.6455 341.749C68.3396 341.804 67.7332 341.394 67.6457 341.088C67.5583 340.771 67.9354 340.329 68.132 339.886Z" fill="#D67AB1"/>
</g>
</svg>
