<svg width="48" height="48" viewBox="0 0 48 48" fill="none" xmlns="http://www.w3.org/2000/svg">
<path d="M24 44C22.9 44 21.9583 43.6083 21.175 42.825C20.3917 42.0417 20 41.1 20 40H28C28 41.1 27.6083 42.0417 26.825 42.825C26.0417 43.6083 25.1 44 24 44ZM16 38V34H32V38H16ZM16.5 32C14.2 30.6333 12.375 28.8 11.025 26.5C9.675 24.2 9 21.7 9 19C9 14.8333 10.4583 11.2917 13.375 8.375C16.2917 5.45833 19.8333 4 24 4C28.1667 4 31.7083 5.45833 34.625 8.375C37.5417 11.2917 39 14.8333 39 19C39 21.7 38.325 24.2 36.975 26.5C35.625 28.8 33.8 30.6333 31.5 32H16.5ZM17.7 28H30.3C31.8 26.9333 32.9583 25.6167 33.775 24.05C34.5917 22.4833 35 20.8 35 19C35 15.9333 33.9333 13.3333 31.8 11.2C29.6667 9.06667 27.0667 8 24 8C20.9333 8 18.3333 9.06667 16.2 11.2C14.0667 13.3333 13 15.9333 13 19C13 20.8 13.4083 22.4833 14.225 24.05C15.0417 25.6167 16.2 26.9333 17.7 28Z" fill="#FFBE3E"/>
</svg>
