<svg width="381" height="190" viewBox="0 0 381 190" fill="none" xmlns="http://www.w3.org/2000/svg">
<path fill-rule="evenodd" clip-rule="evenodd" d="M178.594 59.375C178.594 52.8166 173.263 47.5 166.688 47.5H95.2708C82.108 47.5 71.4375 36.9582 71.4375 23.75C71.4375 10.6332 82.0253 0 95.2708 0H333.354C346.517 0 357.188 10.5418 357.188 23.75C357.188 36.8668 346.6 47.5 333.354 47.5H309.562C302.987 47.5 297.656 52.8166 297.656 59.375C297.656 65.9334 302.987 71.25 309.562 71.25H357.297C370.388 71.25 381 81.7918 381 95C381 108.117 370.149 118.75 357.297 118.75H214.312C207.737 118.75 202.406 124.067 202.406 130.625C202.406 137.183 207.737 142.5 214.312 142.5H285.86C298.95 142.5 309.562 153.042 309.562 166.25C309.562 179.367 298.712 190 285.86 190H71.3279C58.2372 190 47.625 179.458 47.625 166.25C47.625 153.133 58.4755 142.5 71.4375 142.5C78.0131 142.5 83.3438 137.183 83.3438 130.625C83.3438 124.067 78.0131 118.75 71.4375 118.75H23.8333C10.6705 118.75 0 108.208 0 95C0 81.8832 10.5878 71.25 23.8333 71.25H166.688C173.263 71.25 178.594 65.9334 178.594 59.375Z" fill="black" fill-opacity="0.02"/>
</svg>
