<svg width="349" height="361" viewBox="0 0 349 361" fill="none" xmlns="http://www.w3.org/2000/svg">
<g opacity="0.1">
<path d="M285.796 164.48C284.939 162.608 283.782 161.471 281.658 162.674C281.455 162.79 281.407 163.658 281.611 163.927C282.766 165.431 284.238 165.177 285.796 164.48ZM118.272 275.621C118.978 274.574 118.812 273.631 117.839 272.983C116.984 272.413 115.947 271.982 115.011 272.795C114.106 273.584 114.141 274.647 114.879 275.488C115.909 276.66 117.134 276.216 118.272 275.621ZM137.656 269.842C138.042 268.966 137.922 268.221 137.153 267.79C135.504 266.863 133.723 266.133 132.369 268.135C131.903 268.824 132.602 269.696 133.414 269.831C134.823 270.062 136.304 271.591 137.656 269.842ZM127.146 269.194C127.212 267.572 128.467 264.935 128.006 264.983C125.361 265.254 124.44 261.163 121.835 262.601C119.61 263.829 117.565 264.231 115.135 263.399C113.874 262.966 112.432 263.184 112.042 264.853C111.789 265.937 112.347 266.838 113.162 267.609C114.044 268.441 124.367 271.026 125.38 270.507C126.049 270.164 126.606 269.605 127.146 269.194ZM248.701 112.634C251.506 111.277 255.719 114.913 258.434 110.154C253.478 109.061 248.915 110.585 245.372 107.452C242.184 110.906 237.184 109.176 232.334 111.513C238.572 115.156 244.979 114.279 250.03 117.629C250.667 115.178 248.517 114.319 248.701 112.634ZM179.309 264.819C182.899 269.864 186.717 266.928 191.041 265.513C189.149 263.166 187.304 262.379 185.286 263.806C183.343 265.183 181.325 264.894 179.217 264.908C177.345 267.616 175.487 264.975 173.623 264.891C174.707 264.13 175.768 263.346 176.313 260.997C171.558 261.116 167.049 258.107 162.637 262.753C161.411 264.039 158.464 264.437 156.79 263.211C151.829 259.58 148.863 262.749 145.289 265.381C147.343 268.213 149.455 268.587 151.962 267.641C158.64 265.12 165.552 264.361 172.636 264.927C171.167 265.057 170.229 265.71 170.457 267.33C170.631 268.572 171.556 268.931 172.662 268.885C175.618 268.753 178.006 267.666 179.309 264.819ZM71.993 224.056C70.0869 220.294 69.9855 220.544 64.7622 218.441C61.9464 217.308 61.6629 214.342 63.3074 212.069C64.2936 210.707 64.5523 209.198 65.3391 207.892C68.471 202.708 68.6811 202.52 63.5991 198.891C62.167 197.87 61.8567 197.213 62.3275 195.989C62.8141 194.715 63.8598 194.835 64.9383 195.444C65.5692 195.796 66.5403 196.407 66.9241 196.178C69.0291 194.925 67.2981 192.646 67.9909 190.708C68.9864 187.937 66.4639 190.101 65.2949 190.245C62.8908 190.536 62.4641 188.799 63.4464 187.315C64.7367 185.361 66.7354 183.892 68.2559 182.07C69.0144 181.161 69.9961 180.356 69.8054 178.751C69.0183 172.095 69.0947 171.85 75.5169 170.879C78.5698 170.415 79.1076 169.213 78.003 166.684C76.6375 163.556 77.3411 161.644 80.9907 161.174C82.0105 161.045 83.0297 160.524 83.9406 159.997C89.1573 156.998 89.8253 153.275 84.8469 149.803C77.9208 144.971 78.3174 137.689 77.1342 130.854C76.9989 130.08 77.9805 128.958 78.6819 128.221C80.8307 125.956 82.4661 123.179 85.5888 122.006C83.6057 119.399 81.9173 122.878 80.2615 121.501C83.4324 118.09 83.4254 118.063 89.6225 116.461C90.9019 116.131 92.5405 116.122 91.8269 114.202C91.2256 112.587 89.9682 112.815 88.6206 113.606C86.8513 114.637 85.1827 115.958 82.9278 116.182C81.4325 114.207 82.9549 112.911 84.2799 112.656C88.1461 111.898 90.3809 109.578 92.7195 106.556C95.7475 102.636 101.323 102.5 105.322 99.67C112.153 94.8421 120.251 94.4249 128.288 93.6953C134.286 93.15 140.382 92.3879 145.417 88.3695C146.593 87.4313 148.422 87.1804 147.724 85.0116C146.513 81.2449 150.751 82.4333 151.527 80.8757C152.845 78.2177 153.852 77.1867 156.882 78.8331C159.698 80.3623 156.869 76.3842 158.72 76.4678C160.041 76.5262 162.051 77.062 162.569 76.4225C166.052 72.1363 171.604 73.8815 175.791 71.5578C178.835 69.8708 182.62 70.4399 185.79 71.9375C187.857 72.9135 188.897 78.0273 191.959 73.0026C195.847 73.9186 198.21 81.4079 203.627 75.7035C208.274 76.2039 212.052 78.8754 215.616 81.3966C217.625 82.8159 218.26 83.0939 220.966 82.7059C225.651 82.0308 230.866 83.8663 234.027 88.3637C234.986 89.7258 235.661 91.0688 237.59 90.9085C247.769 90.0615 257.935 91.6038 268.066 91.2577C272.222 91.1117 276.328 91.1591 280.457 91.3158C283.156 91.4184 285.669 91.714 283.499 95.4249C282.765 96.678 283.395 97.8085 284.457 97.6959C289.474 97.1738 292.515 103.608 298.204 101.283C299.716 100.666 302.503 102.369 302.606 104.781C302.704 107.091 300.209 107.545 298.553 107.755C296.058 108.073 293.476 107.7 290.955 107.623C289.115 109.55 295.04 111.181 291.043 113.337C288.862 114.518 286.922 117.222 286.609 112.058C286.463 109.658 284.175 110.381 282.848 110.578C281.119 110.835 283.934 113.906 281.332 113.814C279.833 113.758 279.606 111.3 277.639 111.26C273.838 111.183 270.029 108.92 266.265 111.103C265.835 113.699 267.83 113.774 269.155 114.294C272.892 115.762 278.615 113.02 279.977 119.469C282.544 118.304 285.101 121.162 287.602 119.591C293.509 115.878 291.2 120.966 291.547 123.217L291.538 122.977C291.004 126.216 293.629 126.865 295.671 127.821C310.635 134.849 310.929 135.341 311.493 152.36C311.563 154.499 311.612 156.4 310.802 158.515C308.341 164.954 308.595 165.368 313.831 169.483C309.924 174.036 305.432 177.865 299.433 179.171C296.84 179.734 293.705 182.271 291.553 177.83C290.912 176.511 288.595 177.376 287.117 177.731C283.271 178.653 279.493 179.901 275.627 180.734C270.676 181.799 265.759 182.704 265.466 189.198C264.391 188.815 263.661 188.777 263.51 188.462C262.492 186.345 263.01 183.044 258.654 184.158C254.757 185.153 255.307 187.636 255.671 190.275C255.946 192.263 255.143 194.251 256.934 196.225C260.366 200.019 256.092 200.127 254.094 201.233L254.212 201.161C255.31 199.967 254.453 199.184 253.497 198.757C252.683 198.396 251.767 199.189 251.787 199.861C251.957 205.234 247.327 211.744 255.411 215.313C257.747 216.341 257.822 218.677 257.404 220.712C256.383 225.676 256.51 230.547 257.73 235.445C258.108 236.973 258.338 238.521 257.874 240.155C256.193 246.076 255.801 252.272 253.897 258.176C252.858 261.398 251.18 263.352 248.026 261.892C243.934 259.992 242.716 266.039 239.076 264.578C237.594 267.549 235.184 266.581 232.843 266.088C231.83 265.874 230.54 265.407 229.779 265.813C223.766 269.018 216.895 268.385 210.576 270.263C205.601 271.742 200.494 273.405 195.048 271.822C193.684 271.426 191.368 271.731 190.494 272.661C185.495 277.966 178.543 277.192 172.649 277.499C164.816 277.902 158.909 281.34 153.132 285.508C150.629 287.311 149.065 287.875 146.174 286.354C141.983 284.146 141.197 284.666 139.123 289.254C137.602 292.612 134.219 293.859 132.041 292.139C127.243 288.357 123.421 290.951 119.686 293.023C117.005 294.507 114.303 296.34 111.632 294.889C108.859 293.38 104.999 292.216 104.205 288.761C103.549 285.883 102.155 285.378 99.8391 285.497C99.0584 285.539 97.976 286.302 97.5726 286.004C89.6297 280.152 78.7664 280.678 71.2647 273.916C70.3 273.046 69.2184 272.411 68.9212 270.887C68.25 267.432 66.3071 264.166 65.4607 261.107C64.2931 256.888 63.6466 251.67 65.218 246.825C62.6259 245.888 63.0993 250.538 59.789 249.027C64.092 244.702 60.2728 237.994 64.985 233.51C66.8211 231.76 67.5131 229.043 70.6446 228.405C73.1093 227.902 72.3075 225.576 71.9706 223.784L71.993 224.056Z" fill="#D67AB1"/>
<path d="M291.544 123.218C293.787 120.386 295.914 121.989 298.998 123.364C295.722 125.779 293.516 126.201 291.535 122.978L291.544 123.218Z" fill="#D67AB1"/>
<path d="M254.088 201.232C258.13 201.206 259.311 203.842 259.682 207.237L259.82 207.139C256.559 206.443 255.106 204.09 254.255 201.151C254.205 201.16 254.088 201.232 254.088 201.232Z" fill="#D67AB1"/>
<path d="M259.684 207.239C258.463 208.406 258.891 210.736 256.364 211.468C256.006 208.648 259.01 208.705 259.792 207.153C259.822 207.142 259.684 207.239 259.684 207.239Z" fill="#D67AB1"/>
<path d="M71.9657 223.784C71.0719 225.096 70.1954 226.546 68.4036 224.934C67.8183 224.409 67.4495 223.596 68.2425 222.997C69.8815 221.762 71.0662 222.533 71.9899 224.054C71.9882 224.056 71.9657 223.784 71.9657 223.784Z" fill="#D67AB1"/>
</g>
<g opacity="0.5">
<path d="M203.164 250.886C203.538 251.079 204.016 251.362 204.023 251.324C204.094 250.983 204.247 250.635 204.039 250.193C203.868 249.828 203.155 249.588 203.069 249.761C202.943 250.014 203.117 250.498 203.164 250.886ZM288.667 193.38C288.844 193.128 288.597 192.743 288.148 192.391C288.02 192.288 287.683 192.318 287.612 192.428C287.493 192.61 287.32 192.879 288.009 193.29C288.229 193.423 288.451 193.356 288.667 193.38ZM152.601 296.242C152.484 296.002 152.371 295.513 152.141 295.344C151.617 294.957 151.023 294.795 151.016 295.229C151.013 295.424 151.416 295.944 151.729 296.225C152.161 296.612 152.461 296.569 152.601 296.242ZM242.654 266.895C242.7 266.609 242.321 266.262 241.872 266.051C241.659 265.95 241.348 265.98 241.336 266.11C241.301 266.455 241.748 266.808 242.178 267.077C242.524 267.293 242.687 267.24 242.654 266.895ZM269.33 264.858C269.819 264.841 270.207 264.751 270.122 264.208C269.577 264.17 269.311 264.372 269.33 264.858ZM259.747 249.42C259.579 249.437 259.274 249.372 259.271 249.49C259.26 249.725 259.529 249.967 259.83 250.04C259.944 250.069 260.092 250.089 260.119 250.031C260.205 249.848 260.058 249.628 259.747 249.42ZM288.123 187.991C288.136 187.608 288.224 187.218 287.521 186.646C287.075 186.285 286.732 186.259 286.595 186.504C286.444 186.779 286.14 187.023 286.772 187.642C287.414 188.271 287.814 188.176 288.123 187.991ZM238.942 269.397C239.342 268.933 239.663 268.652 239.876 268.283C239.999 268.072 239.64 267.737 239.465 267.872C239.122 268.134 238.349 268.072 238.942 269.397ZM284.929 188.542C284.913 188.367 285 187.945 284.846 187.813C284.247 187.298 283.835 187.366 283.555 187.54C283.311 187.689 283.482 188.034 283.921 188.404C284.382 188.791 284.678 188.79 284.929 188.542ZM261.35 267.356C260.759 266.895 260.318 266.75 260.31 267.046C260.304 267.28 260.582 267.798 260.874 268.066C261.145 268.313 261.847 268.605 261.927 268.505C262.142 268.245 261.74 267.719 261.35 267.356ZM250.17 276.386C250.459 276.12 250.521 275.774 249.867 275.16C249.43 274.75 249.024 274.621 249.065 275.016C249.106 275.417 249.137 275.934 249.476 276.352C249.886 276.856 249.992 276.424 250.17 276.386ZM281.807 241.24C281.976 240.923 281.934 240.448 281.293 239.953C280.651 239.461 280.203 239.617 280.053 239.895C279.973 240.041 280.293 240.6 280.584 240.923C281.254 241.661 281.566 241.476 281.807 241.24ZM292.235 194.471C292.436 194.131 291.933 193.62 291.43 193.199C291.091 192.915 290.347 192.513 290.333 192.558C290.203 192.975 290.589 193.571 291.216 194.144C291.595 194.49 291.997 194.662 292.235 194.471ZM279.192 186.854C279.755 187.768 280.034 188.157 280.211 188.52C280.678 189.478 281.524 190.134 281.667 189.634C281.891 188.848 281.058 188.1 279.192 186.854ZM301.334 190.427C301.603 190.217 301.867 190.127 301.965 189.911C302.136 189.534 302.232 188.902 301.377 188.358C300.007 187.485 300.508 188.563 300.525 189.124C300.536 189.439 300.503 189.687 301.334 190.427ZM259.159 270.727C257.523 268.669 257.523 268.669 255.732 269.075C256.814 269.214 258.031 270.383 259.159 270.727ZM244.166 282.08C247.48 282.527 247.399 280.25 248.513 279.128C247.178 280.035 245.843 280.941 244.166 282.08ZM290.955 210.455C293.843 209.681 296.3 208.855 297.878 206.738C293.444 204.997 293.542 208.09 290.948 208.016C290.663 208.008 290.436 208.217 290.453 208.479C290.483 208.961 290.713 209.557 290.955 210.455ZM281.724 227.622C283.336 226.998 285.431 227.879 286.072 226.583C288.201 222.272 290.912 218.44 295.135 215.921C295.446 215.736 295.168 215.161 294.736 214.401C291.626 215.402 288.753 216.564 286.158 218.04C283.566 219.511 279.601 219.665 278.819 222.987C282.675 225.066 282.675 225.066 281.724 227.622ZM170.288 268.666C169.904 266.973 169.524 265.287 172.395 266.475C170.353 267.266 173.492 269.296 174.542 270.897C175.244 270.012 173.608 268.195 173.625 267.104C174.425 267.843 174.708 267.762 174.487 267.122C174.1 266.008 173.193 264.802 171.614 263.102C174.184 264.565 175.524 265.851 176.205 267.731C177.693 266.84 175.407 264.815 174.791 263.405C175.466 263.825 176.162 264.005 176.814 264.687C178.063 263.443 178.066 263.439 175.762 261.567C175.211 261.12 174.553 260.705 174.594 260.188C174.624 259.826 174.563 259.331 175.164 259.478C175.756 259.621 176.259 260.171 176.752 260.683C177.332 261.286 177.458 262.019 178.465 262.568C180.049 261.849 176.095 259.183 176.693 258.077C178.417 259.228 179.242 261.092 181.003 262.203C181.48 261.93 181.055 261.238 180.765 260.621C180.588 260.238 180.457 259.916 180.802 259.832C182.033 259.536 182.885 258.825 182.747 258.257C182.663 257.922 182.682 257.559 182.426 257.231C181.844 256.488 179.446 255.531 180.834 255.126C181.757 254.856 182.68 256.703 183.572 257.624C183.803 257.864 183.959 258.14 184.272 258.567C185.144 257.284 182.904 255.134 181.272 252.542C183.658 254.391 184.33 256.127 186.395 257.391C185.229 255.162 187.43 254.789 185.451 252.152C186.149 252.907 186.937 253.913 187.742 254.065C188.703 254.247 188.025 253.206 187.717 252.499C187.614 252.265 187.409 251.821 187.421 251.823C190.586 252.663 187.627 250.16 187.024 249.133C186.395 248.063 185.04 248.097 185.196 248.378C186.203 250.191 184.053 249.3 184.018 250.161C181.952 247.796 182.637 246.012 180.396 243.543C179.915 243.011 180.328 242.357 180.695 242.014C182.167 240.63 183.653 239.258 185.1 237.851C185.859 237.113 186.787 236.518 187.055 235.358C187.421 233.772 189.692 234.032 190.473 232.71C191.866 230.358 194.195 228.742 196.335 227.006C200.982 223.235 205.069 218.951 210.023 215.455C211.742 214.241 213.893 213.327 214.439 210.947C214.654 210.014 217.041 210.733 216.914 209.202C220.501 209.645 220.177 206.164 222.936 205.777C222.552 203.625 226.146 205.394 226.269 203.849C226.441 201.626 229.9 202.242 229.559 199.614C229.53 199.383 229.956 199.299 230.292 199.372C232.792 199.914 233.476 198.493 234.58 197.593C236.745 195.832 239.063 194.243 241.731 192.971C243.421 192.166 244.59 190.823 246.111 189.837C248.141 188.523 250.257 187.294 252.41 186.101C252.745 185.916 253.088 185.597 254.131 186.156C253.174 188.049 250.944 188.726 249.527 190.14C246.868 192.796 243.954 195.285 240.779 197.407C236.16 200.494 232.132 204.123 227.918 207.565C224.613 210.265 221.56 213.26 218.417 216.109C214.753 219.431 211.323 223 207.334 226.05C203.772 228.776 201.235 232.462 198.045 235.546C196.567 236.976 195.547 238.808 193.567 239.816C192.083 240.571 192.36 242.864 190.484 243.453C189.525 243.755 190.379 245.906 191.582 247.712C190.744 246.854 189.967 245.953 188.735 245.344C188.733 246.778 187.997 247.822 189.876 250.349C190.267 249.21 190.265 247.889 191.506 247.605C193.45 246.981 195.214 246.235 196.315 244.711C196.959 243.82 196.389 242.788 195.543 241.268C198.552 242.778 200.007 242.268 200.376 240.614C200.602 239.601 201.699 239.434 202.442 239.005C203.03 238.667 202.94 237.821 203.687 237.601C204.296 237.421 204.012 236.295 203.881 235.414C203.66 233.906 205.21 236.847 205.443 235.995C205.624 235.334 205.866 234.642 206.473 234.38C207.166 234.08 207.023 232.849 207.498 232.86C210.578 232.925 210.175 229.88 212.08 228.906C214.037 227.905 215.913 226.727 217.017 224.972C218.225 223.053 221.123 222.62 221.235 219.731C221.276 218.691 223.213 219.236 224.049 218.648C226.461 216.949 227.879 214.375 230.484 212.821C232.303 211.736 234.519 210.654 234.725 208.074C234.814 206.945 236.429 207.883 236.953 207.349C238.624 205.64 240.385 203.996 242.458 202.668C243.439 202.039 242.365 199.767 244.941 200.295C246.387 200.592 246.654 198.77 247.509 197.954C250.205 195.382 253.416 193.292 256.119 190.716C258.47 188.474 261.452 186.755 263.772 184.476C266.764 181.536 270.358 179.161 274.632 177.578C277.343 176.574 279.839 175.203 283.333 175.046C284.22 175.007 284.701 174.587 285.401 174.382C286.748 173.987 287.253 173.197 284.853 170.674C287.37 172.874 289.314 174.345 289.277 171.924C292.312 172.374 294.074 171.282 296.044 170.433C298.879 173.179 296.803 173.439 297.041 174.78C298.052 175.718 298.144 174.984 298.755 175.229C299.556 175.549 300.298 176.084 300.561 176.757C300.781 177.323 300.205 177.164 299.554 176.885C298.333 176.36 297.907 176.917 297.725 177.48C296.795 180.352 296.832 180.374 292.845 182.184C292.071 182.535 293.048 183.926 293.076 184.762C292.325 183.642 291.521 182.127 290.326 182.659C289.781 182.901 287.361 182.348 290.181 184.827C289.47 185.094 288.314 183.764 287.419 183.637C287.552 184.195 287.691 184.759 287.818 185.319C287.841 185.431 287.785 185.507 287.827 185.622C288.228 186.727 289.135 186.998 289.906 187.232C290.415 187.385 290.962 185.951 290.935 184.958C292 185.288 293.938 186.663 292.989 184.571C294.429 186.147 295.431 185.713 295.761 185.482C296.384 185.047 296.732 184.674 298.215 185.971C298.52 186.239 299.186 186.809 298.831 186.05C297.462 183.136 299.963 183.869 301.597 183.73C305.472 183.401 306.271 183.9 309.185 188.675C309.413 189.047 309.909 189.625 309.839 189.764C308.963 191.517 308.78 193.854 306.417 194.362C305.601 194.537 304.502 193.483 303.584 193.144C303.256 193.022 302.902 193.153 302.84 193.369C302.719 193.81 303.326 194.023 303.66 194.124C306.186 194.894 305.674 195.611 305.234 196.339C303.571 199.086 299.88 199.989 298.223 202.745C298.037 203.055 297.649 202.998 296.929 202.468C296.297 202.004 295.791 201.922 295.98 202.573C296.09 202.95 296.488 203.379 296.933 203.622C299.08 204.788 300.802 206.638 302.678 208.238L302.594 208.089C303.049 209.429 303.141 210.497 302.482 211.21C301.614 212.148 300.345 212.757 300.101 214.228C299.994 214.862 299.216 214.681 298.413 214.48C297.906 214.352 297.123 214.329 297.569 214.828C300.103 217.659 297.03 216.739 297.194 217.873C297.413 219.401 296.363 220.023 295.698 220.587C294.066 221.971 293.991 224.595 292.082 225.686C290.715 226.467 290.569 228.287 289.116 229.014C288.674 229.235 288.515 229.696 287.66 229.459C286.727 229.2 286.321 229.327 287.123 230.505C287.828 231.542 287.723 232.219 286.885 232.266C285.906 232.318 286.413 232.747 287.27 233.685C289.102 235.693 290.821 237.819 288.158 237.769C288.481 239.679 287.371 240.577 287.041 242.023C286.912 242.583 286.672 243.04 286.039 243.042C283.685 243.054 282.436 244.2 280.967 245.148C280.179 245.656 279.539 243.338 278.458 243.52C279.718 245.703 280.434 247.486 277.272 246.576C276.217 246.273 276.733 248.475 274.332 246.527C274.045 246.292 273.933 246.432 273.971 246.686C274.188 248.182 274.128 249.205 272.206 249.192C271.18 249.185 271.168 251.107 270.06 251.579C269.164 251.96 270.367 253.53 270.087 253.971C269.728 254.54 268.457 254.58 268.487 255.417C268.571 257.635 267.212 258.669 266.278 260.166C267.815 259.414 270.575 260.535 272.38 260.268C273.088 260.164 273.793 260.096 274.969 261.279C276.002 262.319 276.114 263.072 276.171 263.815C276.253 264.833 275.358 265.041 274.791 265.5C270.654 268.834 266.449 272.105 262.259 275.39C260.971 276.401 259.448 277.209 258.428 278.446C257.4 279.689 254.866 279.395 254.459 281.29C254.072 283.092 251.122 282.544 250.378 284.219C249.683 285.788 247.931 286.56 246.565 287.61C245.989 288.054 245.418 288.463 244.341 288.456C242.886 288.445 243.294 290.224 242.335 290.817C239.417 292.63 237.235 295.14 234.552 297.184C232.222 298.961 230.313 301.207 228.207 303.23C226.005 305.345 224.657 308.245 221.425 309.412C220.891 309.604 221.025 310.076 221.308 310.714C221.47 311.087 221.851 311.778 221.745 311.778C220.021 311.75 220.531 313.964 219.515 314.073C217.996 314.238 218.169 315.039 218.735 316.397C219.407 317.997 218.075 318.24 218.205 319.559C218.302 320.529 217.143 320.839 218.315 322.546C218.92 323.425 218.41 323.567 217.828 323.529C216.822 323.46 216.549 323.811 217.559 325.079C218.103 325.762 217.83 325.974 217.419 326.048C216.066 326.292 213.87 325.767 215.859 328.802C216.565 329.88 215.068 329.52 214.253 329.377C213.12 329.178 212.451 329.306 213.027 330.58C213.637 331.928 213.379 332.508 211.923 332.162C211.375 332.03 211.315 332.435 211.309 332.853C211.287 335.034 210.613 335.328 207.626 333.278C206.126 332.247 205.764 332.395 205.506 332.844C204.569 334.478 203.294 335.753 200.793 335.853C199.153 335.919 200.059 338.455 197.805 337.949C198.362 338.543 199.093 339.286 198.067 339.064C197.47 338.935 196.69 338.466 195.529 337.185C197.888 334.46 200.295 331.664 202.723 328.888C203.169 328.379 203.38 328.07 202.035 326.57C200.438 324.79 201.606 323.691 200.299 321.512C202.807 323.16 204.498 323.694 203.046 321.106C202.284 319.751 203.253 320.14 203.71 320.076C205.77 319.789 205.804 319.833 204.937 317.473C206.938 318.598 208.099 318.839 206.955 316.617C206.458 315.651 204.922 313.914 207.572 315.253C208.041 315.49 208.213 314.777 207.947 314.106C207.652 313.361 207.282 312.566 207.953 312.42C210.209 311.928 210.167 309.591 210.718 307.733C210.818 307.4 210.761 306.709 211.221 306.992C213.261 308.254 212.837 307.343 212.362 306.211C211.949 305.216 212.44 304.925 213.372 305.017C214.188 305.095 213.932 304.425 213.253 303.73C212.618 303.085 212.273 303.27 212.057 303.546C210.242 305.874 207.458 307.341 206.046 310.039C205.088 311.871 202.612 312.598 204.341 316.317C203.588 316.103 201.587 314.277 202.898 316.695C203.478 317.768 203.708 319.523 200.794 316.911C199.768 315.992 200.015 316.824 200.057 317.387C200.128 318.317 201.425 320.225 200.381 320.138C199.169 320.033 197.77 320.465 196.717 319.707C194.054 317.791 194.328 319.156 193.858 319.833C193.816 319.892 193.325 319.574 193.042 319.432L193.118 319.592C192.748 318.635 192.377 317.68 191.778 316.13C191.216 316.118 190.418 315.873 190.364 316.136C190.009 317.85 187.483 317.614 187.179 319.332C187.014 320.266 185.777 320.479 185.102 320.383C183.5 320.154 183.446 320.467 184.61 322.044C185.55 323.317 186.438 324.634 186.383 325.683C184.779 324.094 184.586 322.317 181.977 320.383C183.279 323.218 178.886 321.185 179.986 323.869C180.056 324.038 179.482 324.167 179.167 324.002C175.696 322.161 176.724 324.719 176.522 325.908C176.38 326.735 176.661 327.826 175.858 328.855C174.812 326.87 175.648 326.543 175.575 325.824C173.716 324.454 172.968 325.559 173.923 327.694C174.082 328.05 174.185 328.39 174.305 328.713C172.697 328.751 171.144 326.657 169.7 326.036C168.266 325.417 166.957 325.241 165.394 324.817C164.407 323.391 164.703 322.265 163.353 320.733C162.796 320.099 162.787 319.617 163.206 319.313C163.938 318.782 164.674 318.144 162.282 316.177C161.804 315.783 161.765 315.137 162.029 314.925C162.421 314.61 163.072 314.373 161.86 313.353C160.8 312.458 158.959 311.859 159.024 312.292C159.223 313.632 158.764 313.338 157.515 312.135C155.491 310.181 153.325 308.248 152.7 306.113L152.679 306.108C151.932 305.487 150.886 304.752 150.585 304.758C149.212 304.781 148.107 304.158 147.335 302.41C147.035 301.732 146.43 301.13 145.756 300.509C144.831 299.666 144.956 298.948 145.448 299.122C147.89 299.987 146.725 297.818 147.205 297.061C147.402 296.748 147.119 296.059 147.41 295.729C148.016 295.044 149.471 297.124 149.975 296.796C150.508 296.452 148.084 294.787 149.216 294.455C149.802 294.284 149.945 293.608 150.293 293.165C150.495 292.909 150.585 292.516 150.943 292.445C151.823 292.268 151.823 290.363 154.376 293.216C154.751 293.632 155.546 293.86 155.645 293.415C155.75 292.943 155.166 292.442 154.573 292.11C152.975 291.216 153.57 290.177 152.397 289.136C153.435 289.824 154.472 290.51 155.441 291.155C156.198 290.581 154.497 288.909 154.818 288.156C155.773 288.297 155.999 289.148 156.496 289.675C158.141 291.418 158.866 291.358 159.085 290.33C159.131 290.113 158.575 289.428 159.117 289.602C160.141 289.934 160.016 289.323 159.535 288.707C158.862 287.838 158.23 287.912 157.803 288.055C157.468 288.166 157.264 288.423 156.985 288.627C154.65 284.959 154.956 284.619 159.19 286.114C159.384 285.425 157.786 284.318 157.888 283.606C158.239 283.59 158.706 283.857 158.924 284.28C159.518 285.421 160.558 286.273 161.66 287.285C163.076 285.569 158.585 283.317 158.172 281.508C159.566 281.101 161.401 284.341 162.843 283.947C162.227 282.486 158.882 280.786 159.8 279.388C161.283 280.846 162.435 282.495 164.242 283.826C164.882 281.798 165.709 279.906 162.554 275.9C164.862 276.735 165.776 279.409 167.659 279.465C167.111 277.603 163.701 275.882 163.52 274.012C166.996 275.839 166.996 275.838 165.531 271.52C167.362 273.442 167.567 275.478 170.354 276.888C170.821 275.09 168.448 272.456 166.967 269.909C168.216 270.256 169.626 271.434 170.632 271.476C170.419 271.6 170.192 271.71 169.995 271.852C169.405 272.275 169.934 273.134 170.862 274.052C171.135 274.321 171.805 274.632 172.025 274.596C172.751 274.477 171.79 273.419 171.719 272.837C171.669 272.443 171.162 271.852 170.518 271.443C170.807 270.67 169.247 269.708 168.868 268.868C168.863 268.866 169.1 268.91 169.1 268.91C170.025 269.604 170.813 270.598 171.91 271.039C172.106 270.231 171.558 269.385 170.174 268.479L170.288 268.666Z" fill="#D67AB1"/>
<path d="M243.698 312.892C245.369 312.272 245.417 310.688 246.4 309.896C248.091 308.537 248.595 306.193 250.018 304.613C250.272 304.328 250.406 303.816 251.387 304.511C252.474 305.281 252.538 305.906 252.64 306.597C252.892 308.312 252 309.352 250.902 309.728C249.46 310.22 249.877 312.488 247.099 311.752C245.769 311.4 246.739 314.084 243.698 312.892Z" fill="#D67AB1"/>
<path d="M259.464 290.821C261.622 287.802 263.522 285.166 265.393 282.509C265.627 282.177 265.71 281.609 266.599 282.17C267.555 282.773 267.987 283.675 268.256 284.367C268.422 284.795 268.29 285.239 267.996 285.365C264.892 286.695 263.858 290.029 259.464 290.821Z" fill="#D67AB1"/>
<path d="M259.109 297.241C257.879 298.276 257.884 300.046 256.207 300.364C255.805 300.441 255.871 300.779 255.975 301.274C256.448 303.56 254.611 303.975 253.419 304.92C253.037 305.223 252.572 304.812 252.032 304.402C251.411 303.93 250.93 303.42 251.14 303.043C252.697 300.257 254.528 297.722 258.168 296.843C258.24 296.829 258.433 296.952 259.109 297.241Z" fill="#D67AB1"/>
<path d="M271.994 278.898C271.262 280.124 270.439 281.277 269.839 282.601C269.536 283.273 268.933 283.409 267.813 282.393C266.601 281.291 267.039 280.815 267.596 280.51C268.889 279.804 269.298 278.212 271.994 278.898Z" fill="#D67AB1"/>
<path d="M302.68 208.239C302.599 207.999 302.466 207.731 302.447 207.525C302.344 206.42 302.574 205.608 304.233 206.187C304.38 206.239 304.672 206.66 304.897 206.91C303.981 207.148 305.186 209.565 302.591 208.081C302.596 208.09 302.68 208.239 302.68 208.239Z" fill="#D67AB1"/>
<path d="M307.543 203.314C306.493 203.856 306.862 205.709 304.568 205.564C304.967 203.91 305.667 203.052 307.543 203.314Z" fill="#D67AB1"/>
<path d="M243.137 301.89C243.133 302.791 242.917 303.438 241.618 302.902C241.169 302.716 240.869 302.231 240.769 301.886C240.262 300.14 242.608 302.241 243.137 301.89Z" fill="#D67AB1"/>
<path d="M176.808 264.687C176.156 264.004 175.46 263.825 174.785 263.405C173.765 262.435 173.775 261.855 174.499 261.872C175.102 261.884 175.793 262.619 176.195 263.314C176.472 263.791 176.974 264.343 176.808 264.687Z" fill="#D67AB1"/>
<path d="M195.876 341.961C195.365 341.946 194.832 342.028 194.07 341.388C193.613 341.006 193.638 340.64 193.901 340.558C194.255 340.448 194.764 340.556 195.39 341.027C195.857 341.379 196.12 341.719 195.876 341.961Z" fill="#D67AB1"/>
<path d="M152.701 306.114C152.306 306.423 152.422 307.058 152.542 307.697C152.605 308.032 152.53 308.273 152.05 308.056C151.817 307.952 151.475 307.676 151.295 307.457C150.88 306.957 150.502 306.444 151.064 306.37C151.613 306.298 152.572 306.725 152.679 306.111C152.68 306.109 152.701 306.114 152.701 306.114Z" fill="#D67AB1"/>
<path d="M183.424 325.188C183.909 325.844 184.197 326.437 184.139 326.908C184.138 326.921 183.484 326.576 183.441 326.489C183.185 325.935 182.191 325.15 182.668 324.844C182.748 324.792 183.159 325.062 183.424 325.188Z" fill="#D67AB1"/>
<path d="M169.1 268.912C169.1 268.912 168.863 268.868 168.868 268.869C167.251 267.917 168.052 267.759 168.431 267.644C168.917 267.495 169.652 268.205 170.288 268.668L170.174 268.48C169.875 268.685 169.815 269.151 169.1 268.912Z" fill="#D67AB1"/>
<path d="M193.043 319.432C192.645 319.458 193.083 320.618 191.842 319.484C191.644 319.304 191.39 318.889 191.443 318.818C191.8 318.348 192.492 319.075 193.119 319.589C193.12 319.592 193.043 319.432 193.043 319.432Z" fill="#D67AB1"/>
</g>
</svg>
