<svg width="48" height="48" viewBox="0 0 48 48" fill="none" xmlns="http://www.w3.org/2000/svg">
<path fill-rule="evenodd" clip-rule="evenodd" d="M48 0H0V48H48V0ZM22.4141 18.1229C22.3322 18.041 22.2349 18 22.1222 18H19.2653C19.1526 18 19.0554 18.041 18.9734 18.1229C18.8915 18.2048 18.8506 18.3021 18.8506 18.4147V22.9306L15.5021 18.3072C15.3485 18.1024 15.1488 18 14.903 18H12.4147C12.3021 18 12.2048 18.041 12.1229 18.1229C12.041 18.2048 12 18.3021 12 18.4147V28.3373C12 28.4499 12.041 28.5472 12.1229 28.6291C12.2048 28.711 12.3021 28.752 12.4147 28.752H15.2717C15.3843 28.752 15.4816 28.711 15.5635 28.6291C15.6454 28.5472 15.6864 28.4499 15.6864 28.3373V24.1594L19.0349 28.4294C19.1987 28.6445 19.4035 28.752 19.6493 28.752H22.1222C22.2349 28.752 22.3322 28.711 22.4141 28.6291C22.496 28.5472 22.537 28.4499 22.537 28.3373V18.4147C22.537 18.3021 22.496 18.2048 22.4141 18.1229ZM36.2935 18.1075C36.2321 18.0358 36.1553 18 36.0631 18H32.8222C32.6276 18 32.474 18.0512 32.3614 18.1536C32.2487 18.256 32.1719 18.3738 32.131 18.5069L30.3646 24.3898L28.5982 18.5069C28.5572 18.384 28.4753 18.2714 28.3524 18.169C28.2398 18.0563 28.0913 18 27.907 18H24.666C24.5738 18 24.4919 18.0358 24.4202 18.1075C24.3588 18.169 24.3281 18.2458 24.3281 18.3379L24.3434 18.4454L27.907 28.2912C27.9479 28.4038 28.0247 28.5114 28.1374 28.6138C28.25 28.7059 28.3985 28.752 28.5828 28.752H32.1617C32.346 28.752 32.4945 28.7059 32.6071 28.6138C32.7198 28.5114 32.8017 28.3885 32.8529 28.2451L36.3857 18.4454L36.401 18.3379C36.401 18.2458 36.3652 18.169 36.2935 18.1075Z" fill="currentColor"/>
</svg>
