<svg width="402" height="55" viewBox="0 0 402 55" fill="none" xmlns="http://www.w3.org/2000/svg">
<path d="M89.632 44.648C88.2507 45.7307 86.7013 46.5333 84.984 47.056C83.304 47.616 81.4747 47.896 79.496 47.896C75.6133 47.896 72.2533 46.8133 69.416 44.648C67.5493 43.2293 66.1867 41.456 65.328 39.328C64.5067 37.1627 64.096 34.68 64.096 31.88V5.504C64.096 5.31733 64.152 5.13066 64.264 4.944C64.4133 4.75733 64.5813 4.664 64.768 4.664H69.752C69.9387 4.664 70.088 4.73866 70.2 4.888C70.3493 5.03733 70.424 5.20533 70.424 5.392V31.88C70.424 34.792 71.1893 37.1813 72.72 39.048C74.2507 40.9147 76.5093 41.848 79.496 41.848C82.5573 41.848 84.8347 40.9333 86.328 39.104C87.8587 37.2747 88.624 34.8667 88.624 31.88V5.392C88.624 5.20533 88.68 5.03733 88.792 4.888C88.9413 4.73866 89.1093 4.664 89.296 4.664H94.28C94.4667 4.664 94.616 4.75733 94.728 4.944C94.8773 5.13066 94.952 5.31733 94.952 5.504V31.88C94.952 34.6427 94.504 37.1067 93.608 39.272C92.7493 41.4373 91.424 43.2293 89.632 44.648ZM129.704 46.944C129.405 46.944 129.181 46.888 129.032 46.776C128.882 46.664 128.696 46.4213 128.471 46.048L110.888 15.808V46.048C110.888 46.4213 110.832 46.664 110.72 46.776C110.608 46.888 110.365 46.944 109.992 46.944H105.344C105.045 46.944 104.821 46.888 104.672 46.776C104.522 46.664 104.448 46.4213 104.448 46.048V5.672C104.448 5.224 104.522 4.944 104.672 4.832C104.821 4.68267 105.101 4.608 105.512 4.608H110.664C110.962 4.608 111.186 4.664 111.336 4.776C111.485 4.85067 111.672 5.09333 111.896 5.504L129.48 35.688V5.504C129.48 5.13066 129.536 4.888 129.648 4.776C129.76 4.664 130.002 4.608 130.376 4.608H135.024C135.397 4.608 135.621 4.664 135.696 4.776C135.808 4.888 135.864 5.13066 135.864 5.504V45.88C135.864 46.328 135.789 46.6267 135.64 46.776C135.528 46.888 135.266 46.944 134.856 46.944H129.704ZM164.735 43.92C163.764 44.9653 162.514 45.8613 160.983 46.608C159.49 47.3173 157.903 47.7467 156.223 47.896C155.327 47.9707 154.319 47.9707 153.199 47.896C152.116 47.8213 151.052 47.6907 150.007 47.504C148.999 47.3547 148.066 47.1867 147.207 47C146.386 46.776 145.788 46.5707 145.415 46.384C144.855 46.1227 144.519 45.936 144.407 45.824C144.295 45.6747 144.276 45.3947 144.351 44.984L144.743 40.84C144.78 40.5413 144.874 40.3547 145.023 40.28C145.172 40.2053 145.452 40.2613 145.863 40.448C146.311 40.6347 146.946 40.8587 147.767 41.12C148.588 41.344 149.503 41.5493 150.511 41.736C151.519 41.8853 152.527 41.9787 153.535 42.016C154.58 42.0533 155.514 41.9787 156.335 41.792C157.418 41.5307 158.295 41.1947 158.967 40.784C159.639 40.336 160.162 39.832 160.535 39.272C160.946 38.6747 161.226 38.04 161.375 37.368C161.524 36.6587 161.599 35.9307 161.599 35.184C161.599 34.4747 161.132 33.504 160.199 32.272C159.303 31.04 157.996 29.92 156.279 28.912C154.188 27.68 152.378 26.5413 150.847 25.496C149.316 24.4133 148.047 23.3493 147.039 22.304C146.068 21.2587 145.34 20.176 144.855 19.056C144.37 17.936 144.127 16.704 144.127 15.36C144.127 13.8293 144.444 12.3733 145.079 10.992C145.751 9.57333 146.647 8.34133 147.767 7.296C148.924 6.25066 150.287 5.42933 151.855 4.832C153.46 4.19733 155.215 3.88 157.119 3.88C159.06 3.88 160.647 4.01066 161.879 4.272C163.148 4.496 164.231 4.776 165.127 5.112C165.538 5.26133 165.78 5.42933 165.855 5.616C165.967 5.76533 165.986 5.97067 165.911 6.232L165.183 9.816C165.108 10.2267 164.978 10.5067 164.791 10.656C164.642 10.8053 164.362 10.8053 163.951 10.656C163.391 10.4693 162.775 10.3013 162.103 10.152C161.431 9.96533 160.74 9.816 160.031 9.704C159.322 9.592 158.631 9.51733 157.959 9.48C157.324 9.44267 156.746 9.46133 156.223 9.536C154.132 9.872 152.658 10.5627 151.799 11.608C150.978 12.616 150.567 13.904 150.567 15.472C150.567 16.4053 151.052 17.4507 152.023 18.608C152.994 19.728 154.412 20.848 156.279 21.968C158.631 23.3867 160.554 24.656 162.047 25.776C163.578 26.896 164.772 27.9787 165.631 29.024C166.527 30.032 167.143 31.0587 167.479 32.104C167.852 33.1493 168.039 34.288 168.039 35.52C168.039 38.8053 166.938 41.6053 164.735 43.92ZM197.674 10.656V22.248H211.562C212.047 22.248 212.29 22.472 212.29 22.92V27.456C212.29 27.904 212.047 28.128 211.562 28.128H197.674V46.104C197.674 46.664 197.413 46.944 196.89 46.944H192.298C191.738 46.944 191.458 46.664 191.458 46.104V5.728C191.458 5.31733 191.533 5.056 191.682 4.944C191.831 4.79466 192.055 4.72 192.354 4.72H212.346C212.533 4.72 212.682 4.79466 212.794 4.944C212.943 5.056 213.018 5.20533 213.018 5.392V9.872C213.018 10.3947 212.794 10.656 212.346 10.656H197.674ZM220.35 46.944C220.163 46.944 219.995 46.888 219.846 46.776C219.734 46.6267 219.678 46.4587 219.678 46.272V5.392C219.678 5.20533 219.734 5.056 219.846 4.944C219.995 4.79466 220.163 4.72 220.35 4.72H225.39C225.577 4.72 225.726 4.79466 225.838 4.944C225.987 5.056 226.062 5.20533 226.062 5.392V41.064H240.566C241.014 41.064 241.238 41.3067 241.238 41.792V46.272C241.238 46.4587 241.163 46.6267 241.014 46.776C240.902 46.888 240.753 46.944 240.566 46.944H220.35ZM252.403 46.216C252.403 46.7013 252.16 46.944 251.675 46.944H246.579C246.094 46.944 245.851 46.7013 245.851 46.216V5.448C245.851 4.96266 246.094 4.72 246.579 4.72H251.675C252.16 4.72 252.403 4.96266 252.403 5.448V46.216ZM293.406 45.656C292.734 45.992 291.912 46.2907 290.942 46.552C289.971 46.776 288.907 46.9813 287.75 47.168C286.63 47.3547 285.472 47.4853 284.278 47.56C283.12 47.672 282.019 47.728 280.974 47.728C277.875 47.728 275 47.2427 272.35 46.272C269.736 45.3013 267.478 43.8827 265.574 42.016C263.67 40.1493 262.176 37.8533 261.094 35.128C260.011 32.4027 259.47 29.304 259.47 25.832C259.47 22.6587 259.974 19.7467 260.982 17.096C261.99 14.408 263.427 12.0933 265.294 10.152C267.16 8.21066 269.419 6.69866 272.07 5.616C274.72 4.53333 277.707 3.992 281.03 3.992C283.27 3.992 285.267 4.12267 287.022 4.384C288.776 4.608 290.438 4.96266 292.006 5.448C292.416 5.56 292.659 5.69067 292.734 5.84C292.808 5.952 292.827 6.08266 292.79 6.232L292.118 10.992C292.08 11.2533 291.987 11.44 291.838 11.552C291.688 11.664 291.408 11.6453 290.998 11.496C289.243 10.936 287.582 10.544 286.014 10.32C284.446 10.0587 282.766 9.928 280.974 9.928C278.734 9.928 276.699 10.32 274.87 11.104C273.04 11.8507 271.472 12.9333 270.166 14.352C268.859 15.7333 267.832 17.3947 267.086 19.336C266.376 21.2773 266.022 23.4427 266.022 25.832C266.022 28.408 266.376 30.704 267.086 32.72C267.832 34.6987 268.859 36.3787 270.166 37.76C271.51 39.104 273.096 40.1307 274.926 40.84C276.755 41.512 278.771 41.848 280.974 41.848C282.654 41.848 284.11 41.7733 285.342 41.624C286.574 41.4747 287.488 41.2507 288.086 40.952V29.696H278.846C278.622 29.696 278.435 29.64 278.286 29.528C278.174 29.3787 278.118 29.2107 278.118 29.024V24.544C278.118 24.32 278.192 24.1333 278.342 23.984C278.528 23.8347 278.715 23.76 278.902 23.76H293.238C293.798 23.76 294.152 23.8533 294.302 24.04C294.451 24.2267 294.526 24.6 294.526 25.16V43.64C294.526 44.2 294.414 44.6293 294.19 44.928C293.966 45.2267 293.704 45.4693 293.406 45.656ZM306.167 46.944C305.98 46.944 305.812 46.888 305.663 46.776C305.551 46.6267 305.495 46.4587 305.495 46.272V5.392C305.495 5.20533 305.551 5.056 305.663 4.944C305.812 4.79466 305.98 4.72 306.167 4.72H311.151C311.337 4.72 311.487 4.79466 311.599 4.944C311.748 5.056 311.823 5.20533 311.823 5.392V22.192H329.183V5.392C329.183 5.20533 329.239 5.056 329.351 4.944C329.5 4.79466 329.668 4.72 329.855 4.72H334.839C335.025 4.72 335.175 4.79466 335.287 4.944C335.436 5.056 335.511 5.20533 335.511 5.392V46.272C335.511 46.4587 335.436 46.6267 335.287 46.776C335.175 46.888 335.025 46.944 334.839 46.944H329.855C329.407 46.944 329.183 46.72 329.183 46.272V28.072H311.823V46.272C311.823 46.72 311.599 46.944 311.151 46.944H306.167ZM359.454 10.6V46.272C359.454 46.72 359.23 46.944 358.782 46.944H353.798C353.35 46.944 353.126 46.72 353.126 46.272V10.6H342.262C342.075 10.6 341.907 10.544 341.758 10.432C341.646 10.2827 341.59 10.096 341.59 9.872V5.392C341.59 5.20533 341.646 5.056 341.758 4.944C341.907 4.79466 342.075 4.72 342.262 4.72H370.374C370.561 4.72 370.71 4.79466 370.822 4.944C370.971 5.056 371.046 5.20533 371.046 5.392V9.872C371.046 10.3573 370.822 10.6 370.374 10.6H359.454ZM395.626 43.92C394.655 44.9653 393.404 45.8613 391.874 46.608C390.38 47.3173 388.794 47.7467 387.114 47.896C386.218 47.9707 385.21 47.9707 384.09 47.896C383.007 47.8213 381.943 47.6907 380.898 47.504C379.89 47.3547 378.956 47.1867 378.098 47C377.276 46.776 376.679 46.5707 376.306 46.384C375.746 46.1227 375.41 45.936 375.298 45.824C375.186 45.6747 375.167 45.3947 375.242 44.984L375.634 40.84C375.671 40.5413 375.764 40.3547 375.914 40.28C376.063 40.2053 376.343 40.2613 376.754 40.448C377.202 40.6347 377.836 40.8587 378.658 41.12C379.479 41.344 380.394 41.5493 381.402 41.736C382.41 41.8853 383.418 41.9787 384.426 42.016C385.471 42.0533 386.404 41.9787 387.226 41.792C388.308 41.5307 389.186 41.1947 389.858 40.784C390.53 40.336 391.052 39.832 391.426 39.272C391.836 38.6747 392.116 38.04 392.266 37.368C392.415 36.6587 392.49 35.9307 392.49 35.184C392.49 34.4747 392.023 33.504 391.09 32.272C390.194 31.04 388.887 29.92 387.17 28.912C385.079 27.68 383.268 26.5413 381.738 25.496C380.207 24.4133 378.938 23.3493 377.93 22.304C376.959 21.2587 376.231 20.176 375.746 19.056C375.26 17.936 375.018 16.704 375.018 15.36C375.018 13.8293 375.335 12.3733 375.97 10.992C376.642 9.57333 377.538 8.34133 378.658 7.296C379.815 6.25066 381.178 5.42933 382.746 4.832C384.351 4.19733 386.106 3.88 388.01 3.88C389.951 3.88 391.538 4.01066 392.77 4.272C394.039 4.496 395.122 4.776 396.018 5.112C396.428 5.26133 396.671 5.42933 396.746 5.616C396.858 5.76533 396.876 5.97067 396.802 6.232L396.074 9.816C395.999 10.2267 395.868 10.5067 395.682 10.656C395.532 10.8053 395.252 10.8053 394.842 10.656C394.282 10.4693 393.666 10.3013 392.994 10.152C392.322 9.96533 391.631 9.816 390.922 9.704C390.212 9.592 389.522 9.51733 388.85 9.48C388.215 9.44267 387.636 9.46133 387.114 9.536C385.023 9.872 383.548 10.5627 382.69 11.608C381.868 12.616 381.458 13.904 381.458 15.472C381.458 16.4053 381.943 17.4507 382.914 18.608C383.884 19.728 385.303 20.848 387.17 21.968C389.522 23.3867 391.444 24.656 392.938 25.776C394.468 26.896 395.663 27.9787 396.522 29.024C397.418 30.032 398.034 31.0587 398.37 32.104C398.743 33.1493 398.93 34.288 398.93 35.52C398.93 38.8053 397.828 41.6053 395.626 43.92Z" fill="#6E647C"/>
<g clip-path="url(#clip0_273_2503)">
<path d="M45 26.5C45 14.0736 34.9264 4 22.5 4C10.0736 4 0 14.0736 0 26.5C0 38.9264 10.0736 49 22.5 49C34.9264 49 45 38.9264 45 26.5Z" fill="url(#paint0_linear_273_2503)"/>
<path opacity="0.332" d="M19.748 48.8304C18.7841 48.7128 17.8289 48.5329 16.8884 48.2918L16.4025 47.4411L16.5663 45.4533L15.6769 44.2707L16.0369 42.2661L15.5081 42.1191V37.771C15.4934 37.7604 14.0252 36.6509 13.9395 36.6509C13.8537 36.6509 13.1618 36.4632 13.1548 36.4611L13.0057 35.6377L11.0777 33.2302L11.269 32.3661L11.3323 30.9514L12.6682 30.0218L12.4777 28.4377L10.5286 28.2921L9.00281 26.5611L7.92211 26.2629L7.2232 26.1343L7.30758 25.5014L6.41602 25.3763V25.7349L4.18922 25.1822L3.29344 23.8175L3.65766 23.1558L2.25141 21.1069L2.00813 19.6064H1.43578L1.62492 21.0619L2.59945 22.5596L2.49328 23.1509L1.66781 23.0236L0.650391 21.3017V21.1575C1.35744 18.2812 2.62478 15.5725 4.37989 13.1865C6.135 10.8005 8.34342 8.78404 10.8788 7.25254L11.013 7.28137L11.0974 7.70324L12.8152 7.76652L12.5824 7.21809L11.0566 7.1752L11.1396 7.09715C11.8493 6.6824 12.5812 6.30683 13.332 5.97215L13.5352 6.2534L14.6602 6.31598L15.338 5.66137L15.847 5.91449L14.9112 6.8166C13.7749 6.83699 13.6821 6.8398 13.68 6.84051C13.7487 7.13 13.7855 7.42614 13.7897 7.72363L15.3563 7.68004L15.5257 7.25816L16.6057 7.19348L16.733 6.56066L16.1002 6.45379L16.3111 5.88426L16.7977 5.7366L18.4915 5.8252L17.5563 6.66895L17.7068 7.32285L18.6813 7.47121L18.618 6.28996L19.5511 5.8041L21.2041 5.61426L23.5948 6.66895V7.57809L24.3577 7.76793L23.9745 8.48582H22.8973L22.5773 9.30848L20.1108 8.7291L22.0514 7.69902L21.3124 7.07254L19.6348 7.28277L19.4885 7.43395H19.4829L19.4576 7.4691L18.9752 7.96832L18.1779 8.03371L18.2412 8.42957L18.5224 8.54418L18.5112 8.67426L17.8622 8.76566L17.8144 9.14043L17.1949 9.17207L17.0831 8.42676L15.9715 8.76355L13.6983 10.0875L13.9535 11.0213L14.5863 11.4347L15.8569 11.6084V13.0477L16.444 12.9542L16.9854 11.8292L18.3368 11.4031V9.67691L19.0884 9.11441L20.9053 9.54121L20.7809 10.6768H21.2681L22.6041 10.0229L22.6688 11.5205L23.6412 12.1118L23.5997 12.9999L22.668 13.3156L22.7313 13.6095L23.8535 14.1221L23.8303 14.7331L23.5055 14.7612C23.5049 14.7557 23.5038 14.7503 23.502 14.745L22.0852 14.3098L22.0254 13.857L22.4388 13.5757V13.163L21.993 13.0512L21.882 13.4323L21.1008 13.5532L21.0227 13.5279V13.5596L20.752 13.6004L20.532 13.1567L20.2767 13.0449H19.7198L19.4674 13.2558V13.715L19.9434 13.8732L20.4131 13.9393L20.3084 13.9857L19.8795 14.4596L19.691 14.2226L19.2762 14.1129L18.1463 15.1676L18.2939 15.2886L16.6261 16.2082L15.0574 17.8339L14.9498 18.5574L13.377 19.5896L12.5979 20.37L12.6837 21.9317L11.603 21.4304L11.6114 20.5163H8.60555L7.04883 21.3038L6.37102 22.5455L6.10242 23.5299L6.54047 24.4854L7.76813 24.6345L9.7207 23.3365L9.89156 23.9799L9.29602 25.1L10.7803 25.3531L10.9294 27.6361L12.9635 27.9807L14.2566 26.4921L15.8252 26.81L16.3765 27.5729L17.8805 27.4843L17.922 27.042L18.7488 27.4414L19.6819 28.8968L21.292 28.9186L21.8862 29.9543L21.9705 31.22L23.7516 31.895L25.9973 31.9175L26.6548 32.9918L27.6504 33.3104L27.4598 34.1991L26.3658 35.5814L26.0473 38.6393L25.0629 39.4128L23.6018 39.3699L23.1145 40.2136L23.4766 41.7992L21.8848 43.827L21.3771 44.7572L19.8612 45.4814L18.8648 45.6326L18.8234 46.0545L19.5265 46.2535L19.4421 46.7077L18.8156 47.3082L19.196 47.7863L19.9498 47.8074L19.9083 48.3861L19.7515 48.8304H19.748ZM41.0196 39.2876V38.2674L40.2764 37.5298L40.2103 36.6861L41.1553 34.8924L39.3673 31.7459L39.5782 29.6105L37.9681 29.4453L37.3753 28.8539H36.2918L35.742 29.3595H33.8337L33.769 29.5282H32.7087L30.2745 26.7643L30.2941 24.6106L30.6963 24.4636L30.8461 23.6396H30.2738L30.041 22.7747L32.8584 20.749V19.3132L34.2366 18.5518L34.7955 18.6073H35.9297L36.8184 18.132L39.6795 17.9105V19.3667L41.9421 19.9383L42.3858 20.2547H42.7992V19.4602L43.8398 19.3596C44.9463 22.6722 45.2677 26.1966 44.7786 29.6546C44.2896 33.1127 43.0034 36.4097 41.0217 39.2855L41.0196 39.2876ZM34.2113 18.0856L33.5081 17.7565L33.2972 16.3594L33.5517 15.6936L34.7534 15.4313L36.064 15.6936L36.225 14.9707L35.6681 14.84L35.858 13.715L37.177 13.5096L38.0995 12.2117L39.0516 12.0528L39.8348 12.1688C40.7285 13.2471 41.5198 14.4061 42.1988 15.631L41.682 15.1873L41.3304 14.8393H40.2265L40.5731 15.8187L41.9013 16.5563L42.132 16.7996L41.8437 16.9402L41.857 17.7136L41.2095 17.9829L40.6568 17.8627L40.3116 17.3754L41.2109 17.4225L41.4534 17.0963L39.4636 15.7604L39.3103 15.1901L38.5024 15.9193L37.6826 15.7519L36.4352 17.3691L36.1891 18.0019L35.3911 18.0722L34.2113 18.0856ZM43.0931 17.4373L42.6713 16.9901L42.6509 16.493C42.8098 16.8122 42.9581 17.1293 43.0938 17.4359L43.0931 17.4373ZM19.0266 15.6317L19.0547 15.2646L19.2916 14.97L19.6116 15.2196L19.5574 15.5888L19.0273 15.6331L19.0266 15.6317ZM20.2563 15.529C20.2416 15.4306 20.2324 15.3532 20.2317 15.3448H20.0566V14.9658H20.7879L20.9384 14.5777L21.2288 14.5728L21.5606 14.6431L21.42 14.937L21.0572 14.9679L20.9869 15.3195L20.7056 15.4932L20.2584 15.5311L20.2563 15.529ZM35.8566 13.3289H35.1155L35.1991 12.4529L35.8158 12.3263L35.7638 11.9143L35.1893 11.5557L34.7878 11.2814V10.8793L35.0198 10.5214L35.858 10.3526L36.0689 11.3665L36.5147 12.0837L36.8107 12.4226L37.3507 12.6336L36.8416 13.2368L35.8566 13.3289ZM34.0024 12.99H33.4111V12.4627L33.9223 11.6499L34.6085 11.4903L35.0965 11.7012L35.0522 12.2496L34.0024 12.99Z" fill="white"/>
<g filter="url(#filter0_d_273_2503)">
<path d="M31.6474 16.9568C32.2505 15.662 32.4604 14.2187 32.2512 12.8057C32.192 12.5363 32.0558 12.2899 31.8593 12.0964C31.8157 12.0518 31.7656 12.014 31.7108 11.9841C31.6625 11.9554 31.6108 11.9329 31.5569 11.9172C31.2866 11.8386 30.999 11.8431 30.7314 11.9301C29.4034 12.4549 28.2591 13.3585 27.4408 14.5286C26.4168 15.9583 25.5081 17.4672 24.7232 19.0409C24.5408 19.3768 24.348 19.7304 24.1449 20.1016L21.0063 20.0108L21.013 20.0003C21.1013 19.846 21.125 19.663 21.079 19.4913C21.033 19.3196 20.9209 19.1731 20.7673 19.0836L20.1021 18.699C19.947 18.6093 19.7627 18.5848 19.5896 18.631C19.5041 18.6533 19.4238 18.6926 19.3536 18.7464C19.2835 18.8003 19.2247 18.8676 19.181 18.9445L18.6069 19.939L18.1582 19.9262C18.2221 19.7753 18.2287 19.6063 18.1768 19.4509C18.1249 19.2955 18.0181 19.1644 17.8764 19.0821L17.2105 18.6977C17.0553 18.6088 16.8712 18.585 16.6986 18.6317C16.6135 18.6541 16.5337 18.6933 16.464 18.747C16.3942 18.8007 16.336 18.8679 16.2926 18.9445L15.7651 19.8564L12.5763 19.7608C12.5025 19.759 12.4288 19.7679 12.3575 19.7873C12.1537 19.8416 11.9792 19.9734 11.8711 20.1545L11.112 21.4735C11.0276 21.6175 11.0031 21.789 11.0441 21.9508C11.072 22.0607 11.1297 22.1607 11.2108 22.24C11.2919 22.3192 11.3932 22.3746 11.5037 22.4L18.6394 24.2032C18.7019 24.2226 18.7626 24.2474 18.8208 24.2774L21.0642 25.5723C19.8769 27.7591 18.855 29.8431 18.0995 31.6202C18.029 31.7853 17.964 31.949 17.8983 32.1047L12.9799 32.9559C12.9517 32.9599 12.9237 32.9657 12.8961 32.9733C12.6753 33.0375 12.4866 33.1822 12.3674 33.3789L12.0135 33.9921C11.9706 34.0626 11.9422 34.1409 11.93 34.2225C11.9177 34.3041 11.9218 34.3874 11.942 34.4674C11.9715 34.5828 12.0341 34.6872 12.1221 34.7675C12.2102 34.8478 12.3198 34.9006 12.4375 34.9194L16.2449 35.6183C16.2982 35.6323 16.3499 35.6518 16.3993 35.6763L16.7542 35.8794C16.7294 36.1086 16.7421 36.3402 16.7918 36.5653C16.818 36.6806 16.867 36.7895 16.9361 36.8856C17.0052 36.9816 17.0928 37.0627 17.1939 37.1242L17.2089 37.1311C17.3127 37.1873 17.4266 37.2221 17.5441 37.2335C17.6615 37.245 17.7801 37.2329 17.8927 37.1979C18.1104 37.128 18.3154 37.0236 18.5 36.8889L18.8607 37.097C18.9049 37.1272 18.946 37.1617 18.9833 37.2001L21.4919 40.139C21.5662 40.2311 21.6654 40.2999 21.7776 40.3372C21.8899 40.3745 22.0105 40.3788 22.1251 40.3495C22.2046 40.3279 22.279 40.2908 22.344 40.2402C22.409 40.1897 22.4633 40.1267 22.5038 40.055L22.8657 39.425C22.9723 39.2234 22.9999 38.9892 22.9433 38.7682C22.936 38.7409 22.9303 38.7198 22.9272 38.7082L21.1985 34.0068C21.3036 33.8727 21.4091 33.7347 21.5177 33.5916C22.6805 32.0467 23.9736 30.1181 25.2713 27.9997L27.5199 29.2976C27.5759 29.3327 27.6282 29.3733 27.676 29.4188L32.7971 34.6861C32.8638 34.7587 32.9468 34.8144 33.0392 34.8488C33.1316 34.8831 33.2309 34.895 33.3288 34.8836C33.4267 34.8722 33.5206 34.8378 33.6026 34.7831C33.6847 34.7284 33.7526 34.6551 33.8008 34.5691L34.5658 33.2449C34.6647 33.0599 34.689 32.8442 34.6337 32.6419C34.6154 32.5727 34.5875 32.5063 34.5509 32.4447L32.8731 29.7306L33.3996 28.8175C33.4883 28.663 33.5122 28.4797 33.466 28.3077C33.4199 28.1356 33.3076 27.9889 33.1535 27.8995L32.485 27.5136C32.343 27.4318 32.1761 27.4046 32.0155 27.437C31.855 27.4694 31.7117 27.5592 31.6125 27.6897L31.3783 27.3094L31.9529 26.314C32.0414 26.159 32.0652 25.9753 32.0191 25.8028C31.9967 25.7176 31.9575 25.6376 31.9039 25.5677C31.8502 25.4977 31.7832 25.4391 31.7067 25.3953L31.0407 25.0109C30.964 24.9663 30.8793 24.9373 30.7913 24.9256C30.7034 24.9139 30.614 24.9197 30.5283 24.9427C30.4426 24.9656 30.3623 25.0053 30.2919 25.0595C30.2216 25.1136 30.1627 25.1811 30.1186 25.2581L30.1145 25.2643L28.467 22.5954C28.6903 22.2285 28.9025 21.8799 29.1056 21.5469C30.0731 20.0866 30.9231 18.5518 31.6474 16.9568Z" fill="white"/>
</g>
</g>
<defs>
<filter id="filter0_d_273_2503" x="-6.9751" y="-0.138672" width="59.6377" height="64.5078" filterUnits="userSpaceOnUse" color-interpolation-filters="sRGB">
<feFlood flood-opacity="0" result="BackgroundImageFix"/>
<feColorMatrix in="SourceAlpha" type="matrix" values="0 0 0 0 0 0 0 0 0 0 0 0 0 0 0 0 0 0 127 0" result="hardAlpha"/>
<feOffset dy="6"/>
<feGaussianBlur stdDeviation="9"/>
<feColorMatrix type="matrix" values="0 0 0 0 0 0 0 0 0 0 0 0 0 0 0 0 0 0 0.059 0"/>
<feBlend mode="normal" in2="BackgroundImageFix" result="effect1_dropShadow_273_2503"/>
<feBlend mode="normal" in="SourceGraphic" in2="effect1_dropShadow_273_2503" result="shape"/>
</filter>
<linearGradient id="paint0_linear_273_2503" x1="22.5" y1="4" x2="22.5" y2="49" gradientUnits="userSpaceOnUse">
<stop stop-color="#FCB899"/>
<stop offset="1" stop-color="#B190F2"/>
</linearGradient>
<clipPath id="clip0_273_2503">
<rect width="45" height="45" fill="white" transform="translate(0 4)"/>
</clipPath>
</defs>
</svg>
