<svg width="24" height="24" viewBox="0 0 24 24" fill="none" xmlns="http://www.w3.org/2000/svg">
<path fill-rule="evenodd" clip-rule="evenodd" d="M13.8375 9.52499H15.9563V11.6812H17.025C17.5125 11.6812 18.0188 11.5875 18.4875 11.4375C18.7125 11.3625 18.975 11.25 19.2 11.1187C18.9 10.725 18.75 10.2375 18.7125 9.74999C18.6563 9.09374 18.7875 8.23124 19.2375 7.72499L19.4625 7.46249L19.725 7.66874C20.4 8.21249 20.9438 8.94374 21.0563 9.80624C21.8625 9.56249 22.8 9.61874 23.5125 10.0312L23.7938 10.2L23.6438 10.5C23.0438 11.6625 21.7875 12.0375 20.5688 11.9625C18.7313 16.5187 14.7563 18.675 9.91878 18.675C7.42503 18.675 5.13753 17.7375 3.82503 15.525L3.80628 15.4875L3.61878 15.0937C3.16878 14.1187 3.03753 13.05 3.13128 11.9812L3.16878 11.6625H4.96878V9.52499H7.08753V7.42499H11.3063V5.30624H13.8375V9.52499Z" fill="#3A4D54"/>
<path d="M20.7 10.3312C20.85 9.225 20.025 8.3625 19.5 7.95C18.9187 8.625 18.825 10.425 19.7437 11.175C19.2187 11.625 18.15 12.0562 17.025 12.0562H3.48749C3.37499 13.2187 3.58124 14.2875 4.04999 15.2062L4.19999 15.4875C4.29374 15.6562 4.40624 15.8062 4.51874 15.975C5.08124 16.0125 5.58749 16.0312 6.05624 16.0125C6.97499 15.9937 7.72499 15.8812 8.30624 15.6937C8.39999 15.6562 8.47499 15.7125 8.51249 15.7875C8.54999 15.8812 8.49374 15.9562 8.41874 15.9937C8.34374 16.0125 8.26874 16.05 8.17499 16.0687C7.72499 16.2 7.23749 16.275 6.61874 16.3125H6.50624C6.26249 16.3312 5.99999 16.3312 5.71874 16.3312C5.41874 16.3312 5.13749 16.3312 4.79999 16.3125C5.92499 17.5875 7.68749 18.3375 9.89999 18.3375C14.5875 18.3375 18.5625 16.2562 20.3062 11.6062C21.5625 11.7375 22.7625 11.4187 23.3062 10.35C22.4625 9.84375 21.3375 10.0125 20.7 10.3312Z" fill="#00AADA"/>
<path d="M20.6999 10.3312C20.8499 9.225 20.0249 8.3625 19.4999 7.95C18.9187 8.625 18.8249 10.425 19.7437 11.175C19.2187 11.625 18.15 12.0562 17.025 12.0562H4.27495C4.2187 13.8375 4.87495 15.1875 6.0562 15.9937C6.97495 15.975 7.72495 15.8625 8.3062 15.675C8.39995 15.6375 8.47495 15.6937 8.51245 15.7687C8.54995 15.8625 8.4937 15.9375 8.4187 15.975C8.3437 15.9937 8.2687 16.0312 8.17495 16.05C7.72495 16.1812 7.19995 16.275 6.5812 16.3125L6.56245 16.2937C8.1562 17.1187 10.4624 17.1 13.1249 16.0875C16.0874 14.9437 18.8624 12.7687 20.7937 10.2937C20.7562 10.3125 20.7187 10.3125 20.6999 10.3312Z" fill="#28B8EB"/>
<path d="M3.50623 13.4625C3.58123 14.0812 3.76873 14.6625 4.04998 15.2062L4.19998 15.4875C4.29373 15.6562 4.40623 15.8062 4.51873 15.975C5.08123 16.0125 5.58748 16.0312 6.05623 16.0125C6.97498 15.9937 7.72498 15.8812 8.30623 15.6937C8.39998 15.6562 8.47498 15.7125 8.51248 15.7875C8.54998 15.8812 8.49373 15.9562 8.41873 15.9937C8.34373 16.0125 8.26873 16.05 8.17498 16.0687C7.72498 16.2 7.19998 16.2937 6.58123 16.3312H6.50623C6.26248 16.35 5.99998 16.35 5.73748 16.35C5.43748 16.35 5.13748 16.35 4.81873 16.3312C5.94373 17.6062 7.72498 18.3562 9.93748 18.3562C13.95 18.3562 17.4375 16.8375 19.4625 13.4812H3.50623V13.4625Z" fill="#028BB8"/>
<path d="M4.40625 13.4625C4.65 14.55 5.2125 15.4125 6.05625 15.9937C6.975 15.975 7.725 15.8625 8.30625 15.675C8.4 15.6375 8.475 15.6937 8.5125 15.7687C8.55 15.8625 8.49375 15.9375 8.41875 15.975C8.34375 15.9937 8.26875 16.0312 8.175 16.05C7.725 16.1812 7.2 16.275 6.5625 16.3125C8.15625 17.1375 10.4625 17.1187 13.1063 16.1062C14.7 15.4875 16.2562 14.5687 17.6437 13.4625H4.40625Z" fill="#019BC6"/>
<path fill-rule="evenodd" clip-rule="evenodd" d="M5.32495 9.88125H7.16245V11.7188H5.32495V9.88125ZM5.47495 10.0312H5.62495V11.55H5.47495V10.0312ZM5.73745 10.0312H5.88745V11.55H5.73745V10.0312ZM6.0187 10.0312H6.1687V11.55H6.0187V10.0312ZM6.29995 10.0312H6.44995V11.55H6.29995V10.0312ZM6.5812 10.0312H6.7312V11.55H6.5812V10.0312ZM6.86245 10.0312H7.01245V11.55H6.86245V10.0312ZM7.42495 7.78125H9.26245V9.61875H7.42495V7.78125ZM7.5937 7.93125H7.7437V9.45H7.5937V7.93125ZM7.8562 7.93125H8.0062V9.45H7.8562V7.93125ZM8.13745 7.93125H8.28745V9.45H8.13745V7.93125ZM8.4187 7.93125H8.5687V9.45H8.4187V7.93125ZM8.6812 7.93125H8.8312V9.45H8.6812V7.93125ZM8.96245 7.93125H9.11245V9.45H8.96245V7.93125Z" fill="#00ACD3"/>
<path fill-rule="evenodd" clip-rule="evenodd" d="M7.42505 9.88126H9.26255V11.7188H7.42505V9.88126ZM7.5938 10.0313H7.7438V11.55H7.5938V10.0313ZM7.8563 10.0313H8.0063V11.55H7.8563V10.0313ZM8.13755 10.0313H8.28755V11.55H8.13755V10.0313ZM8.4188 10.0313H8.5688V11.55H8.4188V10.0313ZM8.6813 10.0313H8.8313V11.55H8.6813V10.0313ZM8.96255 10.0313H9.11255V11.55H8.96255V10.0313Z" fill="#23C2EE"/>
<path fill-rule="evenodd" clip-rule="evenodd" d="M9.5437 9.88126H11.3812V11.7188H9.5437V9.88126ZM9.6937 10.0313H9.8437V11.55H9.6937V10.0313ZM9.97495 10.0313H10.125V11.55H9.97495V10.0313ZM10.2562 10.0313H10.4062V11.55H10.2562V10.0313ZM10.5187 10.0313H10.6687V11.55H10.5187V10.0313ZM10.8 10.0313H10.95V11.55H10.8V10.0313ZM11.0812 10.0313H11.2312V11.55H11.0812V10.0313Z" fill="#00ACD3"/>
<path fill-rule="evenodd" clip-rule="evenodd" d="M9.5437 7.78125H11.3812V9.61875H9.5437V7.78125ZM9.6937 7.93125H9.8437V9.45H9.6937V7.93125ZM9.97495 7.93125H10.125V9.45H9.97495V7.93125ZM10.2562 7.93125H10.4062V9.45H10.2562V7.93125ZM10.5187 7.93125H10.6687V9.45H10.5187V7.93125ZM10.8 7.93125H10.95V9.45H10.8V7.93125ZM11.0812 7.93125H11.2312V9.45H11.0812V7.93125ZM11.6625 9.88125H13.5V11.7188H11.6625V9.88125ZM11.8125 10.0312H11.9625V11.55H11.8125V10.0312ZM12.0937 10.0312H12.2437V11.55H12.0937V10.0312ZM12.3562 10.0312H12.5062V11.55H12.3562V10.0312ZM12.6375 10.0312H12.7875V11.55H12.6375V10.0312ZM12.9187 10.0312H13.0687V11.55H12.9187V10.0312ZM13.2 10.0312H13.35V11.55H13.2V10.0312Z" fill="#23C2EE"/>
<path fill-rule="evenodd" clip-rule="evenodd" d="M11.6625 7.78125H13.5V9.61875H11.6625V7.78125ZM11.8125 7.93125H11.9625V9.45H11.8125V7.93125ZM12.0937 7.93125H12.2437V9.45H12.0937V7.93125ZM12.3562 7.93125H12.5062V9.45H12.3562V7.93125ZM12.6375 7.93125H12.7875V9.45H12.6375V7.93125ZM12.9187 7.93125H13.0687V9.45H12.9187V7.93125ZM13.2 7.93125H13.35V9.45H13.2V7.93125Z" fill="#00ACD3"/>
<path fill-rule="evenodd" clip-rule="evenodd" d="M11.6625 5.66251H13.5V7.50001H11.6625V5.66251ZM11.8125 5.81251H11.9625V7.33126H11.8125V5.81251ZM12.0937 5.81251H12.2437V7.33126H12.0937V5.81251ZM12.3562 5.81251H12.5062V7.33126H12.3562V5.81251ZM12.6375 5.81251H12.7875V7.33126H12.6375V5.81251ZM12.9187 5.81251H13.0687V7.33126H12.9187V5.81251ZM13.2 5.81251H13.35V7.33126H13.2V5.81251Z" fill="#23C2EE"/>
<path fill-rule="evenodd" clip-rule="evenodd" d="M13.7812 9.88126H15.6188V11.7188H13.7812V9.88126ZM13.9313 10.0313H14.0812V11.55H13.9313V10.0313ZM14.1937 10.0313H14.3438V11.55H14.1937V10.0313ZM14.475 10.0313H14.625V11.55H14.475V10.0313ZM14.7562 10.0313H14.9062V11.55H14.7562V10.0313ZM15.0375 10.0313H15.1875V11.55H15.0375V10.0313ZM15.3187 10.0313H15.4688V11.55H15.3187V10.0313Z" fill="#00ACD3"/>
<path fill-rule="evenodd" clip-rule="evenodd" d="M9.15005 14.6812C9.4313 14.6812 9.6563 14.9062 9.6563 15.1875C9.6563 15.4687 9.4313 15.6937 9.15005 15.6937C8.8688 15.6937 8.6438 15.4687 8.6438 15.1875C8.6438 14.9062 8.8688 14.6812 9.15005 14.6812Z" fill="#D4EEF1"/>
<path fill-rule="evenodd" clip-rule="evenodd" d="M9.15005 14.8313C9.18755 14.8313 9.2438 14.8313 9.2813 14.85C9.2438 14.8688 9.2063 14.925 9.2063 14.9813C9.2063 15.0563 9.2813 15.1313 9.3563 15.1313C9.41255 15.1313 9.4688 15.0938 9.48755 15.0563C9.5063 15.0938 9.5063 15.15 9.5063 15.1875C9.5063 15.3938 9.33755 15.5438 9.15005 15.5438C8.9438 15.5438 8.7938 15.375 8.7938 15.1875C8.7938 15 8.9438 14.8313 9.15005 14.8313ZM0.206299 13.65H23.7188C23.2125 13.5188 22.1063 13.35 22.275 12.675C21.3375 13.7438 19.1063 13.425 18.525 12.9C17.8876 13.8188 14.2125 13.4625 13.9688 12.75C13.1813 13.6875 10.725 13.6875 9.93755 12.75C9.67505 13.4625 6.00005 13.8188 5.3813 12.9C4.8188 13.425 2.5688 13.7438 1.6313 12.675C1.83755 13.3313 0.712549 13.5188 0.206299 13.65Z" fill="#3A4D54"/>
<path d="M10.5 18.3375C9.2437 17.7375 8.5687 16.9313 8.17495 16.05C7.7062 16.1813 7.1437 16.275 6.5062 16.3125C6.26245 16.3313 5.99995 16.3313 5.73745 16.3313C5.4187 16.3313 5.09995 16.3313 4.76245 16.3125C5.88745 17.4375 7.31245 18.3188 9.9187 18.3375H10.5Z" fill="#BFDBE0"/>
<path d="M8.64373 16.8563C8.47498 16.6125 8.30623 16.3313 8.17498 16.05C7.70623 16.1813 7.14373 16.275 6.50623 16.3125C6.93748 16.5375 7.57498 16.7625 8.64373 16.8563Z" fill="#D4EEF1"/>
</svg>
