<svg width="24" height="24" viewBox="0 0 24 24" fill="none" xmlns="http://www.w3.org/2000/svg">
<path fill-rule="evenodd" clip-rule="evenodd" d="M16.5071 8.02725C16.808 8.89781 17.0248 9.78656 17.096 10.7078C17.1845 11.8506 17.144 12.9853 16.9031 14.1094C16.8965 14.1403 16.8827 14.1694 16.8723 14.1994C16.7968 14.1996 16.7197 14.1902 16.6458 14.2016C16.0217 14.2997 15.398 14.4013 14.7744 14.5024C14.1298 14.6068 13.4842 14.7071 12.8407 14.8187C12.6127 14.8581 12.3305 14.811 12.2385 15.1264C12.2358 15.135 12.2096 15.1365 12.1944 15.1414L12.2255 13.2568L12.1938 8.70956L12.4942 8.658C12.9855 8.57756 13.4767 8.496 13.9683 8.41781C14.555 8.32463 15.1423 8.23406 15.7293 8.14313C15.9883 8.10281 16.2476 8.06588 16.5071 8.02725Z" fill="#439934"/>
<path fill-rule="evenodd" clip-rule="evenodd" d="M11.5741 20.6351C11.2573 20.3627 10.9293 20.1022 10.6256 19.8157C8.99114 18.2741 7.79564 16.4597 7.20689 14.2721C7.04471 13.6701 6.93652 13.0582 6.90183 12.4361C6.87746 12.0007 6.84221 11.5614 6.87296 11.1283C6.95489 9.97631 7.12139 8.83537 7.45927 7.72575L7.47783 7.69987C7.51064 7.74356 7.55789 7.78219 7.57458 7.8315C7.90439 8.80275 8.23177 9.77475 8.55746 10.7473C9.58083 13.8036 10.6029 16.8606 11.628 19.9161C11.648 19.9757 11.7 20.0246 11.7373 20.0784L11.5741 20.6351Z" fill="#45A538"/>
<path fill-rule="evenodd" clip-rule="evenodd" d="M16.5071 8.02725C16.2476 8.06588 15.9881 8.10281 15.7291 8.14275C15.1421 8.23369 14.5548 8.32425 13.9681 8.41744C13.4765 8.49563 12.9853 8.57719 12.494 8.65763L12.1936 8.70919L12.1914 8.51325C12.1814 8.35219 12.1644 8.19131 12.1625 8.03025C12.1496 7.00313 12.1415 5.976 12.1288 4.94888C12.1209 4.30594 12.1091 3.66319 12.0959 3.02044C12.0879 2.62106 12.0793 2.2215 12.0613 1.82269C12.0515 1.60838 12.017 1.39519 12.0029 1.18088C11.9951 1.05769 12.0059 0.933564 12.0084 0.809814C12.1616 1.10663 12.3114 1.40569 12.4689 1.70025C12.7177 2.166 13.1141 2.50913 13.4709 2.88356C14.8814 4.36331 15.8829 6.08381 16.5071 8.02725Z" fill="#46A037"/>
<path fill-rule="evenodd" clip-rule="evenodd" d="M12.1943 15.1412C12.2095 15.1363 12.2359 15.1348 12.2383 15.1262C12.3304 14.8108 12.6126 14.8579 12.8406 14.8185C13.4841 14.7071 14.1296 14.6066 14.7743 14.5022C15.3979 14.4011 16.0215 14.2995 16.6457 14.2014C16.7196 14.1898 16.7966 14.1994 16.8722 14.1992C16.7556 14.6154 16.6637 15.0407 16.5158 15.4455C16.3478 15.9047 16.1445 16.3528 15.9287 16.7921C15.6056 17.4474 15.2057 18.0619 14.7375 18.6227C14.3777 19.0554 13.9766 19.4554 13.5746 19.8504C13.3525 20.0689 13.0905 20.2468 12.8468 20.4431L12.7836 20.4L12.556 20.2054L12.3205 19.6892C12.1596 19.087 12.0718 18.4677 12.0591 17.8446L12.0634 17.7394L12.0955 17.2845C12.1061 17.1292 12.1204 16.9742 12.127 16.8186C12.1511 16.2594 12.1721 15.7003 12.1943 15.1412Z" fill="#409433"/>
<path fill-rule="evenodd" clip-rule="evenodd" d="M12.1943 15.1412C12.1722 15.7003 12.1512 16.2594 12.1274 16.8188C12.1208 16.9744 12.1066 17.1294 12.0959 17.2847L11.9524 17.3389C11.6339 16.401 11.3151 15.4731 11.0033 14.5427C10.4877 13.0035 9.97824 11.4619 9.46337 9.92232C9.04751 8.67966 8.62876 7.43797 8.20712 6.19726C8.18743 6.13913 8.13081 6.09376 8.09143 6.04238L9.00943 4.35451C9.04093 4.40926 9.08256 4.46044 9.10243 4.51932C9.52759 5.77597 9.95059 7.03334 10.3714 8.29144C10.9182 9.92832 11.4616 11.5665 12.0079 13.2036C12.0297 13.269 12.0657 13.3294 12.1 13.4027L12.2256 13.2564L12.1943 15.1412Z" fill="#4FAA41"/>
<path fill-rule="evenodd" clip-rule="evenodd" d="M8.09153 6.04256C8.1309 6.09393 8.18734 6.13931 8.20721 6.19743C8.62886 7.43814 9.04761 8.67983 9.46347 9.92249C9.97834 11.4621 10.4878 13.0037 11.0034 14.5429C11.315 15.4731 11.6338 16.4012 11.9525 17.3391L12.096 17.2849L12.0639 17.7397L12.0348 17.8446C11.985 18.3426 11.943 18.8417 11.8822 19.3386C11.8517 19.5876 11.7868 19.8321 11.7375 20.0786C11.7003 20.0248 11.6482 19.9759 11.6282 19.9162C10.6031 16.8606 9.58103 13.8037 8.55765 10.7475C8.23208 9.77487 7.90445 8.80293 7.57478 7.83168C7.55809 7.78237 7.51103 7.74374 7.47803 7.70006L8.09153 6.04256Z" fill="#4AA73C"/>
<path fill-rule="evenodd" clip-rule="evenodd" d="M12.2253 13.2566L12.0997 13.4029C12.0654 13.3296 12.0294 13.269 12.0077 13.2038C11.4615 11.5667 10.9179 9.9285 10.3712 8.29163C9.95032 7.03352 9.52732 5.77615 9.10215 4.5195C9.08247 4.46063 9.04084 4.40925 9.00916 4.35469L10.1445 2.86125C10.1803 2.90906 10.2313 2.95163 10.2498 3.00544C10.565 3.92813 10.8774 4.85194 11.1879 5.77631C11.478 6.63956 11.7637 7.50413 12.0572 8.36625C12.0768 8.424 12.1453 8.46488 12.191 8.51363L12.1933 8.70956C12.2042 10.2249 12.2148 11.7409 12.2253 13.2566Z" fill="#57AE47"/>
<path fill-rule="evenodd" clip-rule="evenodd" d="M12.1915 8.51324C12.1457 8.46449 12.0773 8.42362 12.0576 8.36587C11.7641 7.50374 11.4784 6.63918 11.1883 5.77593C10.8778 4.85156 10.5655 3.92793 10.2503 3.00506C10.2317 2.95124 10.1807 2.90868 10.1449 2.86087C10.5141 2.49937 10.8718 2.12493 11.2558 1.78012C11.5973 1.47374 11.8718 1.14524 11.8843 0.661118C11.8849 0.641056 11.8954 0.620993 11.9115 0.564743L12.0088 0.809618C12.0064 0.933555 11.9953 1.05749 12.0034 1.18068C12.0175 1.39499 12.052 1.60818 12.0617 1.82249C12.0797 2.22131 12.0883 2.62087 12.0964 3.02024C12.1093 3.66299 12.1211 4.30574 12.1292 4.94868C12.1418 5.97581 12.15 7.00293 12.163 8.03006C12.1645 8.19149 12.1813 8.35218 12.1915 8.51324Z" fill="#60B24F"/>
<path fill-rule="evenodd" clip-rule="evenodd" d="M11.7371 20.0784C11.7864 19.8319 11.8513 19.5872 11.8818 19.3384C11.9428 18.8417 11.9846 18.3424 12.0345 17.8444L12.0468 17.8425L12.0592 17.8446C12.072 18.4677 12.1597 19.087 12.3206 19.6892C12.2876 19.7327 12.2409 19.7715 12.2235 19.8206C12.0872 20.205 11.9587 20.5924 11.8217 20.9767C11.8029 21.0292 11.7508 21.0701 11.714 21.1162L11.574 20.6351L11.7371 20.0784Z" fill="#A9AA88"/>
<path fill-rule="evenodd" clip-rule="evenodd" d="M11.7142 21.1164C11.751 21.0703 11.8033 21.0294 11.8219 20.9769C11.9589 20.5926 12.0875 20.2054 12.2237 19.8208C12.2411 19.7717 12.2876 19.7329 12.3208 19.6894L12.5561 20.2058C12.5096 20.2718 12.4455 20.3312 12.4196 20.4047L11.9689 21.7283C11.9503 21.7813 11.8869 21.8188 11.8445 21.8636L11.7142 21.1164Z" fill="#B6B598"/>
<path fill-rule="evenodd" clip-rule="evenodd" d="M11.8446 21.8634C11.8872 21.8188 11.9504 21.7811 11.9689 21.7281L12.4197 20.4045C12.4454 20.3312 12.5097 20.2716 12.5562 20.2056L12.784 20.4C12.6739 20.5088 12.6128 20.6344 12.6495 20.7932L12.5804 21.0197C12.5489 21.0585 12.5033 21.0923 12.4877 21.1367C12.3304 21.5873 12.1802 22.0403 12.0218 22.4908C12.0017 22.548 11.946 22.5928 11.9067 22.6431C11.8862 22.383 11.8654 22.1235 11.8446 21.8634Z" fill="#C2C1A7"/>
<path fill-rule="evenodd" clip-rule="evenodd" d="M11.9068 22.6431C11.946 22.5926 12.0016 22.5478 12.0219 22.4908C12.1803 22.0404 12.3305 21.5874 12.4878 21.1367C12.5034 21.0924 12.5488 21.0585 12.5805 21.0197L12.485 22.0594C12.4595 22.0888 12.4226 22.1145 12.4104 22.1488C12.3026 22.4514 12.201 22.7563 12.0928 23.0589C12.0705 23.1214 12.0277 23.1765 11.9943 23.2348C11.9647 23.196 11.9116 23.1585 11.9092 23.118C11.8996 22.9603 11.9062 22.8015 11.9068 22.6431Z" fill="#CECDB7"/>
<path fill-rule="evenodd" clip-rule="evenodd" d="M11.9941 23.2348C12.0275 23.1763 12.0703 23.1212 12.0926 23.0589C12.201 22.7565 12.3024 22.4516 12.4102 22.1488C12.4224 22.1145 12.4595 22.089 12.4848 22.0594L12.4871 22.7419L12.2587 23.3276L11.9941 23.2348Z" fill="#DBDAC7"/>
<path fill-rule="evenodd" clip-rule="evenodd" d="M12.2588 23.3278L12.4872 22.7421L12.5342 23.4351L12.2588 23.3278Z" fill="#EBE9DC"/>
<path fill-rule="evenodd" clip-rule="evenodd" d="M12.6495 20.7934C12.6128 20.6346 12.6737 20.5088 12.7839 20.4002L12.8471 20.4433L12.6495 20.7934Z" fill="#CECDB7"/>
<path fill-rule="evenodd" clip-rule="evenodd" d="M12.0593 17.8447L12.0469 17.8427L12.0345 17.8446L12.0636 17.7397L12.0593 17.8447Z" fill="#4FAA41"/>
</svg>
