<svg width="207" height="64" viewBox="0 0 207 64" fill="none" xmlns="http://www.w3.org/2000/svg">
<path d="M35.875 49V40.875C34.5833 43.1458 33.3229 44.8125 32.0938 45.875C30.8646 46.9375 29.4688 47.7917 27.9062 48.4375C26.3646 49.0833 24.2917 49.3958 21.6875 49.375C20.3958 49.3542 19.1042 49.2083 17.8125 48.9375C16.5208 48.6458 15.2708 48.25 14.0625 47.75C12.8542 47.2292 11.6667 46.6146 10.5 45.9062C9.35417 45.1771 8.3125 44.3438 7.375 43.4062C5.0625 41.0729 3.26042 38.375 1.96875 35.3125C0.697917 32.2292 0.0625 28.875 0.0625 25.25C0.0625 23.0208 0.333333 20.8646 0.875 18.7812C1.41667 16.6979 2.17708 14.75 3.15625 12.9375C4.13542 11.125 5.3125 9.47917 6.6875 8C8.08333 6.5 9.625 5.21875 11.3125 4.15625C13.0208 3.09375 14.8542 2.27083 16.8125 1.6875C18.7708 1.10417 20.8229 0.8125 22.9688 0.8125C25.4271 0.8125 27.5625 1.14583 29.375 1.8125C31.1875 2.45833 33.1354 3.67708 35.2188 5.46875H42.2188V16.0312H32.5625C31.6042 14.5521 30.6979 13.4792 29.8438 12.8125C29.0104 12.1458 28.0938 11.5938 27.0938 11.1562C26.1146 10.7188 24.7396 10.5 22.9688 10.5C21.2188 10.5 19.5938 10.8958 18.0938 11.6875C16.5938 12.4792 15.2917 13.5521 14.1875 14.9062C13.1042 16.2396 12.25 17.8229 11.625 19.6562C11 21.4688 10.6875 23.3333 10.6875 25.25C10.6875 27.1458 10.9688 28.9479 11.5312 30.6562C12.0938 32.3646 12.9479 33.9062 14.0938 35.2812C15.2396 36.6354 16.5729 37.6771 18.0938 38.4062C19.6146 39.1354 21.2396 39.5 22.9688 39.5C25.1771 39.5 27.1042 38.8542 28.75 37.5625C30.3958 36.2708 31.5833 34.5104 32.3125 32.2812H23.2812V23.7188H45.2188V49H35.875ZM51.375 32.6875C51.375 30.3333 51.8021 28.125 52.6562 26.0625C53.5104 24 54.6979 22.1979 56.2188 20.6562C57.7396 19.1146 59.5521 17.8958 61.6562 17C63.7604 16.1042 66.0729 15.6562 68.5938 15.6562C71.1146 15.6562 73.4271 16.1042 75.5312 17C77.6562 17.8958 79.4792 19.1146 81 20.6562C82.5208 22.1979 83.6979 24 84.5312 26.0625C85.3854 28.125 85.8125 30.3333 85.8125 32.6875C85.8125 35.0417 85.3958 37.2604 84.5625 39.3438C83.75 41.4062 82.5833 43.2188 81.0625 44.7812C79.5625 46.3229 77.75 47.5417 75.625 48.4375C73.5208 49.3333 71.1771 49.7812 68.5938 49.7812C65.9896 49.7812 63.625 49.3333 61.5 48.4375C59.3958 47.5417 57.5938 46.3229 56.0938 44.7812C54.5938 43.2396 53.4271 41.4375 52.5938 39.375C51.7812 37.2917 51.375 35.0625 51.375 32.6875ZM60.7188 32.6875C60.7188 33.9167 60.9271 35.0521 61.3438 36.0938C61.7604 37.1146 62.3229 38 63.0312 38.75C63.7604 39.5 64.5938 40.0833 65.5312 40.5C66.4896 40.9167 67.5104 41.125 68.5938 41.125C69.6979 41.125 70.7188 40.9271 71.6562 40.5312C72.6146 40.1146 73.4375 39.5312 74.125 38.7812C74.8333 38.0312 75.3854 37.1458 75.7812 36.125C76.1771 35.0833 76.375 33.9375 76.375 32.6875C76.375 31.3958 76.1771 30.2292 75.7812 29.1875C75.3854 28.1458 74.8333 27.2604 74.125 26.5312C73.4375 25.8021 72.6146 25.25 71.6562 24.875C70.7188 24.4792 69.6979 24.2917 68.5938 24.3125C67.5104 24.2917 66.4896 24.4792 65.5312 24.875C64.5938 25.25 63.7604 25.8021 63.0312 26.5312C62.3229 27.2604 61.7604 28.1458 61.3438 29.1875C60.9271 30.2292 60.7188 31.3958 60.7188 32.6875ZM89.9062 0.375H104.5V40.4375H109.5V49H89.9062V40.4375H94.9062V8.9375H89.9062V0.375ZM114.688 32.6875C114.688 30.3333 115.115 28.125 115.969 26.0625C116.823 24 118.01 22.1979 119.531 20.6562C121.052 19.1146 122.865 17.8958 124.969 17C127.073 16.1042 129.385 15.6562 131.906 15.6562C134.427 15.6562 136.74 16.1042 138.844 17C140.969 17.8958 142.792 19.1146 144.312 20.6562C145.833 22.1979 147.01 24 147.844 26.0625C148.698 28.125 149.125 30.3333 149.125 32.6875C149.125 35.0417 148.708 37.2604 147.875 39.3438C147.062 41.4062 145.896 43.2188 144.375 44.7812C142.875 46.3229 141.062 47.5417 138.938 48.4375C136.833 49.3333 134.49 49.7812 131.906 49.7812C129.302 49.7812 126.938 49.3333 124.812 48.4375C122.708 47.5417 120.906 46.3229 119.406 44.7812C117.906 43.2396 116.74 41.4375 115.906 39.375C115.094 37.2917 114.688 35.0625 114.688 32.6875ZM124.031 32.6875C124.031 33.9167 124.24 35.0521 124.656 36.0938C125.073 37.1146 125.635 38 126.344 38.75C127.073 39.5 127.906 40.0833 128.844 40.5C129.802 40.9167 130.823 41.125 131.906 41.125C133.01 41.125 134.031 40.9271 134.969 40.5312C135.927 40.1146 136.75 39.5312 137.438 38.7812C138.146 38.0312 138.698 37.1458 139.094 36.125C139.49 35.0833 139.688 33.9375 139.688 32.6875C139.688 31.3958 139.49 30.2292 139.094 29.1875C138.698 28.1458 138.146 27.2604 137.438 26.5312C136.75 25.8021 135.927 25.25 134.969 24.875C134.031 24.4792 133.01 24.2917 131.906 24.3125C130.823 24.2917 129.802 24.4792 128.844 24.875C127.906 25.25 127.073 25.8021 126.344 26.5312C125.635 27.2604 125.073 28.1458 124.656 29.1875C124.24 30.2292 124.031 31.3958 124.031 32.6875ZM177.906 47.3125C176.74 47.9792 175.573 48.4583 174.406 48.75C173.24 49.0417 172.052 49.1875 170.844 49.1875C168.344 49.1875 166.042 48.7604 163.938 47.9062C161.833 47.0521 160.01 45.875 158.469 44.375C156.948 42.8542 155.76 41.0625 154.906 39C154.052 36.9375 153.625 34.6979 153.625 32.2812C153.625 30.0104 154.031 27.875 154.844 25.875C155.677 23.8542 156.833 22.0938 158.312 20.5938C159.792 19.0729 161.562 17.875 163.625 17C165.688 16.125 167.927 15.6771 170.344 15.6562C171.823 15.6771 173.177 15.8333 174.406 16.125C175.656 16.4167 176.823 16.8125 177.906 17.3125V16.625H187.375V47.6562C187.375 50.3854 186.906 52.7396 185.969 54.7188C185.031 56.7188 183.771 58.3646 182.188 59.6562C180.625 60.9688 178.802 61.9375 176.719 62.5625C174.635 63.2083 172.448 63.5312 170.156 63.5312C167.323 63.5312 164.698 63.1458 162.281 62.375C159.885 61.6042 157.75 60.5625 155.875 59.25L159.781 52.3125C161.219 53.2292 162.781 53.9479 164.469 54.4688C166.156 55.0104 168.031 55.2812 170.094 55.2812C171.219 55.2812 172.25 55.1562 173.188 54.9062C174.146 54.6562 174.969 54.2292 175.656 53.625C176.365 53.0417 176.917 52.25 177.312 51.25C177.708 50.25 177.906 48.9896 177.906 47.4688V47.3125ZM171.156 40.5312C172.615 40.5312 173.927 40.1667 175.094 39.4375C176.281 38.6875 177.219 37.7083 177.906 36.5L177.969 28.625C177.26 27.3125 176.292 26.2708 175.062 25.5C173.833 24.7292 172.5 24.3333 171.062 24.3125C170.042 24.3333 169.042 24.5417 168.062 24.9375C167.083 25.3125 166.229 25.8542 165.5 26.5625C164.792 27.2708 164.229 28.1146 163.812 29.0938C163.396 30.0521 163.188 31.125 163.188 32.3125C163.188 33.5625 163.396 34.6979 163.812 35.7188C164.229 36.7396 164.792 37.6042 165.5 38.3125C166.208 39.0208 167.042 39.5729 168 39.9688C168.979 40.3438 170.031 40.5312 171.156 40.5312ZM194.062 43.9375C194.062 43.1042 194.208 42.3229 194.5 41.5938C194.812 40.8646 195.24 40.2188 195.781 39.6562C196.344 39.0938 197 38.6562 197.75 38.3438C198.5 38.0104 199.302 37.8438 200.156 37.8438C200.969 37.8438 201.74 38.0104 202.469 38.3438C203.219 38.6562 203.865 39.0938 204.406 39.6562C204.969 40.1979 205.406 40.8438 205.719 41.5938C206.031 42.3438 206.188 43.125 206.188 43.9375C206.188 44.7708 206.021 45.5625 205.688 46.3125C205.375 47.0625 204.948 47.7083 204.406 48.25C203.865 48.7917 203.229 49.2188 202.5 49.5312C201.771 49.8646 200.99 50.0312 200.156 50.0312C199.281 50.0312 198.469 49.8646 197.719 49.5312C196.99 49.2188 196.344 48.7917 195.781 48.25C195.24 47.7083 194.812 47.0729 194.5 46.3438C194.208 45.5938 194.062 44.7917 194.062 43.9375Z" fill="#BCA371"/>
</svg>
