<svg width="440" height="79" viewBox="0 0 440 79" fill="none" xmlns="http://www.w3.org/2000/svg">
<path d="M116.2 76.5596C116.191 76.3553 116.08 76.2318 115.953 76.2852C115.826 76.3386 115.55 76.1579 115.341 75.8837C115.121 75.5944 114.791 75.3924 114.556 75.4025C114.235 75.4162 114.208 75.3746 114.424 75.2041C114.634 75.0384 114.624 74.9769 114.381 74.9387C114.133 74.8996 114.141 74.8292 114.418 74.6084C114.686 74.3946 114.697 74.3164 114.464 74.2798C114.296 74.2533 114.156 74.168 114.153 74.0901C114.149 74.0122 114.256 73.9837 114.39 74.0268C114.529 74.0718 114.567 74.0118 114.479 73.8861C114.395 73.7656 114.45 73.6617 114.602 73.6551C114.804 73.6465 114.805 73.5675 114.607 73.3641C114.389 73.1398 114.41 73.0816 114.717 73.0685C115.025 73.0552 115.038 73.0172 114.786 72.8705C114.464 72.6827 113.863 72.8888 113.954 73.1557C113.977 73.2247 113.87 73.3149 113.716 73.3561C113.531 73.4053 113.478 73.3189 113.561 73.1036C113.631 72.9236 113.59 72.8152 113.471 72.8628C113.352 72.9104 113.035 72.9107 112.766 72.8634C112.378 72.7952 112.489 72.7464 113.301 72.6276C113.94 72.5342 114.323 72.4007 114.317 72.2729C114.313 72.1601 114.52 72.0588 114.779 72.0477C115.038 72.0365 115.393 71.8935 115.569 71.7297C115.884 71.4361 117.101 71.0016 117.503 71.0393C117.617 71.05 118.322 70.9391 119.07 70.7929C119.818 70.6467 121.109 70.4518 121.939 70.3598C122.77 70.2678 123.507 70.131 123.579 70.0558C123.65 69.9806 123.947 69.9074 124.238 69.8931C124.53 69.8787 125.414 69.6459 126.204 69.3757C126.993 69.1054 127.823 68.8749 128.048 68.8634C128.273 68.8519 128.522 68.7744 128.601 68.691C128.679 68.6076 128.621 68.5447 128.471 68.5511C128.135 68.5655 128.228 67.9111 128.566 67.8824C128.699 67.8712 129.282 67.7594 129.862 67.6341C130.441 67.5089 131.183 67.435 131.51 67.4699C131.838 67.5049 132.449 67.4546 132.868 67.3583C133.288 67.2619 134.236 67.0856 134.976 66.9665C137.005 66.6397 138.086 66.393 138.08 66.258C138.074 66.1181 125.654 66.749 122.585 67.0451C120.968 67.2011 120.349 67.204 119.674 67.0587C119.203 66.9572 118.762 66.8671 118.695 66.8584C118.628 66.8497 118.251 66.7774 117.858 66.6978C117.464 66.6181 116.972 66.6004 116.764 66.6585C116.556 66.7166 113.335 66.9185 109.607 67.1072C105.878 67.296 102.34 67.5365 101.744 67.6418C101.148 67.747 99.3578 67.965 97.7656 68.1262C96.1735 68.2874 94.6652 68.4951 94.4138 68.5878C94.1625 68.6806 93.4232 68.7486 92.771 68.739C92.1188 68.7295 91.5289 68.7812 91.46 68.8539C91.3912 68.9267 91.2318 68.953 91.1058 68.9123C90.9799 68.8717 90.8798 68.9077 90.8834 68.9922C90.887 69.0768 90.8077 69.1365 90.7071 69.125C90.3015 69.0784 88.2332 69.4317 88.2382 69.5468C88.2443 69.6885 86.4249 70.0026 85.7309 69.9796C85.4756 69.9712 85.0676 70.1048 84.8243 70.2766C84.5809 70.4483 84.1957 70.6046 83.9681 70.6238C83.7406 70.643 82.9012 70.7009 82.1027 70.7524C81.3042 70.8039 80.2182 70.9402 79.6893 71.0553C79.1604 71.1703 78.3176 71.3189 77.8163 71.3854C77.315 71.4518 76.9664 71.561 77.0417 71.628C77.2765 71.837 76.7407 71.9173 72.5417 72.3031C72.3186 72.3236 72.1582 72.4014 72.1852 72.476C72.2122 72.5506 72.018 72.6595 71.7536 72.7179C71.4892 72.7763 71.0026 72.9481 70.6721 73.0997C70.2399 73.2979 69.3268 73.4335 67.4173 73.5827C65.9575 73.6968 64.511 73.7942 64.2027 73.799C63.8944 73.8039 63.312 73.926 62.9083 74.0704C62.4914 74.2195 62.1073 74.2781 62.0192 74.2061C61.8027 74.0294 60.9424 73.8876 61.1369 74.0607C61.342 74.2432 61.1059 74.2436 60.4521 74.0617C59.1324 73.6947 52.9846 74.2806 52.3643 74.8325C52.1723 75.0034 52.1552 75.1138 52.3168 75.1389C52.4558 75.1606 52.572 75.2361 52.5751 75.3068C52.5781 75.3775 52.4266 75.4068 52.2385 75.3719C52.0503 75.337 51.8274 75.3814 51.7431 75.4705C51.518 75.7083 52.968 75.613 53.741 75.3391C54.096 75.2133 54.8748 75.0413 55.4717 74.9568C56.0686 74.8723 56.7468 74.7737 56.9788 74.7378C57.2108 74.7019 57.4043 74.7581 57.4088 74.8626C57.4145 74.9972 57.7175 75.0257 58.4442 74.9603C59.2382 74.8888 59.3755 74.9058 59.0489 75.0353C58.8165 75.1274 58.6831 75.2534 58.7526 75.3152C58.9023 75.4484 57.5543 75.6468 54.9378 75.8764C53.4687 76.0054 52.9872 76 52.8174 75.8526C52.6581 75.7142 52.5989 75.7117 52.6018 75.8435C52.6078 76.111 51.1502 76.1303 50.6166 75.8698C50.3673 75.7481 50.166 75.7103 50.1693 75.7859C50.1728 75.8692 49.3873 75.9177 48.1728 75.9092C47.0715 75.9015 45.3515 75.8942 44.3506 75.8931C43.3496 75.892 42.1695 75.8305 41.7279 75.7565C41.2864 75.6824 40.6552 75.6646 40.3253 75.7168C39.9953 75.769 39.6538 75.748 39.5663 75.6701C39.4685 75.5831 39.5313 75.5686 39.7293 75.6324C39.9296 75.697 39.9901 75.6818 39.8893 75.5921C39.6994 75.423 38.5374 75.3123 37.1687 75.333C36.3614 75.3452 36.1922 75.2955 36.1591 75.0368C36.1236 74.759 36.2887 74.7069 37.7152 74.5461C38.5929 74.4471 39.584 74.3686 39.9178 74.3716L40.5246 74.377L39.873 74.1952C38.7431 73.88 37.6499 73.7734 35.5246 73.7713C34.3902 73.7702 32.7491 73.693 31.8776 73.5997C29.8733 73.3853 22.9624 73.6589 22.6736 73.9641C22.5742 74.0691 22.3626 74.1131 22.2035 74.0618C21.7924 73.9292 17.3333 74.07 17.4912 74.2106C17.6389 74.342 17.6029 74.3459 14.4371 74.5395C12.2028 74.6762 11.261 74.7663 7.92363 75.1628C6.40186 75.3436 5.5064 75.3158 4.62125 75.0606C4.25056 74.9537 4.32633 74.8806 5.19208 74.5098C5.89038 74.2107 6.75078 74.0155 8.05547 73.8602C10.282 73.595 12.4042 73.2903 13.9308 73.0166C14.8439 72.8528 15.0238 72.7681 14.9181 72.5516C14.8422 72.3962 14.6501 72.3252 14.4528 72.3796C14.2679 72.4305 14.1136 72.3999 14.1098 72.3115C14.106 72.2231 14.2936 72.1416 14.5267 72.1304C14.8888 72.113 14.8967 72.0918 14.5811 71.9848C14.3475 71.9057 14.3202 71.8542 14.5068 71.8448C14.6695 71.8365 14.7349 71.7346 14.6525 71.6173C14.5486 71.4694 14.7842 71.3169 15.4272 71.1157L16.3511 70.8266L13.981 70.8406C12.6775 70.8484 10.9595 70.8893 10.1634 70.9315C9.36726 70.9738 8.71552 71.0002 8.7151 70.9903C8.71467 70.9803 8.92582 70.8121 9.18433 70.6165C9.44283 70.421 9.65624 70.3051 9.65856 70.3591C9.66087 70.4131 9.90406 70.3504 10.199 70.2197C10.4939 70.089 11.5399 69.8722 12.5234 69.738C13.507 69.6038 14.7394 69.3841 15.2622 69.2499C15.785 69.1157 16.6076 68.9866 17.0902 68.963C18.4387 68.8972 21.8135 68.2218 20.8289 68.2149C20.7066 68.214 20.3872 68.1926 20.1192 68.1673C19.8512 68.1419 19.4981 68.1095 19.3346 68.0951C18.7773 68.046 18.7359 67.9063 19.2432 67.787C19.5216 67.7215 20.0275 67.4975 20.3674 67.2891C20.7073 67.0808 21.2286 66.8998 21.5258 66.8871C21.8231 66.8743 22.1867 66.7687 22.334 66.6525C22.554 66.4787 22.3521 66.4347 21.2006 66.4056C20.43 66.3861 19.4711 66.3526 19.0698 66.3311C18.1152 66.2799 14.3327 66.4555 14.077 66.5629C13.732 66.7079 10.9654 66.888 10.9602 66.7658C10.9574 66.7017 11.1151 66.5608 11.3107 66.4528C11.5062 66.3449 11.6633 66.1883 11.6597 66.1049C11.6561 66.0216 11.5833 65.9994 11.4979 66.0557C11.4125 66.112 11.1933 66.0916 11.0107 66.0103C10.8269 65.9285 10.6814 65.9245 10.6847 66.0013C10.688 66.0777 10.5272 66.1471 10.3274 66.1557C9.74572 66.1806 9.89861 66.0183 10.6888 65.7719C11.5774 65.4949 11.4444 65.4003 9.9872 65.2734C8.65787 65.1575 8.39426 64.8979 9.33221 64.6282C10.3029 64.3492 14.898 63.8438 17.5321 63.7264C18.7668 63.6713 20.0642 63.5705 20.4153 63.5021L21.0537 63.3779L20.3491 63.0692C19.9616 62.8993 19.4601 62.766 19.2347 62.7728C18.6604 62.7901 18.476 62.5666 18.7691 62.2085C19.0786 61.8304 21.1572 61.0851 22.0037 61.0488C22.3605 61.0335 22.5642 60.962 22.4756 60.8831C22.3898 60.8068 22.1198 60.7529 21.8755 60.7634C21.4652 60.781 20.9934 60.4382 21.0724 60.1797C21.1526 59.9171 17.3224 60.3714 17.0127 60.6613C16.7761 60.8827 10.6153 61.6992 10.0015 61.5905L9.41706 61.487L9.97249 61.2821C10.278 61.1695 12.2791 60.826 14.4195 60.519C18.3362 59.9571 19.2816 59.6385 16.7041 59.7491C15.9121 59.7831 15.1799 59.7314 14.9381 59.6245C14.5945 59.4726 14.1285 59.488 12.1725 59.7159C8.57583 60.1348 6.48678 60.4063 5.99893 60.5179C5.67571 60.5919 5.57589 60.5531 5.62879 60.374C5.70589 60.1129 6.44223 59.7789 7.60613 59.477C8.60796 59.2171 7.97126 59.0533 6.68405 59.2397C6.12598 59.3205 5.18091 59.4537 4.58391 59.5357L3.49843 59.6847L4.38426 59.124C4.87147 58.8156 5.26908 58.54 5.26786 58.5114C5.26664 58.4829 4.58784 58.4427 3.75942 58.4222C1.80074 58.3735 0.741658 58.0902 0.73473 57.613C0.731048 57.3613 2.28338 56.9568 3.7385 56.8303C4.33755 56.7782 5.69511 56.5944 6.75531 56.4218C7.81551 56.2492 9.44472 56.0458 10.3758 55.9699C11.3068 55.8939 12.7194 55.7349 13.5149 55.6165C18.4551 54.8811 19.5665 54.7046 19.7773 54.6219C19.9068 54.5711 19.5207 54.4791 18.9193 54.4176C18.3141 54.3556 17.8221 54.2205 17.8176 54.1149C17.8071 53.8706 20.2254 53.2352 22.4306 52.9028C23.5033 52.7411 24.2933 52.5351 24.547 52.351C24.774 52.1862 25.5764 51.9562 26.3745 51.8272C28.1852 51.5344 28.1273 51.333 26.131 50.9799C25.703 50.9041 25.3987 50.7645 25.4548 50.6696C25.5824 50.4536 26.6912 50.0847 27.2904 50.059C27.5381 50.0484 27.6706 49.9772 27.5849 49.9009C27.4991 49.8246 26.618 49.797 25.6268 49.8395C23.9938 49.9096 23.3316 49.7893 24.1129 49.5645C24.8109 49.3636 21.2804 49.6077 19.5431 49.8804C17.3797 50.2201 16.1924 50.1677 16.1737 49.7319C16.1651 49.531 16.7863 49.24 18.5084 48.6385C20.1306 48.0719 20.7549 47.7851 20.5309 47.7093C20.1055 47.5652 20.5114 47.3819 22.122 46.9906C24.3953 46.4383 26.1815 45.5993 25.9253 45.2042C25.7503 44.9344 26.6375 44.745 30.3158 44.2671C32.1441 44.0295 33.9721 43.7202 34.3779 43.5796C34.7837 43.439 35.6481 43.2627 36.2987 43.1878C38.0928 42.9813 41.5138 42.3113 42.0427 42.0629C42.3007 41.9418 42.8416 41.8239 43.2446 41.8009C43.6477 41.778 44.193 41.6938 44.4564 41.6137C44.8379 41.4978 44.7379 41.4722 43.9658 41.4883C41.8995 41.5314 40.7989 41.4564 40.5159 41.2533C40.3228 41.1147 40.029 41.0821 39.6627 41.1587C39.1818 41.2592 39.1627 41.2506 39.5252 41.0964C39.7569 40.9978 40.1361 40.9277 40.3678 40.9405C40.5994 40.9534 40.9333 40.9026 41.1096 40.8275C41.2993 40.7468 41.6774 40.7589 42.0357 40.8572C42.5077 40.9865 42.7408 40.981 43.0921 40.832C43.3774 40.711 43.5991 40.6907 43.6957 40.7767C43.7797 40.8514 44.4687 40.8883 45.2269 40.8586C45.9851 40.8289 46.8819 40.8862 47.2198 40.9861C47.956 41.2035 48.2001 41.2113 48.1917 41.0171C48.1883 40.9372 48.0156 40.8792 47.8079 40.8881C47.6002 40.897 47.4875 40.8438 47.5575 40.7699C47.6274 40.696 47.4549 40.6096 47.174 40.5778C46.8932 40.5461 46.7071 40.4321 46.7605 40.3245C46.859 40.126 47.9389 39.9658 51.2875 39.6531C54.3127 39.3705 55.1525 39.2523 55.1463 39.1098C55.1431 39.0348 54.977 38.9805 54.7772 38.9891C54.5754 38.9978 54.4084 38.8756 54.4015 38.7143C54.3923 38.5014 54.5505 38.417 54.9945 38.398C55.6912 38.3681 55.8004 38.1394 55.1529 38.0662C54.9131 38.0391 53.6872 38.0961 52.4287 38.1928C48.7633 38.4745 47.2931 38.4962 46.5145 38.2801C46.119 38.1703 45.7267 38.1093 45.6427 38.1446C45.5587 38.1799 45.5271 38.0229 45.5725 37.7958C45.6715 37.3002 45.3276 37.2383 42.8391 37.304C41.3498 37.3433 41.2333 37.3263 41.7437 37.1434C42.5832 36.8425 45.6883 36.3292 47.5468 36.184C48.4966 36.1098 49.3901 35.952 49.7075 35.8024C50.3831 35.484 50.7975 35.4626 51.2747 35.7215C51.4893 35.8379 52.0764 35.9039 52.6592 35.8771C54.454 35.7945 61.1339 35.0987 62.0363 34.9004C62.8791 34.7152 62.9038 34.69 62.7042 34.2216C62.5785 33.9264 62.593 33.6718 62.7412 33.5741C62.9095 33.4632 62.8974 33.3551 62.7023 33.2266C62.1057 32.8335 62.838 32.7154 66.3755 32.6341C69.1241 32.571 69.9795 32.5042 70.5295 32.31C71.1113 32.1044 73.7588 31.7418 75.5704 31.6194C75.8365 31.6015 76.5967 31.5049 77.2596 31.405L78.465 31.2232L77.3706 31.1644C76.7687 31.132 74.9698 31.195 73.3731 31.3043C71.7764 31.4137 69.4887 31.5365 68.2894 31.5773C67.0901 31.6182 64.7511 31.8165 63.0916 32.018C59.8081 32.4167 56.4182 32.7426 54.9554 32.8001C54.4453 32.8201 53.9619 32.8965 53.8812 32.9698C53.8005 33.0431 53.3946 33.1261 52.9792 33.1541C52.5638 33.1822 52.2262 33.2592 52.2291 33.3253C52.2319 33.3914 51.9872 33.4147 51.6854 33.377C51.2557 33.3234 51.2168 33.3382 51.5063 33.4454C51.8251 33.5634 51.8177 33.5851 51.4524 33.6027C51.2194 33.614 51.0318 33.6959 51.0356 33.7849C51.0399 33.8844 50.8083 33.8662 50.4355 33.738C49.7614 33.506 49.4689 33.4776 49.6789 33.6645C49.7549 33.7321 49.6018 33.8307 49.3387 33.8836C49.0648 33.9387 48.8571 33.908 48.853 33.8119C48.8488 33.7147 48.4633 33.6604 47.9375 33.683C47.3603 33.7078 47.0528 33.7847 47.0936 33.8941C47.1378 34.0125 46.8782 34.0568 46.261 34.036C45.2494 34.0019 44.2403 33.7063 44.2232 33.4391C44.2157 33.3249 44.1311 33.3428 43.9864 33.489C43.8115 33.6658 43.7562 33.6254 43.7397 33.3082C43.7125 32.7848 44.0924 32.3209 44.5649 32.3006C44.7678 32.2919 44.8638 32.2223 44.778 32.146C44.6923 32.0697 44.819 31.9938 45.0597 31.9774C45.857 31.9229 46.3601 31.8131 46.8906 31.578C47.3663 31.3672 48.5065 31.3916 48.516 31.6127C48.5177 31.6527 48.3717 31.6581 48.1914 31.6246C48.0112 31.5912 47.7149 31.684 47.533 31.8307C47.248 32.0608 47.2491 32.0784 47.5411 31.9586C47.8015 31.8517 47.843 31.8827 47.7207 32.0931C47.6256 32.2568 47.6886 32.4089 47.8777 32.4717C48.3486 32.628 48.7373 32.5781 48.3081 32.4164C48.0298 32.3115 48.1693 32.2864 48.8717 32.3147C49.388 32.3356 49.9999 32.2698 50.2409 32.1677C50.5706 32.0278 50.7645 32.0221 51.0387 32.1441C51.3309 32.2742 51.4352 32.2539 51.5777 32.0395C51.675 31.8933 51.7351 31.7255 51.7114 31.6665C51.6877 31.6075 51.8227 31.5526 52.0114 31.5445C52.2001 31.5364 52.3928 31.4533 52.4397 31.3598C52.4865 31.2663 52.8437 31.1556 53.2335 31.1139C53.6232 31.0721 54.0595 30.9329 54.2031 30.8045C54.3467 30.6761 54.5546 30.6153 54.665 30.6693C54.7755 30.7233 54.7925 30.6561 54.7029 30.52C54.5023 30.2153 54.9642 30.1661 55.1773 30.4695C55.3128 30.6624 55.3814 30.6568 55.7742 30.4214C56.1936 30.17 56.219 30.1706 56.2337 30.4317C56.2467 30.6633 56.2858 30.6712 56.4747 30.4803C56.8108 30.1406 56.7578 30.072 56.1054 30.0024C55.6916 29.9581 55.5189 29.8456 55.5365 29.6316C55.5646 29.2906 56.3973 29.001 57.3709 28.9935C58.2783 28.9865 59.0701 28.7654 59.0597 28.5218C59.0529 28.365 59.2917 28.3087 59.9604 28.3092C60.9384 28.3101 62.5735 28.0762 63.1558 27.8522C63.4449 27.741 63.4205 27.7163 63.0289 27.7239C62.7623 27.7292 61.9978 27.7262 61.3302 27.7174C59.2658 27.69 56.5266 27.8112 55.5435 27.9735C54.8686 28.0848 54.6505 28.0803 54.7668 27.9574C54.8667 27.8519 54.7998 27.822 54.5918 27.8794C54.3945 27.9338 54.0673 27.8147 53.8017 27.5918C53.4774 27.3197 53.4308 27.1912 53.638 27.1405C53.8326 27.0929 53.7814 27.0083 53.4822 26.883C53.0761 26.7129 53.1013 26.7003 53.7665 26.7409C54.1679 26.7654 54.3585 26.7527 54.1899 26.7128C53.5691 26.5658 53.8993 26.3729 54.8408 26.3325C55.4524 26.3063 55.8138 26.3578 55.8211 26.4723C55.8294 26.6057 55.8853 26.5992 56.0323 26.4477C56.1578 26.3183 56.291 26.2943 56.3907 26.383C56.5601 26.5337 56.8679 26.5082 57.6165 26.2814C57.8732 26.2037 58.4413 26.1203 58.8789 26.0962C59.8822 26.0409 60.1926 25.6665 59.1999 25.7091C58.8072 25.726 58.4423 25.647 58.358 25.5271C58.2577 25.3842 58.3604 25.3088 58.674 25.2953C58.9296 25.2844 59.2224 25.19 59.3247 25.0856C59.5912 24.8134 60.565 24.4628 60.8232 24.5461C60.9436 24.5849 61.1078 24.5474 61.188 24.4626C61.2682 24.3779 61.6345 24.2956 62.0021 24.2798C62.3697 24.2641 63.2578 24.1197 63.9758 23.9589C65.109 23.7052 65.2096 23.6538 64.7385 23.5689C64.4401 23.5152 62.4159 23.5565 60.2403 23.6607C58.0647 23.765 56.1399 23.8036 55.9631 23.7466C55.78 23.6875 55.5733 23.7151 55.4828 23.8107C55.2963 24.0078 47.7737 24.4741 47.5787 24.3006C47.5102 24.2396 47.2867 24.2359 47.082 24.2923C46.83 24.3618 46.7991 24.4236 46.9863 24.484C47.1383 24.533 46.9314 24.5873 46.5265 24.6047C46.1217 24.6221 45.7877 24.5738 45.7845 24.4975C45.7812 24.4212 45.6159 24.4485 45.4172 24.5582C45.2186 24.668 44.9765 24.7146 44.8794 24.6619C44.7822 24.6092 44.9683 24.4309 45.2929 24.2656L45.8829 23.9652L45.2804 24.0609C44.7525 24.1448 44.7371 24.137 45.1564 23.9979C45.8464 23.769 46.9952 23.7404 47.6777 23.935C48.3429 24.1247 49.1608 24.0177 49.149 23.7425C49.1435 23.6157 49.6193 23.5383 50.7152 23.4875C51.7027 23.4418 52.2917 23.474 52.296 23.5741C52.2998 23.6618 52.4345 23.6207 52.5954 23.4827C52.8067 23.3015 53.4585 23.1814 54.9426 23.0503C56.0726 22.9505 57.6812 22.7471 58.5171 22.5984C59.3531 22.4497 60.3842 22.3068 60.8085 22.2809C61.2329 22.255 62.1211 22.1212 62.7825 21.9836C63.91 21.749 63.7815 21.7471 60.7188 21.9529C58.9224 22.0737 57.2891 22.1805 57.0894 22.1904C56.8896 22.2003 54.3896 22.4621 51.5337 22.7722C48.6778 23.0823 45.5629 23.3894 44.6117 23.4546C43.6606 23.5199 42.9343 23.6201 42.9978 23.6774C43.0614 23.7347 42.6437 23.802 42.0698 23.8269C41.4958 23.8515 40.0494 24.009 38.8555 24.1762C36.8082 24.4627 31.9812 24.8749 32.6319 24.7075C32.7977 24.6648 32.8692 24.5728 32.7908 24.5031C32.7124 24.4333 32.9542 24.3599 33.3282 24.34C33.7022 24.3202 34.3844 24.1635 34.8441 23.9919C35.3038 23.8204 35.8953 23.6098 36.1585 23.5239C37.0237 23.2416 51.247 21.212 54.6073 20.8914C55.6041 20.7963 58.4848 20.5002 61.0089 20.2334C63.533 19.9666 66.8652 19.6305 68.4138 19.4864C69.9624 19.3423 71.7497 19.1073 72.3857 18.9642C73.2211 18.7761 73.5903 18.7469 73.7159 18.8587C73.8753 19.0005 76.4216 18.8505 79.4971 18.5182C79.962 18.4679 81.4305 18.3392 82.7604 18.2322C85.1467 18.0401 88.7754 17.5826 90.8018 17.2185C91.374 17.1156 91.9458 17.0649 92.0725 17.1057C92.1992 17.1466 93.882 16.968 95.8121 16.7089C98.6679 16.3255 99.4261 16.2664 99.8833 16.3918C100.343 16.5178 100.923 16.4684 103.074 16.1203C106.654 15.5408 111.326 14.7866 113.654 14.4123C114.714 14.2419 116.254 13.9808 117.076 13.8321C117.898 13.6833 118.929 13.5466 119.368 13.5281C119.807 13.5093 120.652 13.3795 121.247 13.2387C122.249 13.0016 124.308 12.6977 129.806 11.9754C132.631 11.6044 133.2 11.5223 136.076 11.0708C137.401 10.8627 139.571 10.5378 140.898 10.3488C142.224 10.1599 143.635 9.95884 144.033 9.90209C146.849 9.50058 147.387 9.48267 147.963 9.77148C148.274 9.92732 148.531 10.129 148.535 10.2196C148.539 10.3103 148.624 10.3732 148.723 10.3595C148.823 10.3458 149.153 10.3316 149.458 10.3279C149.922 10.3224 149.975 10.3675 149.782 10.603C149.5 10.9478 149.744 11.1168 150.179 10.8769C150.668 10.6071 150.563 10.8354 150.006 11.2561C149.713 11.4768 149.116 11.6891 148.562 11.7694C147.752 11.8867 147.661 11.9361 147.929 12.113C148.332 12.3785 148.003 12.4102 163.474 10.6184C164.537 10.4954 166.44 10.319 167.704 10.2263C168.968 10.1337 171.252 9.93542 172.78 9.78562C174.309 9.63584 176.321 9.45466 177.252 9.383C178.183 9.31136 179.373 9.16655 179.896 9.06121C180.419 8.95589 182.506 8.79449 184.533 8.70257C186.56 8.61067 188.362 8.50013 188.537 8.45695C188.969 8.35044 194.637 7.92863 195.988 7.9024C196.586 7.89084 197.246 7.96456 197.454 8.06631C197.921 8.29433 199.085 8.26925 204.485 7.91483C206.968 7.75189 209.245 7.52598 209.989 7.36873C210.959 7.16354 212.579 7.04925 216.883 6.88232C219.977 6.76238 225.122 6.50254 228.316 6.3051C234.79 5.90494 234.443 5.91842 241.154 5.80514C245.5 5.73179 248.004 5.62901 251.812 5.36772C252.477 5.32207 252.829 5.26302 252.595 5.23651C252.36 5.21001 252.165 5.12002 252.161 5.03656C252.157 4.93645 252.836 4.8844 254.157 4.88362C255.258 4.88297 258.559 4.84573 261.493 4.80087C264.427 4.75602 268.193 4.72787 269.861 4.73831C276.565 4.78029 279.121 4.78678 282.601 4.7706C291.304 4.7302 295.89 4.66611 300.667 4.51814C302.866 4.45002 305.593 4.39904 306.728 4.40483C307.862 4.41064 309.553 4.37678 310.485 4.3296C311.418 4.28253 313.273 4.26128 314.608 4.28265C315.944 4.30402 320.262 4.21188 324.204 4.07792C328.146 3.94396 331.855 3.87737 332.447 3.92994C333.039 3.98251 334.381 4.02417 335.429 4.02249C336.477 4.02082 337.679 4.03836 338.1 4.06146C339.538 4.14045 341.778 4.13999 345.05 4.06003C347.931 3.98961 350.734 3.99711 354.878 4.08635C355.546 4.10072 356.474 4.11434 356.941 4.11661C357.409 4.1189 358.61 4.12759 359.611 4.13597C360.612 4.14435 362.305 4.15374 363.373 4.15687C364.44 4.15997 365.369 4.18031 365.437 4.20204C365.505 4.22379 366.182 4.25441 366.941 4.27019C367.701 4.28594 368.484 4.32871 368.681 4.36522C368.878 4.40173 370.004 4.40966 371.184 4.38287C374.424 4.30925 374.419 4.30904 374.43 4.54369C374.435 4.66346 374.554 4.75649 374.695 4.75044C374.836 4.74438 374.87 4.66639 374.769 4.57711C374.645 4.46642 374.723 4.43994 375.014 4.49389C375.249 4.53741 375.681 4.56269 375.975 4.55008C376.336 4.5346 376.525 4.62102 376.558 4.81594C376.617 5.16112 376.486 5.18342 375.988 4.91314C375.468 4.63103 374.902 4.67814 375.086 4.98822C375.176 5.14095 375.152 5.17739 375.022 5.08296C374.877 4.97838 374.194 4.9869 372.877 5.10974C370.609 5.32117 368.892 5.36346 365.726 5.28586C364.457 5.25475 362.818 5.2199 362.084 5.2084C361.349 5.19692 360.62 5.16806 360.463 5.14425C360.306 5.12047 360.119 5.20281 360.047 5.32721C359.949 5.49476 359.721 5.53627 359.165 5.48725C358.293 5.41026 357.733 5.39077 355.417 5.35663C354.483 5.34285 353.652 5.31034 353.571 5.2844C353.398 5.22912 350.158 5.35786 345.722 5.59631C342.908 5.74757 340.918 5.74969 339.428 5.603C338.588 5.52036 332.746 5.71973 332.751 5.8309C332.754 5.88807 333.493 5.95045 334.395 5.96955C335.297 5.98866 336.253 6.0207 336.521 6.04076C338.399 6.1815 343.415 6.21432 347.443 6.11224C348.376 6.0886 349.257 6.10853 349.4 6.15654C349.638 6.23638 357.069 6.26473 357.464 6.18732C357.558 6.16887 358.455 6.16441 359.456 6.1774C361.004 6.19746 364.956 6.20194 365.947 6.18477C366.305 6.17854 366.355 6.36413 366.032 6.49989C365.8 6.59731 363.976 6.69583 362.321 6.70027C361.815 6.70162 361.31 6.62054 361.197 6.52009C361.044 6.38421 360.627 6.37834 359.567 6.49716C358.783 6.585 358.07 6.68597 357.983 6.72157C357.895 6.75717 357.653 6.69429 357.446 6.58184C357.239 6.46941 357.014 6.43581 356.946 6.50722C356.815 6.64577 351.925 6.79906 350.501 6.70924C350.033 6.67968 349.209 6.66092 348.67 6.66756C348.131 6.6742 347.446 6.61269 347.148 6.5309C346.714 6.41199 346.607 6.42104 346.613 6.57603C346.618 6.69013 346.299 6.79943 345.836 6.84174C343.925 7.01656 341.244 7.12282 339.115 7.10818C337.583 7.09766 336.93 7.13519 337.171 7.22006C338.142 7.56225 336.359 7.82811 333.562 7.75822C331.082 7.69625 330.639 7.70638 329.575 7.84947C329.025 7.9233 328.252 7.94579 327.855 7.89943C326.811 7.77736 321.407 7.71374 319.005 7.79525C317.872 7.8337 316.235 7.85087 315.367 7.83345C314.499 7.81603 312.752 7.81267 311.485 7.826C310.218 7.83932 307.215 7.83838 304.812 7.82389C302.409 7.80941 298.837 7.82251 296.874 7.85304C293.674 7.90278 293.289 7.93431 293.159 8.15695C293.036 8.36871 292.617 8.42153 290.317 8.51496C288.833 8.5753 287.131 8.69859 286.534 8.78909L285.45 8.95365L287.273 9.03756C288.276 9.08371 289.478 9.10332 289.944 9.08111C290.41 9.05874 292.322 9.07643 294.192 9.12004C296.062 9.16363 299.611 9.18572 302.08 9.1691C304.548 9.15247 306.811 9.15972 307.109 9.18523C307.407 9.21074 309.863 9.20036 312.567 9.16217C317.427 9.09354 320.833 9.06157 323.427 9.06026C324.161 9.05988 326.678 9.0436 329.021 9.02408C331.363 9.00455 333.438 9.01092 333.631 9.03825C333.825 9.06557 334.203 9.12799 334.472 9.17694C334.741 9.2259 335.381 9.26609 335.894 9.26629C336.407 9.26651 336.957 9.3648 337.117 9.48478C337.348 9.65801 337.981 9.68604 340.194 9.62094C341.726 9.57585 343.09 9.57448 343.226 9.61784C343.361 9.66121 344.291 9.69995 345.292 9.70393C350.077 9.72295 354.859 9.69997 357.057 9.6474C358.391 9.61552 361.23 9.62867 363.367 9.67663C365.504 9.72459 368.235 9.74341 369.435 9.71846C377.74 9.54577 384.377 9.49235 387.869 9.57007C389.071 9.59684 391.177 9.61266 392.549 9.60523C393.92 9.59782 395.103 9.64512 395.176 9.71035C395.249 9.7756 394.949 9.84974 394.508 9.87515C394.068 9.90062 393.4 9.94792 393.025 9.98045C392.65 10.0129 392.293 9.99563 392.233 9.94194C392.172 9.88826 391.723 9.92827 391.235 10.0309C390.739 10.135 389.644 10.2051 388.756 10.1896C387.882 10.1743 383.242 10.3046 378.445 10.4792C373.648 10.6537 367.924 10.8316 365.724 10.8744C361.802 10.9506 360.694 11.0545 363.271 11.1043C363.986 11.1181 364.625 11.1587 364.691 11.1946C364.868 11.2907 363.994 11.5849 363.262 11.6754C362.408 11.7809 362.146 11.9764 362.879 11.9607C363.201 11.9538 364.884 11.9483 366.619 11.9484C368.354 11.9485 371.764 11.9018 374.197 11.8446C378.197 11.7506 378.622 11.7651 378.632 11.9951C378.645 12.3144 379.624 12.3481 385.505 12.2317C387.877 12.1847 389.877 12.199 389.949 12.2634C390.022 12.3278 390.558 12.36 391.142 12.3349C393.132 12.2495 392.591 12.6743 390.161 13.1058C389.475 13.2276 388.551 13.3308 388.108 13.3351C385.155 13.3637 385.941 13.6163 389.26 13.7051C390.596 13.7408 392.453 13.769 393.387 13.7676C394.321 13.7663 396.015 13.7905 397.15 13.8215C398.286 13.8525 400.579 13.8625 402.247 13.8437C404.3 13.8205 405.359 13.8675 405.529 13.9893C405.667 14.0889 406.537 14.1788 407.478 14.1909C408.413 14.2029 409.29 14.2878 409.428 14.3795C409.565 14.4713 410.475 14.5563 411.45 14.5684C412.426 14.5805 413.472 14.6759 413.775 14.7804C414.123 14.9001 415.175 14.9576 416.62 14.9359C419.736 14.8891 422.181 14.9481 422.321 15.0734C422.469 15.205 420.357 15.4928 420.026 15.3861C419.89 15.3423 419.782 15.3685 419.785 15.4441C419.789 15.5198 420.175 15.6082 420.643 15.6407C421.568 15.7047 421.75 15.8778 421.086 16.0624C420.302 16.2803 421.422 16.524 423.923 16.6799C426.024 16.8109 427.357 17.027 426.395 17.0804C425.49 17.1307 426.898 17.3266 428.357 17.3534C429.223 17.3693 430.061 17.4399 430.22 17.5102C430.378 17.5806 431.199 17.6751 432.045 17.7203C434.396 17.8458 434.378 18.0285 431.995 18.2435C431.105 18.3238 430.294 18.4833 430.055 18.6255C429.718 18.8249 429.298 18.8651 427.759 18.845C424.629 18.8042 424.012 18.8648 423.559 19.2574C423.337 19.4495 423.205 19.6504 423.265 19.7037C423.325 19.7571 424.111 19.815 425.011 19.8324C425.911 19.8497 426.759 19.9105 426.895 19.9675C427.031 20.0244 427.661 20.095 428.297 20.1243C430.04 20.2047 429.692 20.4251 427.686 20.5112C426.709 20.5531 425.83 20.64 425.732 20.7042C425.633 20.7684 424.62 20.861 423.479 20.91C422.036 20.9719 421.375 21.0556 421.309 21.1849C421.243 21.3123 421.505 21.3586 422.141 21.3318C422.652 21.3102 423.453 21.3363 423.923 21.3896C424.392 21.4428 425.7 21.4881 426.83 21.4902C427.96 21.4923 429.01 21.5499 429.163 21.6182C429.316 21.6865 429.504 21.7016 429.579 21.6517C429.655 21.6019 429.973 21.6045 430.285 21.6575C430.724 21.732 430.468 21.7916 429.162 21.9192C427.621 22.0697 425.868 22.3572 424.946 22.6108C424.36 22.7717 425.286 22.8812 428.055 22.9784C429.425 23.0265 430.547 23.1046 430.55 23.152C430.552 23.1994 431.26 23.1807 432.125 23.1105C433.388 23.0079 433.698 23.0245 433.706 23.195C433.717 23.4581 432.969 23.9214 432.505 23.9383C432.22 23.9487 432.223 23.9238 432.518 23.7945C432.822 23.6615 432.811 23.6406 432.444 23.6545C432.206 23.6634 431.952 23.7749 431.878 23.9023C431.763 24.0995 431.326 24.1404 428.925 24.1787C425.916 24.2266 425.181 24.3544 425.752 24.7305C426.708 25.3606 430.521 25.9164 433.121 25.8049C434.691 25.7375 435.519 25.8783 435.534 26.2155C435.541 26.3842 435.155 26.4441 433.666 26.5052C432.633 26.5477 431.35 26.5322 430.813 26.471C430.277 26.4098 427.762 26.4191 425.225 26.4918C420.738 26.6203 420.611 26.6319 420.588 26.9173C420.565 27.198 420.869 27.3864 421.391 27.4145C421.525 27.4217 422.574 27.4931 423.724 27.5732C427.485 27.8354 430.82 27.9503 434.227 27.9351C437.384 27.9211 438.466 28.0413 438.154 28.3711C438.083 28.4464 437.919 28.4739 437.79 28.4322C437.66 28.3905 437.588 28.4416 437.629 28.5458C437.671 28.6505 437.515 28.7344 437.282 28.7334C437.05 28.7324 436.914 28.7801 436.981 28.8394C437.048 28.8988 436.734 29.0048 436.284 29.075C435.312 29.2269 435.091 29.4985 435.61 29.9055C435.887 30.1223 435.921 30.2572 435.736 30.4028C435.434 30.6416 435.644 30.7871 436.254 30.7609C436.499 30.7504 436.7 30.7692 436.701 30.8026C436.702 30.836 436.781 30.9732 436.875 31.1075C437.033 31.3319 436.871 31.3515 434.884 31.3481C433.694 31.3461 432.31 31.3232 431.809 31.2972C431.083 31.2596 430.899 31.2962 430.907 31.4764C430.912 31.6009 430.743 31.7693 430.532 31.8505C429.985 32.0603 430.354 32.8825 431.056 33.0208C431.559 33.1196 431.561 33.1265 431.1 33.1648C430.617 33.205 430.617 33.205 431.107 33.309C431.584 33.4104 430.927 33.4907 428.452 33.6333C427.419 33.6927 426.644 33.9218 426.654 34.1644C426.66 34.294 426.413 34.3839 425.997 34.4029C425.631 34.4199 425.085 34.4839 424.785 34.5455C424.272 34.6506 424.265 34.6686 424.676 34.8345C424.917 34.9318 425.412 35.0007 425.776 34.9876C426.141 34.9746 427.168 35.1615 428.059 35.4033C428.957 35.6471 430.031 35.8277 430.471 35.8088C431.938 35.7458 434.236 35.8324 434.127 35.9466C434.068 36.009 434.205 36.0431 434.431 36.0224C434.657 36.0017 434.886 36.0957 434.939 36.2313C435.063 36.546 433.657 37.158 432.916 37.1119C432.62 37.0934 432.341 37.1513 432.296 37.2404C432.191 37.4507 429.366 37.6301 428.228 37.4988C427.745 37.4431 425.262 37.4693 422.711 37.5571C418.397 37.7056 417.129 37.8343 418.75 37.959C419.118 37.9874 419.912 38.056 420.515 38.1116C421.118 38.1672 422.075 38.1956 422.641 38.1747C423.207 38.1539 423.674 38.2022 423.677 38.2821C423.68 38.3619 423.854 38.4199 424.062 38.411C424.271 38.402 424.668 38.4569 424.946 38.5329C425.444 38.6695 425.443 38.6731 424.883 38.8671C423.903 39.2066 424.222 39.4735 425.906 39.7201C426.77 39.8466 427.531 40.043 427.599 40.1565C427.666 40.27 427.819 40.3966 427.939 40.4379C428.316 40.5677 427.891 41.0346 427.468 40.9562C427.254 40.9165 427.148 40.9213 427.231 40.9669C427.315 41.0124 427.116 41.226 426.789 41.4417C426.359 41.7254 425.908 41.8528 425.159 41.9024C424.589 41.9401 424.169 42.0117 424.225 42.0616C424.281 42.1116 423.283 42.1651 422.006 42.1807C420.151 42.2034 419.606 42.2567 419.289 42.4466C418.848 42.7103 416.474 42.9132 415.226 42.7937C414.749 42.7481 414.404 42.7833 414.306 42.8876C414.219 42.9794 413.89 43.0655 413.576 43.079C412.848 43.1103 412.245 43.2757 412.252 43.4423C412.255 43.5136 412.415 43.5651 412.609 43.5569C412.802 43.5486 413.057 43.6369 413.175 43.7531C413.308 43.8842 414.263 44.0284 415.69 44.1331C418.502 44.3393 420.584 44.7499 420.402 45.0625C420.332 45.1825 420.118 45.2517 419.927 45.2163C419.736 45.1808 419.643 45.2083 419.72 45.2772C419.798 45.3462 419.584 45.6184 419.245 45.8822C418.792 46.2352 418.5 46.3428 418.139 46.29C417.867 46.2503 417.712 46.2746 417.79 46.3446C417.868 46.4141 417.553 46.4937 417.09 46.5215C416.628 46.5492 415.489 46.7171 414.56 46.8946L412.87 47.2173L413.426 47.5393C413.732 47.7164 414.083 47.8569 414.206 47.8516C414.329 47.8463 414.808 47.9324 415.271 48.0428C416.078 48.2353 416.098 48.258 415.759 48.596C415.536 48.8182 415.497 48.978 415.652 49.0283C415.789 49.0721 415.833 49.1788 415.751 49.2653C415.655 49.3668 415.524 49.356 415.382 49.2348C415.239 49.1129 415.1 49.1017 414.986 49.2028C414.89 49.2886 414.488 49.4673 414.093 49.6L413.376 49.8412L414.144 49.8576C414.977 49.8754 415.436 50.2289 414.841 50.3931C414.639 50.4486 414.413 50.4605 414.337 50.4195C414.262 50.3786 413.843 50.4828 413.406 50.6511C412.969 50.8194 412.199 51.0215 411.695 51.1001C411.191 51.1788 410.636 51.3374 410.461 51.4526C410.047 51.7255 409.881 51.727 407.616 51.4786C405.583 51.2557 405.015 51.309 404.206 51.7985C403.749 52.0747 403.561 52.0954 402.29 52.0095C400.622 51.8968 397.494 52.0075 397.679 52.1726C397.75 52.2361 398.607 52.3352 399.583 52.3928C402.07 52.5396 402.351 52.582 401.951 52.75C401.257 53.0413 404.439 53.5222 407.532 53.5934C408.367 53.6127 409.105 53.6774 409.173 53.7372C409.24 53.797 409.074 54.03 408.803 54.2549C408.35 54.6326 408.343 54.6822 408.713 54.9054C408.934 55.0383 409.116 55.1828 409.118 55.2265C409.126 55.4059 405.014 55.3238 403.654 55.1173C401.699 54.8205 397.762 54.7116 397.408 54.9446C397.221 55.0678 397.224 55.1667 397.417 55.2941C397.678 55.4661 398.07 55.5277 401.322 55.9079C402.336 56.0264 402.849 56.1592 402.856 56.3047C402.864 56.4886 402.579 56.5201 401.064 56.5029C399.91 56.4898 399.209 56.5388 399.114 56.6392C399.033 56.7255 399.099 56.7903 399.263 56.7833C399.426 56.7763 399.505 56.8068 399.437 56.8511C399.279 56.9554 395.831 56.6711 395.483 56.5251C395.209 56.4103 391.659 56.2355 390.906 56.2998C390.673 56.3197 390.486 56.4177 390.49 56.5177C390.495 56.6176 390.445 56.7898 390.381 56.9004C390.27 57.0915 393.244 57.3404 398.36 57.5684C399.129 57.6026 400.157 57.7126 400.645 57.8128C401.132 57.913 401.873 57.9807 402.289 57.9632C403.386 57.9175 404.974 58.1372 404.726 58.3007C404.611 58.3764 403.139 58.5162 401.456 58.6112C399.772 58.7063 398.413 58.7944 398.435 58.807C398.458 58.8196 399.021 58.9336 399.686 59.0603C400.843 59.281 400.872 59.2992 400.355 59.4897C399.95 59.6389 399.512 59.6628 398.602 59.5852C397.119 59.4589 396.925 59.4648 396.933 59.6352C396.936 59.7087 397.266 59.7977 397.666 59.833C398.998 59.9505 398.719 60.1518 397.131 60.22C396.206 60.2597 395.275 60.3919 394.827 60.5472C394.374 60.7043 393.86 60.7764 393.534 60.7288C392.838 60.627 381.465 61.0649 381.603 61.1882C381.897 61.4494 378.719 61.5843 375.996 61.4262C370.482 61.1063 365.798 60.991 362.784 61.101C361.118 61.1618 358.607 61.1709 357.204 61.1212C355.801 61.0715 353.302 61.0213 351.652 61.0097C350.001 60.998 348.581 60.9663 348.494 60.9393C348.408 60.9122 347.519 60.8834 346.517 60.8753C345.516 60.8672 344.314 60.8494 343.847 60.8356C342.873 60.8069 338.448 60.8489 335.236 60.9173C332.913 60.9667 329.381 60.9845 326.989 60.9589C326.188 60.9503 323.079 61.0207 320.08 61.1152C317.082 61.2098 313.536 61.2804 312.201 61.2722C310.866 61.2639 307.18 61.375 304.01 61.519C299.216 61.7368 298.209 61.8185 298.026 62.0047C297.839 62.1946 297.771 62.1992 297.579 62.0353C297.428 61.9066 297.115 61.881 296.64 61.9586C296.248 62.0228 295.806 62.0089 295.656 61.9276C295.507 61.8465 295.024 61.7817 294.584 61.7838C294.143 61.7858 293.563 61.7581 293.295 61.7223C291.832 61.527 290.317 61.5169 289.714 61.6986C289.231 61.8445 288.004 61.7494 288.165 61.5785C288.225 61.5156 287.055 61.4988 285.565 61.5413C281.554 61.6555 281.137 61.647 280.674 61.4408C280.297 61.2731 280.261 61.2831 280.345 61.5313C280.408 61.7204 280.321 61.7987 280.073 61.7743C279.872 61.7545 279.463 61.7476 279.163 61.7589C278.863 61.7701 278.616 61.7292 278.613 61.6679C278.61 61.6066 278.431 61.5235 278.214 61.4834C277.928 61.4303 277.862 61.4708 277.975 61.6311C278.082 61.7832 278.035 61.8203 277.825 61.7504C277.657 61.6946 276.484 61.6729 275.217 61.7022C272.554 61.7637 272.95 61.7474 260.443 62.3107C255.182 62.5476 250.201 62.7232 249.375 62.7009C248.549 62.6786 247.692 62.7103 247.47 62.7714C247.062 62.884 239.158 63.4107 236.726 63.4875C234.824 63.5476 232.697 64.31 233.906 64.4982C234.087 64.5262 233.968 64.6342 233.615 64.7627C233.286 64.8822 232.96 65.0377 232.889 65.1083C232.632 65.3633 230.581 65.5875 229.989 65.4252C229.616 65.323 228.639 65.3224 227.107 65.4236C225.832 65.5078 221.644 65.7463 217.799 65.9535C213.955 66.1607 210.546 66.3814 210.225 66.4439C209.903 66.5065 208.531 66.6153 207.174 66.6858C205.818 66.7562 204.493 66.8967 204.231 66.9979C203.761 67.1789 201.526 67.5389 201.148 67.4945C200.681 67.4398 199.821 67.4955 199.041 67.6309C198.578 67.7114 197.98 67.7757 197.713 67.7737C197.446 67.7718 197.009 67.768 196.742 67.7654C196.475 67.7628 195.224 67.8817 193.963 68.0298C192.701 68.1779 191.198 68.3179 190.622 68.341C190.046 68.3641 189.449 68.4502 189.296 68.5325C189.142 68.6148 188.665 68.7427 188.234 68.8168C187.593 68.927 187.449 68.9068 187.441 68.7058C187.431 68.4881 187.23 68.4804 185.679 68.6382C184.715 68.7362 182.184 68.9062 180.054 69.0161C177.923 69.1259 175.596 69.3178 174.883 69.4424C174.169 69.567 173.532 69.6712 173.468 69.6739C173.403 69.6767 173.49 69.7712 173.661 69.8838C173.832 69.9965 174.34 70.0728 174.79 70.0535C175.24 70.0342 175.609 70.0457 175.61 70.0791C175.612 70.1125 175.684 70.2404 175.77 70.3632C175.985 70.6695 175.302 70.6833 174.75 70.3838C174.438 70.2141 174.292 70.2004 174.225 70.3345C174.174 70.4365 174.031 70.4872 173.907 70.4473C173.783 70.4075 173.684 70.4277 173.687 70.4923C173.69 70.5569 173.447 70.6283 173.148 70.6509C172.849 70.6736 171.19 70.8268 169.462 70.9915C167.735 71.1562 164.251 71.406 161.722 71.5466C159.192 71.6872 156.852 71.8498 156.521 71.9079C155.399 72.1046 149.21 72.7149 145.889 72.9561C139.737 73.4031 135.09 74.1317 134.154 74.7959C133.861 75.0036 133.337 75.1837 132.956 75.2075C129.824 75.4031 125.481 75.7855 123.578 76.0332C122.781 76.1368 121.383 76.2938 120.471 76.382C119.559 76.4702 118.268 76.6281 117.602 76.7328C116.936 76.8376 116.352 76.925 116.304 76.9271C116.255 76.9292 116.209 76.7637 116.2 76.5594L116.2 76.5596ZM116.143 75.2387C116.136 75.0799 116.029 75.0726 115.666 75.2065C115.385 75.3098 115.257 75.4652 115.346 75.5926C115.462 75.7569 115.571 75.7643 115.824 75.6248C116.004 75.5253 116.148 75.3515 116.143 75.2387ZM156.86 71.3279C157.798 71.0835 157.774 71.0816 155.764 71.2388C151.16 71.5987 149.72 71.7428 149.724 71.8429C149.732 72.0323 155.85 71.5907 156.86 71.3279ZM44.2866 74.4031C44.2853 74.3717 44.1207 74.3531 43.9209 74.3617C43.7211 74.3702 43.5603 74.4405 43.5636 74.5179C43.567 74.5952 43.7315 74.6139 43.9294 74.5593C44.1272 74.5048 44.288 74.4345 44.2866 74.4031ZM61.8244 73.1569C61.9054 73.0713 61.7043 73.0166 61.3623 73.0313C61.0293 73.0456 60.6923 73.1255 60.6134 73.2089C60.5324 73.2945 60.7334 73.3492 61.0754 73.3345C61.4084 73.3202 61.7455 73.2403 61.8244 73.1569ZM50.2884 72.9079C50.282 72.7581 49.9914 72.7564 49.4588 72.9033C48.8571 73.0691 49.0277 73.2365 49.6914 73.1315C50.0228 73.079 50.2914 72.9784 50.2884 72.9079ZM187.328 67.0025C188.148 66.829 188.26 66.7711 187.85 66.7308C187.2 66.6667 179.502 67.1914 175.382 67.5808C174.262 67.6865 182.934 67.4553 184.713 67.332C185.578 67.272 186.754 67.1237 187.328 67.0025ZM195.704 66.1953C195.969 66.1461 195.477 66.1416 194.612 66.1853C192.546 66.2895 191.733 66.458 193.048 66.5095C193.583 66.5304 194.291 66.4885 194.622 66.4162C194.952 66.3439 195.439 66.2446 195.704 66.1953L195.704 66.1953ZM41.1471 72.8716C41.6454 72.8415 41.6419 72.8341 41.0761 72.724C40.409 72.5942 39.8459 72.6973 39.8567 72.9472C39.8606 73.0383 40.0341 73.0655 40.2431 73.0079C40.4517 72.9504 40.8585 72.8891 41.1471 72.8716ZM199.337 65.9184C199.4 65.8768 198.967 65.8526 198.375 65.8645C197.783 65.8765 197.226 65.9626 197.138 66.0558C197.025 66.1749 197.311 66.191 198.1 66.1097C198.717 66.0461 199.274 65.96 199.337 65.9184ZM388.652 56.0752C388.74 55.9814 388.352 55.9492 387.631 55.9908C386.598 56.0504 386.549 56.0669 387.198 56.1376C388.265 56.2538 388.492 56.244 388.652 56.0752ZM15.2678 69.9652C15.0912 69.9308 14.8825 69.9449 14.8041 69.9966C14.7257 70.0483 14.8702 70.0765 15.1253 70.0592C15.4071 70.0401 15.463 70.0033 15.2678 69.9652L15.2678 69.9652ZM18.1205 69.6513C18.6032 69.5369 18.626 69.5123 18.2364 69.5256C17.9699 69.5346 17.5363 69.6076 17.2728 69.6876C16.6625 69.8731 17.2992 69.8458 18.1205 69.6513ZM21.3727 69.5688C21.5813 69.5113 21.747 69.3468 21.7408 69.2033C21.7313 68.9809 21.5778 68.9602 20.7036 69.0635C19.5943 69.1947 18.8787 69.4733 19.7469 69.436C20.0321 69.4238 20.3356 69.4762 20.4213 69.5525C20.6008 69.7122 20.8378 69.7163 21.3727 69.5688ZM414.724 50.1566C414.72 50.0767 414.527 50.0206 414.294 50.0318C413.932 50.0492 413.924 50.0704 414.239 50.1774C414.704 50.3348 414.731 50.3336 414.724 50.1566ZM27.0097 60.8801C26.8331 60.8456 26.6244 60.8597 26.546 60.9114C26.4676 60.9631 26.6121 60.9913 26.8672 60.974C27.149 60.9549 27.2049 60.9181 27.0097 60.8801L27.0097 60.8801ZM25.0086 60.5416C24.9985 60.305 24.3237 60.3073 23.4475 60.5469C22.4936 60.8078 22.7289 60.9525 23.9297 60.8435C24.6594 60.7772 25.0145 60.6779 25.0086 60.5416ZM29.5117 60.4532C29.2598 60.2291 28.3912 60.2064 28.4005 60.4243C28.4058 60.5465 28.6579 60.6178 29.029 60.6019C29.3699 60.5872 29.5871 60.5203 29.5117 60.4532ZM27.6702 60.3693C27.936 60.253 27.7948 60.2224 27.1192 60.2497C26.6196 60.2698 26.2137 60.3518 26.2171 60.4317C26.225 60.6166 27.2008 60.5747 27.6702 60.3693ZM430.674 26.0555C430.671 25.9756 430.559 25.915 430.425 25.9207C430.292 25.9264 430.186 25.9964 430.19 26.0762C430.193 26.1561 430.305 26.2167 430.438 26.211C430.571 26.2053 430.677 26.1353 430.674 26.0555ZM432.314 23.2708C432.145 23.2376 431.873 23.2493 431.708 23.2967C431.543 23.3442 431.681 23.3713 432.014 23.357C432.347 23.3427 432.482 23.3039 432.314 23.2708ZM428.606 21.6782C428.304 21.6565 427.814 21.6776 427.516 21.725C427.218 21.7725 427.464 21.7903 428.063 21.7646C428.663 21.7388 428.907 21.7 428.606 21.6782ZM417.354 20.987C417.351 20.9249 416.447 20.8351 415.344 20.7876C414.241 20.7401 413.074 20.6672 412.751 20.6256C412.386 20.5786 412.222 20.602 412.318 20.6873C412.403 20.7628 413.435 20.8665 414.61 20.9178C415.786 20.9691 416.858 21.0271 416.993 21.0467C417.127 21.0663 417.264 21.0863 417.298 21.0912C417.331 21.096 417.357 21.0492 417.354 20.987ZM64.0607 34.8091C64.4884 34.6791 64.4699 34.6654 63.8875 34.6813C63.5288 34.6911 63.1708 34.7673 63.0919 34.8507C62.9206 35.0317 63.3952 35.0113 64.0607 34.8091ZM415.565 18.8705C415.562 18.8019 414.462 18.7182 413.122 18.6845C410.102 18.6084 409.561 18.6275 409.877 18.7988C410.009 18.8707 411.317 18.9364 412.782 18.9447C414.248 18.953 415.475 18.9677 415.509 18.9775C415.542 18.9872 415.568 18.9391 415.565 18.8705L415.565 18.8705ZM50.3619 32.8033C50.4276 32.7338 50.3228 32.6838 50.1288 32.6921C49.9349 32.7004 49.7785 32.7617 49.7814 32.8282C49.7842 32.8947 49.8891 32.9448 50.0145 32.9394C50.1398 32.934 50.2961 32.8728 50.3619 32.8033ZM82.7533 31.144C82.5766 31.1096 82.3679 31.1237 82.2895 31.1754C82.2111 31.2271 82.3557 31.2553 82.6107 31.238C82.8925 31.2189 82.9484 31.182 82.7533 31.144L82.7533 31.144ZM45.16 32.566C45.1566 32.4861 44.9631 32.43 44.73 32.4412C44.3679 32.4586 44.36 32.4798 44.6756 32.5868C45.1403 32.7442 45.1676 32.743 45.16 32.566ZM46.119 32.2981C46.1175 32.2629 46.0073 32.2387 45.8741 32.2444C45.7409 32.2502 45.6349 32.324 45.6385 32.4086C45.6421 32.4931 45.7524 32.5173 45.8835 32.4622C46.0145 32.4071 46.1206 32.3333 46.119 32.2981ZM59.8806 30.6947C60.2112 30.6247 61.2423 30.48 62.1718 30.3734C63.1014 30.2667 64.2405 30.094 64.703 29.9896C65.1656 29.8852 65.5444 29.8052 65.5447 29.8119C65.547 29.8676 67.1926 29.4857 68.0072 29.2405C69.243 28.8685 69.3114 28.6205 68.1646 28.6697C67.5726 28.6952 67.3141 28.6404 67.3076 28.4884C67.298 28.2651 68.3782 28.1303 70.1808 28.1298C70.9661 28.1296 73.1918 27.7834 73.6962 27.583C74.0729 27.4334 72.8443 27.3356 71.2493 27.3883C70.2116 27.4225 69.3322 27.5627 68.2515 27.8661C67.4103 28.1022 66.4975 28.306 66.2231 28.319C65.8258 28.3379 65.797 28.3667 66.0817 28.4609C66.2783 28.5259 66.5247 28.5432 66.6292 28.4993C66.7338 28.4554 66.822 28.4812 66.8253 28.5567C66.8309 28.6867 66.3047 28.8012 64.463 29.0709C64.0218 29.1355 63.6059 29.2828 63.5388 29.3983C63.4391 29.5699 63.346 29.5774 63.0285 29.4393C62.7033 29.2979 62.665 29.3066 62.7927 29.4931C62.9042 29.656 62.8049 29.7152 62.423 29.7138C62.1358 29.7128 61.5417 29.7868 61.1028 29.8782C60.5494 29.9934 60.1963 29.996 59.9507 29.8867C59.7515 29.7981 59.5992 29.7918 59.6026 29.8723C59.6095 30.0325 57.7838 30.5697 57.1386 30.5974C56.9099 30.6072 56.7267 30.7046 56.7314 30.8137C56.7377 30.9615 57.0642 30.988 58.0097 30.9172C58.708 30.865 59.5499 30.7649 59.8806 30.6948L59.8806 30.6947ZM69.6175 25.0021C69.4413 24.9747 69.1849 25.0262 69.0478 25.1167C68.8727 25.2321 68.9681 25.2469 69.3682 25.1665C69.6935 25.1011 69.8005 25.0306 69.6175 25.0021ZM362.126 11.8714C362.124 11.8116 361.79 11.7629 361.385 11.7633C360.964 11.7636 360.713 11.821 360.799 11.8975C360.975 12.054 362.134 12.0313 362.126 11.8714ZM70.2471 23.4826L70.8521 23.4454L70.2813 23.3339C69.6365 23.208 68.5439 23.3732 68.5534 23.5952C68.5569 23.6762 68.8016 23.692 69.1009 23.6307C69.3985 23.5697 69.9143 23.503 70.2471 23.4826ZM360.151 11.0714C360.148 11.0049 359.983 10.9575 359.783 10.966C359.583 10.9746 359.422 11.0361 359.425 11.1026C359.428 11.1691 359.593 11.2166 359.793 11.208C359.993 11.1994 360.154 11.138 360.151 11.0714ZM361.166 11.0497C360.99 11.0153 360.781 11.0294 360.703 11.0811C360.624 11.1328 360.769 11.1609 361.024 11.1437C361.306 11.1246 361.362 11.0877 361.166 11.0497L361.166 11.0497ZM74.3996 23.0668C74.2229 23.0323 74.0142 23.0465 73.9358 23.0981C73.8574 23.1498 74.0019 23.178 74.257 23.1607C74.5388 23.1417 74.5947 23.1048 74.3995 23.0668L74.3996 23.0668ZM47.2205 24.0418C47.2171 23.9619 47.1053 23.9013 46.9721 23.907C46.8389 23.9127 46.7327 23.9827 46.7361 24.0625C46.7396 24.1424 46.8513 24.2031 46.9846 24.1973C47.1178 24.1916 47.2239 24.1216 47.2205 24.0418ZM53.5012 23.3908C53.4942 23.2281 53.0455 23.3903 52.9239 23.5994C52.8049 23.8041 52.8407 23.8116 53.1425 23.6449C53.3411 23.5353 53.5024 23.4209 53.5012 23.3908ZM55.9238 23.3046C55.9187 23.1848 55.8716 23.0887 55.8193 23.0909C55.7669 23.0932 55.6656 23.1957 55.594 23.3188C55.5225 23.4418 55.5695 23.538 55.6986 23.5325C55.8276 23.5269 55.929 23.4244 55.9238 23.3046ZM372.785 4.73328C372.608 4.69884 372.399 4.71298 372.321 4.76464C372.242 4.81634 372.387 4.84452 372.642 4.82724C372.924 4.80819 372.98 4.77131 372.785 4.73326L372.785 4.73328ZM149.666 11.3645C149.739 11.2869 149.698 11.1909 149.575 11.1511C149.452 11.1113 149.292 11.1791 149.221 11.3017C149.081 11.5434 149.447 11.5952 149.666 11.3645ZM37.3824 78.6056C37.2387 78.5118 37.2161 78.429 37.3323 78.4216C37.4484 78.4142 37.3365 78.3459 37.0837 78.2698C36.4352 78.0747 36.9931 77.8596 38.2461 77.8217C38.9006 77.8019 39.0594 77.8298 38.7351 77.9076C38.2775 78.0173 37.9493 78.4017 38.3308 78.3811C39.0416 78.3428 39.547 78.1311 39.427 77.9218C39.3098 77.7174 39.3388 77.718 39.6527 77.9264C40.0793 78.2096 41.9247 78.1859 42.0718 77.8953C42.1465 77.7477 42.245 77.7445 42.5504 77.8796C43.0319 78.0925 43.3344 78.6472 42.9302 78.5759C42.7727 78.5481 42.6753 78.4358 42.7139 78.3264C42.7629 78.1873 42.6523 78.2064 42.3462 78.3899C41.9966 78.5994 41.4789 78.6647 39.776 78.7143C38.4218 78.7536 37.5482 78.714 37.3824 78.6057L37.3824 78.6056ZM34.044 78.4284C33.7162 78.3227 33.8575 77.9934 34.2376 77.977C34.5139 77.9652 34.774 78.3647 34.551 78.4584C34.4522 78.4999 34.224 78.4864 34.044 78.4284ZM39.1181 77.0404C38.8392 76.7947 38.8656 76.7578 39.3492 76.7174C39.6495 76.6923 40.0582 76.6541 40.2575 76.6325C40.9017 76.5626 41.029 76.69 40.615 76.9905C40.092 77.3702 39.5145 77.3894 39.1181 77.0404ZM185.783 69.6633C185.782 69.628 185.888 69.5542 186.019 69.4991C186.15 69.444 186.26 69.4682 186.264 69.5527C186.268 69.6373 186.162 69.7112 186.028 69.7169C185.895 69.7226 185.785 69.6985 185.783 69.6633ZM188.621 69.4421C188.781 69.3359 188.974 69.2829 189.051 69.3243C189.127 69.3659 188.996 69.4528 188.76 69.5176C188.418 69.6112 188.39 69.5957 188.621 69.4421ZM58.6116 74.6216C58.6086 74.5515 58.7707 74.4034 58.9717 74.2923C59.2559 74.1354 59.4036 74.1264 59.6352 74.2521C59.8668 74.3778 59.854 74.4477 59.5778 74.5662C59.1285 74.7589 58.6188 74.7881 58.6116 74.6216L58.6116 74.6216ZM331.989 61.5615C331.985 61.4817 332.139 61.4096 332.331 61.4014C332.523 61.3931 332.751 61.4488 332.836 61.5251C332.922 61.6014 332.768 61.6735 332.494 61.6853C332.219 61.6971 331.992 61.6414 331.989 61.5615ZM327.865 61.584C327.858 61.4188 328.508 61.374 328.68 61.5279C328.748 61.5883 328.594 61.6564 328.337 61.679C328.081 61.7017 327.868 61.6589 327.865 61.584ZM87.6723 71.6584C87.4397 71.3273 87.7697 71.263 88.6174 71.4744C89.0596 71.5847 89.3128 71.6894 89.1802 71.7072C88.1634 71.843 87.7936 71.831 87.6723 71.6584ZM297.082 62.3325C297.079 62.2526 297.124 62.1852 297.183 62.1827C297.241 62.1802 297.359 62.2406 297.445 62.3169C297.531 62.3932 297.486 62.4606 297.345 62.4667C297.204 62.4727 297.085 62.4123 297.082 62.3325ZM293.585 62.3567C293.476 62.2599 293.451 62.1388 293.529 62.0874C293.74 61.9482 293.985 62.1292 293.877 62.3447C293.801 62.4958 293.744 62.4981 293.585 62.3564L293.585 62.3567ZM294.474 62.3481C293.973 62.2494 294.117 62.0443 294.646 62.104C294.914 62.1343 295.136 62.2169 295.139 62.2874C295.145 62.4258 294.956 62.443 294.474 62.3481ZM410.554 56.6381C410.268 56.483 410.363 56.3069 410.741 56.2907C410.941 56.2821 411.108 56.3731 411.114 56.4929C411.123 56.7196 410.839 56.7932 410.554 56.6381ZM109.947 68.6491C109.879 68.5887 110.036 68.5205 110.295 68.4975C110.555 68.4747 110.706 68.52 110.632 68.5983C110.468 68.7721 110.114 68.7983 109.947 68.6491ZM112.119 68.3061C112.19 68.1838 112.427 68.0711 112.646 68.0556C112.864 68.04 113.532 67.9768 114.13 67.9151C114.914 67.8343 115.118 67.8483 114.86 67.9655C114.566 68.0996 114.563 68.1259 114.847 68.1155C115.035 68.1088 115.124 68.1467 115.043 68.2C114.962 68.2533 114.242 68.349 113.443 68.4126C112.233 68.509 112.012 68.4912 112.119 68.3061ZM13.266 72.1967C13.0795 72.0307 13.5277 71.839 13.8554 71.9447C14.1306 72.0334 13.964 72.3022 13.6248 72.3167C13.5073 72.3218 13.3459 72.2678 13.266 72.1967ZM15.3944 68.3224C15.3912 68.2472 15.4946 68.1412 15.6242 68.0868C15.7593 68.03 15.8024 68.0866 15.7252 68.2193C15.575 68.4777 15.4034 68.5312 15.3944 68.3224ZM17.1673 68.1714C17.1623 68.0551 17.2523 67.9903 17.3673 68.0274C17.4823 68.0645 17.5162 68.1583 17.4428 68.2359C17.2551 68.4343 17.1778 68.4162 17.1673 68.1714ZM438.412 31.1047C438.209 31.0359 438.152 30.9749 438.285 30.9692C438.418 30.9635 438.694 31.0151 438.897 31.0839C439.1 31.1528 439.157 31.2138 439.024 31.2195C438.891 31.2252 438.616 31.1736 438.412 31.1047ZM40.0299 37.4094C40.0272 37.3466 40.2429 37.2858 40.5093 37.2743C40.7757 37.2629 40.9963 37.3148 40.9996 37.3897C41.0028 37.4646 40.787 37.5254 40.5201 37.5248C40.2532 37.5242 40.0326 37.4723 40.0299 37.4094ZM50.0805 34.842L49.5008 34.5908L50.9451 34.4132C51.7395 34.3156 52.9614 34.2074 53.6603 34.1729C54.3593 34.1383 54.9294 34.0656 54.9272 34.0113C54.9226 33.8983 56.3749 34.0615 56.6064 34.2C56.6905 34.2504 56.4215 34.2677 56.0086 34.2386C55.5464 34.206 54.9901 34.2834 54.5614 34.4397C54.1783 34.5794 53.293 34.7245 52.594 34.7623C51.895 34.8 51.3254 34.8835 51.3282 34.9477C51.3371 35.1558 50.675 35.0997 50.0805 34.8421L50.0805 34.842ZM47.0293 35.0159C47.1077 34.9642 47.3164 34.95 47.493 34.9845C47.6882 35.0225 47.6323 35.0594 47.3505 35.0785C47.0954 35.0957 46.9509 35.0676 47.0293 35.0159L47.0293 35.0159ZM42.5373 33.1997C42.5203 33.0471 42.5738 32.9589 42.6564 33.0037C42.7389 33.0485 42.7529 33.1733 42.6874 33.2811C42.6151 33.4003 42.5562 33.3683 42.5374 33.1997L42.5373 33.1997ZM49.0994 31.6956C49.1642 31.6271 48.9893 31.4661 48.7107 31.3379C48.2123 31.1086 48.2279 31.097 49.6845 30.6157C51.4388 30.036 51.6018 30.0177 51.6182 30.398C51.6258 30.5769 51.468 30.6962 51.2069 30.7088C50.8634 30.7253 50.8491 30.751 51.1314 30.8445C51.3229 30.9079 51.6786 30.9281 51.9219 30.8894C52.1651 30.8507 52.367 30.8856 52.3705 30.967C52.374 31.0484 52.0221 31.1185 51.5886 31.1229C51.1551 31.1273 50.5827 31.1478 50.3167 31.1686C49.9138 31.2 49.8947 31.2272 50.2024 31.3315C50.518 31.4384 50.5101 31.4596 50.148 31.477C49.9149 31.4883 49.7271 31.5628 49.7305 31.6426C49.7339 31.7225 49.5668 31.7951 49.3591 31.804C49.1515 31.8129 49.0346 31.7641 49.0994 31.6956L49.0994 31.6956ZM52.1459 30.3912C51.8986 30.3114 51.9054 30.2505 52.1789 30.0995C52.5624 29.8877 52.882 30.0446 52.6235 30.3177C52.5314 30.4151 52.3207 30.4475 52.1459 30.3912ZM43.4852 24.6384C43.3995 24.5621 43.4928 24.4926 43.6926 24.484C43.8924 24.4755 44.1261 24.5309 44.2118 24.6072C44.2976 24.6835 44.2043 24.753 44.0044 24.7616C43.8046 24.7701 43.571 24.7147 43.4852 24.6384ZM48.4177 23.7755C48.7556 23.5086 48.8947 23.4764 48.9027 23.6631C48.9058 23.7344 48.7312 23.8416 48.5147 23.9012C48.1855 23.992 48.1697 23.9714 48.4177 23.7755ZM390.606 6.74172C390.883 6.55935 392.428 6.35943 392.746 6.46485C392.929 6.52551 392.97 6.58732 392.837 6.60217C391.537 6.74771 390.498 6.81268 390.606 6.74172ZM389.128 6.62571C388.923 6.55779 389.072 6.50914 389.547 6.48877C389.952 6.47139 390.285 6.51161 390.288 6.57815C390.295 6.73267 389.543 6.76349 389.128 6.62557L389.128 6.62571ZM382.893 6.70763C381.85 6.613 379.329 6.62124 374.623 6.73467C373.011 6.77351 371.456 6.74054 371.167 6.66141C370.853 6.57529 369.766 6.57129 368.459 6.65143C367.258 6.72509 366.275 6.7705 366.274 6.75227C366.272 6.70176 367.663 6.21586 367.831 6.20868C367.912 6.2052 367.913 6.27057 367.835 6.35395C367.751 6.4424 368 6.49231 368.432 6.47376C368.839 6.45627 369.17 6.37663 369.167 6.29677C369.163 6.21693 369.276 6.14665 369.417 6.14059C369.558 6.13454 369.595 6.21476 369.499 6.31886C369.371 6.45881 369.415 6.46593 369.668 6.34613C369.857 6.25702 370.229 6.18226 370.496 6.17999C370.763 6.17768 371.56 6.16068 372.268 6.14215C372.976 6.12361 373.506 6.15961 373.447 6.22215C373.388 6.28469 374.01 6.2975 374.829 6.25063C375.648 6.20363 376.512 6.21808 376.748 6.28245C377.035 6.36058 377.176 6.34668 377.171 6.24067C377.168 6.15329 377.298 6.12496 377.462 6.17771C377.625 6.23045 378.691 6.25147 379.83 6.22443C380.968 6.19737 381.9 6.18298 381.901 6.19244C381.901 6.20194 382.447 6.20743 383.114 6.20473C383.781 6.20202 384.355 6.2131 384.389 6.22936C384.447 6.25711 384.699 6.29038 385.121 6.32623C385.315 6.34268 384.196 6.81311 383.989 6.8023C383.922 6.79874 383.429 6.75616 382.893 6.70753L382.893 6.70763ZM373.053 6.40277C373.05 6.33291 372.836 6.28482 372.578 6.29592C372.319 6.30702 372.051 6.37579 371.982 6.44875C371.913 6.52171 372.127 6.56979 372.458 6.5556C372.788 6.54141 373.056 6.47265 373.053 6.40277ZM385.99 5.42701C385.903 5.34945 385.732 5.32793 385.61 5.37919C385.488 5.43046 385.385 5.40706 385.382 5.32722C385.37 5.04614 385.76 5.02491 386.061 5.29032C386.229 5.43794 386.317 5.56082 386.257 5.56339C386.198 5.56596 386.077 5.5046 385.99 5.42706L385.99 5.42701ZM380.781 5.08329C380.519 4.9412 380.256 4.85742 380.196 4.89709C380.136 4.93678 379.557 5.01391 378.909 5.06852C377.787 5.16312 376.381 4.92383 376.726 4.69692C377.001 4.51529 378.675 4.48317 379.049 4.65235C379.431 4.82557 380.113 4.8026 380.41 4.6064C380.66 4.44132 381.897 4.42208 382.075 4.58051C382.318 4.79616 381.993 5.30994 381.604 5.32664C381.414 5.33483 381.043 5.22528 380.781 5.0832L380.781 5.08329ZM383.286 5.08664C383.178 4.99102 383.213 4.96115 383.373 5.01254C383.52 5.05992 383.705 5.02932 383.786 4.94458C384.002 4.71602 384.305 4.74325 384.316 4.99218C384.327 5.24791 383.547 5.31939 383.286 5.08664ZM100.085 16.1581C100.164 16.1063 100.373 16.0922 100.549 16.1267C100.744 16.1647 100.688 16.2016 100.407 16.2207C100.152 16.2379 100.007 16.2098 100.085 16.1581L100.085 16.1581ZM148.766 9.93868C148.762 9.85884 148.807 9.79144 148.866 9.78892C148.925 9.7864 149.043 9.84678 149.129 9.92308C149.215 9.9994 149.169 10.0668 149.028 10.0728C148.887 10.0789 148.769 10.0185 148.766 9.93868ZM154.414 9.71098C154.015 9.55558 154.098 9.30414 154.532 9.35314C154.808 9.38441 154.982 9.31762 155.001 9.17265C155.018 9.04608 155.045 8.84376 155.062 8.72304C155.079 8.60231 155.293 8.48681 155.537 8.46634C155.78 8.44584 156.061 8.41214 156.16 8.39137C156.259 8.37057 156.665 8.28687 157.062 8.20533C157.945 8.02402 158.418 7.78945 158.233 7.62508C158.157 7.55741 158.31 7.49281 158.574 7.48151C158.837 7.47022 159.111 7.54026 159.183 7.63717C159.274 7.7596 159.372 7.7632 159.507 7.64903C159.851 7.35695 160.588 7.23873 160.988 7.41178C161.308 7.55067 161.337 7.54561 161.158 7.38221C160.994 7.23239 161.045 7.20398 161.369 7.26408C161.604 7.3076 161.943 7.33687 162.123 7.32915C162.303 7.32143 162.522 7.43624 162.608 7.5843C162.71 7.75734 162.92 7.82241 163.199 7.7665C163.813 7.64307 163.733 7.28685 163.113 7.38235C162.623 7.45779 162.622 7.45583 163.089 7.3009C163.352 7.2136 163.936 7.12174 164.387 7.09678C164.838 7.07177 165.87 6.95871 166.681 6.84542C168.784 6.55185 174.076 5.96838 176.49 5.76403C177.62 5.66837 179.034 5.54314 179.632 5.48575C180.892 5.36486 183.381 5.15169 186.643 4.88523C187.906 4.78203 189.647 4.63122 190.511 4.55009C192.587 4.35511 195.862 4.20663 196.323 4.28668C196.524 4.32176 197.155 4.38073 197.723 4.41776C198.292 4.45477 198.759 4.53313 198.762 4.59189C198.765 4.65063 198.504 4.87178 198.183 5.08331C197.708 5.39643 197.373 5.47499 196.381 5.50594C195.656 5.52844 195.197 5.60213 195.249 5.68746C195.298 5.76637 196.177 5.80031 197.202 5.76286C198.813 5.70401 199.894 5.84581 199.537 6.06906C199.377 6.16895 196.17 6.39851 196.167 6.3103C196.166 6.26711 195.429 6.28379 194.531 6.34737C193.633 6.41095 192.27 6.43048 191.503 6.3906C190.735 6.35079 190.057 6.35142 189.996 6.39203C189.934 6.4326 189.417 6.49966 188.846 6.54103C188.276 6.5824 187.51 6.67964 187.145 6.75714C186.749 6.84095 186.353 6.84141 186.166 6.75825C185.993 6.68136 184.797 6.64857 183.509 6.68538C181.913 6.73099 181.213 6.70032 181.315 6.58935C181.397 6.49973 181.283 6.52428 181.061 6.64393C180.785 6.79357 180.35 6.8452 179.67 6.80932C179.02 6.77508 178.735 6.80593 178.84 6.89919C179.019 7.05816 178.987 7.06271 176.794 7.19226C175.928 7.24336 174.977 7.34707 174.68 7.42272C174.383 7.49837 174.138 7.50686 174.135 7.44161C174.132 7.37634 173.858 7.33464 173.525 7.34893C173.192 7.36322 172.921 7.42391 172.924 7.4838C172.926 7.54368 172.759 7.59997 172.551 7.60889C172.343 7.6178 172.228 7.56748 172.295 7.49702C172.456 7.32678 169.978 7.67299 169.804 7.84498C169.487 8.15983 164.967 8.65904 164.955 8.38061C164.952 8.29563 164.833 8.23102 164.692 8.23707C164.551 8.24312 164.501 8.30622 164.581 8.37726C164.809 8.58034 164.257 8.73508 163.889 8.57124C163.642 8.46133 163.529 8.47357 163.444 8.61924C163.371 8.74502 162.975 8.81805 162.333 8.82407C161.784 8.82924 161.338 8.89447 161.341 8.96904C161.351 9.20913 160.1 9.10487 159.847 8.84455C159.712 8.70611 159.498 8.63637 159.372 8.68957C159.245 8.74277 159.2 8.83789 159.27 8.90092C159.341 8.96396 159.241 9.05905 159.049 9.11221C158.856 9.16538 158.63 9.14819 158.546 9.07398C158.454 8.99174 158.145 9.03462 157.755 9.18384C157.02 9.46465 154.715 9.82849 154.414 9.71105L154.414 9.71098ZM150.918 9.20041C150.907 8.94541 151.05 8.90163 151.267 9.09408C151.346 9.16512 151.303 9.26904 151.17 9.32499C151.036 9.38095 150.923 9.32503 150.918 9.20041ZM151.82 8.91046C151.957 8.82005 152.213 8.76851 152.389 8.79592C152.572 8.82438 152.465 8.89491 152.14 8.96029C151.74 9.04073 151.644 9.02589 151.82 8.91046ZM235.234 4.96128C234.933 4.93954 234.684 4.87188 234.682 4.81094C234.674 4.63328 235.731 4.68468 235.843 4.86743C235.899 4.95872 235.908 5.02607 235.863 5.0171C235.818 5.0081 235.535 4.98303 235.234 4.96128L235.234 4.96128ZM230.194 4.84389C230.853 4.64382 231.235 4.62741 230.8 4.8179C230.603 4.90389 230.279 4.97767 230.079 4.98184C229.839 4.98686 229.878 4.93987 230.194 4.84389ZM231.662 4.79443C231.584 4.72523 231.74 4.69346 232.009 4.72381C232.578 4.78819 232.654 4.88376 232.152 4.90528C231.96 4.91352 231.74 4.86363 231.662 4.79443ZM200.469 5.80408C200.078 5.59076 200.25 5.56741 203.243 5.42812C204.999 5.34636 206.676 5.24103 206.972 5.19389C207.267 5.14674 207.568 5.16058 207.64 5.22461C207.712 5.28864 208.103 5.31288 208.51 5.27846C209.61 5.18544 209.625 5.39657 208.526 5.50683C208.006 5.55897 207.631 5.54912 207.691 5.48512C207.882 5.28376 207.512 5.37131 207.142 5.6151C206.741 5.87976 205.72 5.96813 205.484 5.75859C205.38 5.66621 205.171 5.67747 204.86 5.79209C204.331 5.98712 203.821 5.89189 204.057 5.64221C204.161 5.53303 204.1 5.52566 203.878 5.62027C203.694 5.6987 202.946 5.82332 202.215 5.8972C201.169 6.0029 200.797 5.98309 200.469 5.80406L200.469 5.80408ZM219.895 5.14045C219.892 5.06061 219.937 4.99323 219.996 4.99071C220.054 4.98819 220.172 5.04856 220.258 5.12486C220.344 5.20118 220.299 5.26857 220.158 5.27463C220.017 5.28068 219.898 5.22031 219.895 5.14045ZM210.195 5.26589C209.973 5.19071 209.941 5.13492 210.114 5.12615C210.272 5.11803 210.472 5.17398 210.558 5.2503C210.752 5.42257 210.668 5.42617 210.195 5.26589ZM304.79 1.18605C304.91 1.05913 303.981 0.955768 303.799 1.07582C303.546 1.24308 302.47 1.31877 302.464 1.1698C302.46 1.07766 301.77 1.08503 300.584 1.1899C299.131 1.31848 298.519 1.31065 297.853 1.15499C297.381 1.04466 297.18 0.976454 297.406 1.00342C297.632 1.0304 297.849 0.994189 297.888 0.923059C297.927 0.851899 298.122 0.765427 298.32 0.730889C298.519 0.696384 298.759 0.599356 298.853 0.515301C298.948 0.431249 299.033 0.505488 299.042 0.68037C299.059 0.980868 299.096 0.985282 299.717 0.761103C300.306 0.548367 300.409 0.548564 300.72 0.763024C301.049 0.990408 301.058 0.989984 300.909 0.754901C300.788 0.563673 300.886 0.501379 301.338 0.481973C301.66 0.468143 302.04 0.56639 302.182 0.700288C302.325 0.835403 302.439 0.862851 302.439 0.761971C302.439 0.571531 303.162 0.468525 303.17 0.657876C303.172 0.717761 303.998 0.727621 305.005 0.67979C306.012 0.631942 306.892 0.643247 306.962 0.704902C307.031 0.766542 307.321 0.806958 307.606 0.794719C308.021 0.776914 308.066 0.811363 307.83 0.966925C307.534 1.16163 304.614 1.37274 304.79 1.18665L304.79 1.18605ZM308.766 1.01105C308.763 0.9445 308.842 0.882149 308.942 0.872468C309.041 0.862789 309.47 0.81256 309.895 0.760858C310.85 0.644578 311.202 0.878991 310.285 1.02031C309.378 1.16003 308.772 1.15634 308.766 1.01105ZM291.307 1.27553C291.304 1.19569 290.892 1.1479 290.393 1.16934C289.893 1.19079 289.407 1.27709 289.313 1.36113C289.198 1.46301 289.138 1.46562 289.131 1.36895C289.117 1.1873 287.665 1.20656 287.672 1.38829C287.676 1.46139 287.577 1.48875 287.455 1.4491C287.22 1.37355 285.084 1.32778 282.818 1.34977C282.084 1.35689 281.483 1.34805 281.483 1.33011C281.478 1.23281 278.292 1.36808 278.092 1.47405C277.736 1.66321 275.319 1.8882 275.313 1.73285C275.31 1.65904 275.143 1.60569 274.944 1.61426C274.744 1.62284 274.583 1.69289 274.586 1.76995C274.59 1.85742 272.885 1.95744 270.048 2.03625C267.549 2.10567 265.241 2.17443 264.92 2.18905C264.599 2.20416 263.97 2.17103 263.522 2.11653C263.032 2.05694 262.71 2.07026 262.713 2.14991C262.719 2.28184 261.871 2.29682 261.635 2.16895C261.567 2.13207 260.465 2.17009 259.185 2.25345C257.643 2.35392 256.741 2.35257 256.509 2.24945C256.237 2.12828 256.161 2.13798 256.165 2.29329C256.167 2.41928 256.102 2.43967 255.985 2.34867C255.874 2.26223 254.494 2.25352 252.53 2.32692C250.732 2.39421 245.28 2.58251 240.416 2.74553C235.552 2.90856 229.311 3.13029 226.547 3.23829C223.782 3.3464 221.518 3.39378 221.516 3.34384C221.513 3.29386 220.912 3.27871 220.18 3.31014C219.447 3.34157 218.85 3.41629 218.853 3.47617C218.856 3.53606 218.742 3.59001 218.601 3.59606C218.46 3.60212 218.409 3.53885 218.488 3.45546C218.567 3.37209 218.462 3.31116 218.254 3.32008C218.046 3.32905 217.874 3.27102 217.87 3.19118C217.867 3.11133 217.749 3.05095 217.607 3.057C217.466 3.06306 217.421 3.13045 217.507 3.20677C217.599 3.28872 217.335 3.35869 216.861 3.37769C216.255 3.40188 216.147 3.37185 216.417 3.25355C216.681 3.13809 216.691 3.10023 216.454 3.10873C216.208 3.11747 216.215 3.0666 216.488 2.88688C216.683 2.75854 217.068 2.64384 217.344 2.63199C217.62 2.62015 217.842 2.54073 217.839 2.4555C217.835 2.36357 218.043 2.33139 218.351 2.37639C218.7 2.42741 218.813 2.40197 218.697 2.2986C218.602 2.2141 218.589 2.14221 218.668 2.13883C218.747 2.13545 218.9 2.26348 219.008 2.42335L219.205 2.71404L219.831 2.38548C220.26 2.16027 220.512 2.10599 220.632 2.21294C220.756 2.32356 220.864 2.30911 221.002 2.16327C221.16 1.99611 222.82 1.88891 229.864 1.591C234.631 1.38948 240.495 1.18218 242.895 1.13058C245.295 1.07897 249.276 0.988082 251.742 0.928617C260.648 0.713853 262.943 0.676217 263.145 0.741529C263.598 0.88746 265.556 0.950115 265.847 0.827958C266.026 0.75268 266.239 0.767662 266.352 0.863494C266.498 0.987168 266.606 0.971365 266.777 0.801224C266.903 0.675822 267.01 0.638473 267.016 0.718229C267.023 0.809743 268.522 0.792533 271.082 0.671592C275.127 0.480436 282.05 0.418088 282.057 0.572765C282.059 0.617607 282.905 0.610691 283.937 0.557428C285.705 0.466123 289.788 0.489912 290.517 0.595778C290.785 0.63484 290.793 0.688894 290.555 0.876558C290.316 1.06568 290.323 1.09439 290.595 1.0307C290.779 0.98767 291.232 0.89936 291.601 0.834472C292.015 0.761771 292.217 0.65077 292.126 0.545283C292.045 0.451121 292.11 0.470896 292.27 0.589189C292.506 0.763167 292.819 0.772348 293.902 0.637201C294.665 0.542165 295.428 0.520976 295.673 0.588075C295.91 0.652985 296.411 0.701805 296.786 0.696578C297.415 0.687814 297.423 0.694266 296.888 0.778154C296.438 0.848632 296.385 0.895267 296.654 0.984318C297.035 1.11032 296.721 1.14162 293.311 1.31764C292.121 1.37899 291.311 1.36201 291.307 1.27554L291.307 1.27553ZM220.862 2.99089C220.78 2.87485 220.617 2.82025 220.5 2.86956C220.163 3.01091 220.262 3.23393 220.654 3.21712C220.87 3.20785 220.952 3.11904 220.862 2.99089ZM206.757 4.09342C206.995 3.80354 206.979 3.77247 206.639 3.86604C206.301 3.95937 206.284 3.92824 206.518 3.64173L206.791 3.30906L207.045 3.62239C207.338 3.98187 207.84 4.0144 208.031 3.68618C208.103 3.56311 208.074 3.46618 207.967 3.47076C207.86 3.47535 207.768 3.38031 207.763 3.25955C207.756 3.08105 207.973 3.048 208.928 3.08283C209.731 3.11209 210.101 3.07374 210.096 2.96181C210.092 2.87077 210.472 2.78147 210.951 2.76092C211.516 2.73667 211.759 2.78135 211.655 2.89065C211.543 3.00918 211.642 3.00396 211.998 2.87257C212.415 2.719 212.477 2.72616 212.368 2.91493C212.295 3.03989 212.138 3.1463 212.019 3.15141C211.9 3.15651 211.806 3.22602 211.809 3.30586C211.822 3.60849 212.252 3.41479 212.523 2.98432C212.839 2.48229 212.848 2.47924 213.463 2.64795C213.774 2.73306 213.875 2.88241 213.803 3.14847C213.746 3.35705 213.794 3.50458 213.909 3.47629C214.025 3.44802 214.177 3.48637 214.247 3.56156C214.322 3.64241 213.749 3.73513 212.845 3.78855C211.447 3.8711 211.291 3.84994 211.036 3.54223C210.76 3.21044 209.859 3.09844 209.872 3.39758C209.876 3.48216 209.985 3.5068 210.114 3.45237C210.247 3.3965 210.294 3.4502 210.221 3.57547C210.145 3.70523 209.931 3.76777 209.705 3.72589C209.454 3.67932 209.38 3.70962 209.496 3.81251C209.699 3.99311 208.9 4.16719 207.963 4.14652C207.629 4.13917 207.159 4.19974 206.919 4.28115C206.528 4.41378 206.511 4.39429 206.757 4.09343L206.757 4.09342ZM213.36 3.26356C213.425 3.19408 213.325 3.14384 213.137 3.15191C212.949 3.15998 212.854 3.21862 212.925 3.28221C212.997 3.3458 213.097 3.39605 213.147 3.39386C213.198 3.39168 213.294 3.33304 213.36 3.26356ZM203.496 4.26095C203.42 4.19331 203.574 4.09462 203.837 4.04161C204.157 3.97742 204.264 3.87014 204.159 3.7204C204.072 3.59672 204.104 3.49114 204.229 3.48576C204.561 3.47151 204.528 3.94804 204.18 4.17697C203.828 4.40917 203.683 4.42701 203.496 4.26095ZM204.964 3.79358C205.028 3.68418 205.111 3.59334 205.149 3.59171C205.187 3.59007 205.278 3.67345 205.35 3.77699C205.423 3.88054 205.34 3.97137 205.166 3.97886C204.991 3.98634 204.9 3.90297 204.964 3.79358ZM205.881 3.34677C206.134 3.21844 206.58 3.10112 206.872 3.08605C207.45 3.05613 207.827 3.26058 207.471 3.4102C207.349 3.46145 207.204 3.43013 207.149 3.34048C207.074 3.21805 206.922 3.22431 206.539 3.36535C205.805 3.63614 205.335 3.62258 205.881 3.34636L205.881 3.34677ZM202.662 3.46515C202.74 3.41345 202.949 3.39933 203.125 3.43378C203.32 3.47183 203.265 3.5087 202.983 3.52776C202.728 3.54501 202.583 3.51686 202.662 3.46516L202.662 3.46515ZM215.43 2.85957C215.114 2.75263 215.122 2.73145 215.484 2.71401C215.717 2.70269 215.911 2.75892 215.914 2.83878C215.922 3.01584 215.894 3.01701 215.43 2.85957ZM214.119 2.69428C213.996 2.51882 214.058 2.50372 214.454 2.61231C215.023 2.76832 215.081 2.87453 214.608 2.89484C214.422 2.9028 214.203 2.81254 214.119 2.69428Z" fill="currentColor"/>
</svg>
