<svg width="48" height="48" viewBox="0 0 48 48" fill="none" xmlns="http://www.w3.org/2000/svg">
<rect width="48" height="48" fill="#19AEC8"/>
<path d="M48 24C48 37.2548 37.2548 48 24 48C10.7452 48 0 37.2548 0 24C0 10.7452 10.7452 0 24 0C37.2548 0 48 10.7452 48 24Z" fill="#19AEC8"/>
<path d="M22.2157 18.048C22.3283 18.048 22.4256 18.089 22.5075 18.1709C22.5894 18.2528 22.6304 18.3501 22.6304 18.4627V28.3853C22.6304 28.4979 22.5894 28.5952 22.5075 28.6771C22.4256 28.759 22.3283 28.8 22.2157 28.8H19.7427C19.497 28.8 19.2922 28.6925 19.1283 28.4774L15.7798 24.2074V28.3853C15.7798 28.4979 15.7389 28.5952 15.657 28.6771C15.575 28.759 15.4778 28.8 15.3651 28.8H12.5082C12.3955 28.8 12.2982 28.759 12.2163 28.6771C12.1344 28.5952 12.0934 28.4979 12.0934 28.3853V18.4627C12.0934 18.3501 12.1344 18.2528 12.2163 18.1709C12.2982 18.089 12.3955 18.048 12.5082 18.048H14.9965C15.2422 18.048 15.4419 18.1504 15.5955 18.3552L18.944 22.9786V18.4627C18.944 18.3501 18.985 18.2528 19.0669 18.1709C19.1488 18.089 19.2461 18.048 19.3587 18.048H22.2157Z" fill="white"/>
<path d="M36.1566 18.048C36.2487 18.048 36.3255 18.0838 36.387 18.1555C36.4586 18.217 36.4945 18.2938 36.4945 18.3859L36.4791 18.4934L32.9463 28.2931C32.8951 28.4365 32.8132 28.5594 32.7006 28.6618C32.5879 28.7539 32.4394 28.8 32.2551 28.8H28.6762C28.4919 28.8 28.3434 28.7539 28.2308 28.6618C28.1182 28.5594 28.0414 28.4518 28.0004 28.3392L24.4369 18.4934L24.4215 18.3859C24.4215 18.2938 24.4522 18.217 24.5137 18.1555C24.5854 18.0838 24.6673 18.048 24.7594 18.048H28.0004C28.1847 18.048 28.3332 18.1043 28.4458 18.217C28.5687 18.3194 28.6506 18.432 28.6916 18.5549L30.458 24.4378L32.2244 18.5549C32.2654 18.4218 32.3422 18.304 32.4548 18.2016C32.5674 18.0992 32.721 18.048 32.9156 18.048H36.1566Z" fill="white"/>
</svg>
